<svg width="184" height="53" viewBox="0 0 184 53" fill="none" xmlns="http://www.w3.org/2000/svg">
    <g clip-path="url(#clip0_1754_7017)">
        <path fill-rule="evenodd" clip-rule="evenodd" d="M11.0793 13.39C10.7893 13.74 10.5793 13.91 10.1993 14.14C9.64931 14.47 9.26931 14.6 8.62931 14.64H3.50931C2.81931 14.93 2.48931 15.68 2.72931 16.39C2.94931 17.06 3.73931 17.34 4.24931 17.34H23.9493C24.7393 17.29 24.7993 17.43 25.3293 17.34C25.6293 17.29 25.7993 17.28 26.0693 17.14C26.5293 16.89 26.6993 16.73 26.8993 16.99C27.0693 17.21 26.9993 17.55 26.7593 17.68L24.5893 19.73C24.2293 20.13 23.9693 20.32 23.4793 20.53C23.0293 20.73 22.7293 20.79 22.2393 20.78H7.33931C7.01931 21.28 6.95931 21.56 7.19931 21.93C9.04931 24.73 15.6393 24.88 20.7193 24.83C25.0793 24.79 34.5593 24.53 33.4093 19.24C33.1493 18.06 31.8393 17.41 30.5493 16.69C28.5693 15.59 26.7693 15.14 24.5993 14.44C24.0693 14.27 23.5093 13.8 23.8993 13.09C24.1593 12.62 24.5293 12.57 24.9193 12.24C25.9493 11.35 26.6693 10.94 27.4993 9.89C28.3293 8.83 27.5793 7.77 27.0393 6.59C26.5393 5.5 25.7893 4.59 25.0593 4.24C24.7993 4.12 24.6093 4.34 24.3593 4.49L22.7493 6.09C22.6093 6.26 22.5093 6.36 22.3293 6.49C22.1493 6.63 22.0493 6.83 21.8293 6.79C21.6193 6.75 21.5393 6.59 21.4593 6.39C21.3893 6.23 21.4993 6.09 21.4093 5.94C21.3093 5.75 21.1193 5.77 20.9493 5.64C20.2793 5.09 19.9693 4.95 19.9593 3.64C19.9593 2.39 20.8993 1.2 21.9193 0.349997C22.1593 0.139997 22.4493 0.0199967 22.7093 0.199997C23.0293 0.419997 22.7493 0.859997 22.5693 1.2C22.0593 2.15 22.0593 3.08 22.8493 3.55C23.3093 3.82 23.7893 3.93 24.2393 3.6C25.0693 3 25.4893 2.55 26.0393 1.9C26.3593 1.52 26.7593 1.31 27.1893 1.5C28.3393 2 29.0493 2.93 29.6393 4.25C30.4793 6.16 30.5593 8.35 29.4093 9.6C28.7393 10.32 28.1993 10.76 27.9393 11.05C27.7093 11.3 27.3393 11.7 28.2093 12.05C31.4493 13.34 35.4993 14.85 35.2693 18.25C34.7093 26.55 22.4893 28.94 16.6793 29.04C17.7393 32.23 23.2293 31.73 27.2993 31.53C33.7093 31.22 42.5893 28.03 41.7793 23.09C41.3693 20.54 38.7793 20.09 36.4293 18.7C36.1093 18.5 35.8493 18.33 35.7793 17.95C35.7093 17.56 35.8693 17.27 36.1493 17C36.6493 16.5 36.8193 16.3 37.2493 15.85C37.7393 15.34 38.0793 15.11 38.4993 14.55C38.7393 14.23 38.9393 14.12 39.0593 13.7C39.2393 13.05 38.8893 11.82 38.2693 10.95C37.7093 10.16 37.0693 9.1 36.6093 9.15C36.3893 9.17 36.2793 9.29 36.0593 9.3C35.7793 9.32 35.5193 9.39 35.3693 9.15C35.2193 8.91 35.2993 8.58 35.5493 8.45L38.2293 6.05C38.4393 5.83 38.6693 5.75 38.9693 5.8C39.2193 5.84 39.3293 5.97 39.5193 6.15C40.9893 7.55 41.9593 8.74 42.0093 10.35C42.0593 12.22 40.6493 12.87 39.7993 14.49C39.5793 14.9 39.2093 15.08 39.2493 15.54C39.2893 16.02 39.6693 16.19 40.0293 16.49C43.2093 19.14 44.8793 22.54 42.2893 26.43C39.0293 31.35 36.6093 32.33 31.0793 34.72C22.1693 38.56 12.0693 36.02 15.2093 29.52C15.2793 29.38 15.3593 29.29 15.2593 29.17C15.2093 29.12 15.0693 29.12 14.8893 29.12C11.8093 28.93 8.56931 28.62 6.11931 26.27C4.82931 25.02 5.15931 23.19 5.74931 21.37C5.82931 21.13 6.15931 20.95 5.97931 20.77C5.90931 20.7 5.84931 20.67 5.74931 20.67H5.00931C1.06931 20.7 0.0593066 18.84 -0.000693426 17.89C-0.0406934 17.22 0.149307 16.75 0.649307 16.29L4.51931 12.74C5.00931 12.39 5.32931 12.23 5.90931 12.04C6.45931 11.86 6.79931 11.8 7.37931 11.79H10.6093C10.8193 11.83 10.9593 11.82 11.1693 11.74C11.3293 11.68 11.4193 11.62 11.5393 11.49L11.9993 11.13C12.0793 11.04 12.1993 10.99 12.3193 10.99C12.5793 10.99 12.7793 11.21 12.7793 11.49C12.7793 11.66 12.6993 11.82 12.5793 11.91L11.0793 13.39Z" fill="#A48D29"/>
        <path fill-rule="evenodd" clip-rule="evenodd" d="M45.7695 15.04C45.5895 15.04 45.3295 15.12 45.3295 15.12L44.2095 16.34C44.0095 16.56 43.6795 16.56 43.4695 16.34L42.3395 15.12C42.1395 14.9 42.1395 14.54 42.3395 14.32L43.4695 13.1C43.6695 12.87 44.0095 12.87 44.2095 13.1L45.3395 14.32C45.4695 14.4 45.5795 14.6 45.7795 14.59C45.9595 14.58 46.1695 14.32 46.1695 14.32L47.2895 13.1C47.4995 12.87 47.8295 12.87 48.0295 13.1L49.1595 14.32C49.3595 14.54 49.3595 14.9 49.1595 15.12L48.0295 16.34C47.8295 16.56 47.4995 16.56 47.2895 16.34L46.1695 15.12C46.1695 15.12 45.9295 15.04 45.7795 15.04H45.7695Z" fill="#A48D29"/>
        <path fill-rule="evenodd" clip-rule="evenodd" d="M44.1793 17.67L45.3093 16.45C45.5093 16.23 45.8393 16.23 46.0493 16.45L47.1693 17.67C47.3693 17.9 47.3693 18.25 47.1693 18.47L46.0493 19.69C45.8393 19.91 45.5093 19.91 45.3093 19.69L44.1793 18.47C43.9793 18.25 43.9793 17.89 44.1793 17.67Z" fill="#A48D29"/>
        <path fill-rule="evenodd" clip-rule="evenodd" d="M34.28 2.60001C34.24 2.46001 34.1 2.40001 33.96 2.40001C33.31 2.40001 32.97 2.29001 32.34 2.35001C31.6 2.43001 31.33 2.40001 30.5 2.85001C30.22 2.99001 29.92 3.18001 29.72 2.94001C29.54 2.74001 29.58 2.40001 29.81 2.25001L31.1 1.05001C32.01 0.450008 31.93 0.0500082 33.68 8.1514e-06C34.9 -0.0399918 35.66 0.200008 36.82 0.140008C37.11 0.140008 37.39 0.170008 37.51 0.440008C37.64 0.730008 37.48 1.09001 37.19 1.19001L35.21 3.04001C34.98 3.29001 34.65 3.49001 34.65 3.49001C34.58 3.73001 34.47 3.84001 34.42 4.09001C34.37 4.37001 34.37 4.55001 34.42 4.83001V9.48001C34.33 10.07 34.31 10.47 33.96 10.93C33.23 11.89 32.89 12.27 32.17 12.85C31.9 13.06 31.6 13.24 31.37 13.02C31.14 12.81 31.4 12.53 31.46 12.22C31.52 11.9 31.64 11.74 31.69 11.42C31.75 11.05 31.75 10.84 31.69 10.47V6.42001C31.66 6.07001 31.68 5.86001 31.78 5.53001C31.9 5.13001 32.04 4.92001 32.33 4.63001L34.04 2.93001C34.04 2.93001 34.31 2.74001 34.27 2.58001L34.28 2.60001Z" fill="#A48D29"/>
        <path fill-rule="evenodd" clip-rule="evenodd" d="M22.4299 6.95001C22.5199 6.66001 22.9499 6.54001 23.1699 6.75001C23.3899 6.95001 23.1599 7.24001 23.0299 7.50001C22.8499 7.88001 22.7299 8.12001 22.7999 8.85001V13.5C22.7999 13.85 22.9199 14.09 22.7599 14.4C22.6699 14.56 22.5599 14.67 22.3399 14.95L20.4999 16.85C20.3899 17.13 19.9999 17.24 19.7599 17.05C19.5199 16.85 19.7899 16.56 19.8499 16.25C19.9099 15.94 20.0299 15.77 20.0799 15.45C20.1299 15.08 20.1299 14.86 20.0799 14.5V10.45C20.0399 10.1 20.0699 9.88001 20.1699 9.55001C20.2899 9.16001 20.4299 8.94001 20.7199 8.65001L22.4299 6.95001Z" fill="#A48D29"/>
        <path d="M181.422 33.1501C181.322 32.9401 181.182 32.7601 181.012 32.6101C180.842 32.4601 180.672 32.3301 180.492 32.2301C180.322 32.1301 180.092 32.0101 179.802 31.8601C179.362 31.6601 179.042 31.4801 178.832 31.3101C178.632 31.1501 178.522 30.9301 178.522 30.6701C178.522 30.4301 178.622 30.2201 178.822 30.0401C179.022 29.8601 179.262 29.7701 179.552 29.7701C179.722 29.7701 179.912 29.8001 180.112 29.8601C180.322 29.9201 180.502 30.0201 180.672 30.1501C180.772 30.2201 180.902 30.3501 181.052 30.5201C181.202 30.6801 181.292 30.7601 181.342 30.7601C181.392 30.7601 181.422 30.7101 181.422 30.6001V29.6701C181.422 29.5701 181.372 29.4801 181.272 29.4101C181.172 29.3401 181.052 29.2801 180.892 29.2301C180.742 29.1801 180.582 29.1401 180.412 29.1201C180.242 29.0901 180.092 29.0801 179.942 29.0801C179.122 29.0801 178.482 29.2701 178.042 29.6601C177.592 30.0401 177.372 30.5201 177.372 31.0801C177.372 31.3701 177.422 31.6201 177.522 31.8301C177.622 32.0401 177.752 32.2201 177.902 32.3601C178.072 32.5001 178.232 32.6201 178.392 32.7201C178.572 32.8101 178.792 32.9201 179.082 33.0501L179.302 33.1401C179.672 33.3201 179.962 33.4901 180.152 33.6701C180.342 33.8501 180.442 34.0701 180.442 34.3601C180.442 34.6101 180.322 34.8201 180.082 35.0001C179.842 35.1801 179.602 35.2601 179.342 35.2601C179.082 35.2601 178.822 35.2201 178.572 35.1401C178.302 35.0501 178.082 34.9201 177.912 34.7701C177.842 34.7001 177.742 34.5701 177.632 34.3801C177.532 34.2101 177.452 34.1201 177.412 34.1201C177.322 34.1201 177.282 34.1701 177.282 34.2701V34.8301C177.252 35.0701 177.242 35.2701 177.242 35.4101C177.242 35.5101 177.302 35.6001 177.432 35.6701C177.562 35.7401 177.732 35.8001 177.922 35.8601C178.122 35.9001 178.332 35.9401 178.552 35.9501C178.772 35.9801 178.962 35.9901 179.142 35.9901C179.412 35.9901 179.692 35.9601 179.982 35.8801C180.272 35.8001 180.542 35.6701 180.772 35.5101C181.022 35.3301 181.222 35.1201 181.372 34.8401C181.522 34.5601 181.602 34.2401 181.602 33.8501C181.602 33.5801 181.552 33.3401 181.452 33.1301L181.422 33.1501Z" fill="#006937"/>
        <path d="M57.2918 35.29C57.1618 35.07 57.0918 34.8 57.0718 34.5C57.0018 33.05 56.9618 31.67 56.9618 30.4C56.9618 29 56.9618 28.09 56.9718 27.66C56.9718 27.3 56.9718 27.01 56.9818 26.81L57.0018 26.22C57.0318 25.86 57.1018 25.53 57.2118 25.25C57.3218 24.96 57.5018 24.75 57.7618 24.53L57.2518 24.56C56.8418 24.6 56.5318 24.62 56.3118 24.62C55.9318 24.62 55.4418 24.59 54.8418 24.62C55.1418 24.82 55.3418 25.05 55.4418 25.31C55.5518 25.56 55.6118 25.84 55.6418 26.17C55.6718 26.85 55.7018 27.56 55.7218 28.29C55.7418 29.02 55.7518 29.74 55.7518 30.44C55.7518 32.28 55.7518 33.66 55.7218 34.58C55.7218 34.86 55.6318 35.1 55.4918 35.31C55.3518 35.52 55.1618 35.68 54.9318 35.8V35.91C55.4318 35.86 55.9018 35.84 56.3418 35.84C56.7818 35.84 57.3018 35.86 57.8918 35.91V35.8C57.6318 35.68 57.4318 35.51 57.2918 35.3V35.29Z" fill="#006937"/>
        <path d="M64.9612 35.29C64.8312 35.07 64.7612 34.8 64.7412 34.5L64.7012 33.8L64.6512 32.66C64.6512 32.34 64.6412 32.01 64.6412 31.66V30.95C64.6412 30.31 64.4712 29.83 64.1412 29.51C63.8112 29.19 63.3512 29.03 62.7512 29.03C62.2712 29.03 61.9012 29.1 61.6112 29.25C61.3312 29.39 61.0412 29.58 60.6712 29.92V29.24C60.6712 29.18 60.6612 29.15 60.5612 29.07C60.5412 29.07 60.4712 29.11 60.3412 29.18C60.0212 29.37 59.7412 29.51 59.4912 29.59C59.4012 29.62 59.2712 29.65 59.0812 29.7C58.9112 29.73 58.7712 29.77 58.6712 29.81C58.5712 29.84 58.4912 29.88 58.4512 29.93L58.5012 30.05C58.7112 30.08 58.8612 30.12 58.9712 30.14C59.0812 30.17 59.1612 30.22 59.2212 30.3C59.2812 30.38 59.3312 30.49 59.3612 30.65C59.3912 30.8 59.4012 31.02 59.4012 31.3V32.7C59.4012 32.96 59.3912 33.56 59.3912 34.52C59.3912 34.79 59.3212 35.05 59.1712 35.27C59.0412 35.5 58.8512 35.67 58.6212 35.77V35.88C59.1212 35.83 59.5912 35.81 60.0312 35.81C60.4712 35.81 60.9812 35.83 61.5712 35.88V35.77C61.3112 35.65 61.1112 35.48 60.9712 35.27C60.8412 35.05 60.7712 34.78 60.7512 34.48C60.7012 33.45 60.6712 32.64 60.6712 32.06V30.92C60.7712 30.7 60.9812 30.51 61.3112 30.33C61.6512 30.15 61.9712 30.05 62.2812 30.05C62.6212 30.05 62.9012 30.17 63.1112 30.42C63.3312 30.67 63.4412 31.06 63.4412 31.61V32.99C63.4412 33.34 63.4412 33.85 63.4112 34.55C63.4112 34.83 63.3212 35.07 63.1812 35.28C63.0412 35.49 62.8512 35.65 62.6212 35.77V35.88C63.1212 35.83 63.5912 35.81 64.0312 35.81C64.4712 35.81 64.9812 35.83 65.5812 35.88V35.77C65.3212 35.65 65.1212 35.48 64.9812 35.27L64.9612 35.29Z" fill="#006937"/>
        <path d="M70.1616 34.7201C70.1116 34.7201 70.0216 34.7501 69.8816 34.8101C69.6016 34.9601 69.3516 35.0301 69.1716 35.0301C68.9916 35.0301 68.8416 34.9401 68.7116 34.7801C68.6016 34.6201 68.5316 34.4401 68.5216 34.2601C68.4516 32.8001 68.4116 31.4301 68.4116 30.1501V29.9301H69.5716V29.2801H68.4216C68.4416 28.5901 68.4516 28.0301 68.4516 27.6101C68.4516 27.5401 68.4416 27.4901 68.4116 27.4801C68.3916 27.4501 68.3416 27.4401 68.2616 27.4401C68.1916 27.4401 68.1016 27.5501 68.0016 27.7801C67.9016 28.0001 67.8016 28.1601 67.7316 28.2601C67.5916 28.4401 67.4316 28.6201 67.2416 28.8101C67.0516 29.0001 66.8716 29.1601 66.7116 29.2901C66.6416 29.3501 66.5516 29.4101 66.4216 29.4701C66.3116 29.5301 66.2316 29.5901 66.1716 29.6501C66.1316 29.6901 66.1016 29.7501 66.1016 29.8201C66.1016 29.8901 66.1016 29.9301 66.1316 29.9301H67.2116V30.1901C67.2116 32.0301 67.2116 33.4201 67.1816 34.3401C67.1816 34.8801 67.3316 35.2901 67.6416 35.5501C67.9416 35.8101 68.3016 35.9401 68.7216 35.9401C69.1916 35.9401 69.5716 35.8201 69.8916 35.5601C70.2016 35.3201 70.3516 35.1001 70.3516 34.9101C70.3516 34.7701 70.2916 34.7101 70.1616 34.7101V34.7201Z" fill="#006937"/>
        <path d="M76.6423 31.9401C76.7923 31.9401 76.9023 31.9401 76.9523 31.9101C77.0123 31.8801 77.0323 31.8201 77.0323 31.7301C77.0323 31.2501 76.9423 30.8501 76.7623 30.5101C76.5823 30.1701 76.3523 29.8901 76.0723 29.6801C75.7823 29.4701 75.4923 29.3201 75.1923 29.2301C74.9023 29.1401 74.6323 29.0901 74.4023 29.0901C73.3123 29.0901 72.4523 29.4101 71.8323 30.0401C71.2123 30.6701 70.9023 31.4801 70.9023 32.4701C70.9023 32.9601 70.9623 33.4301 71.0923 33.8501C71.2123 34.2701 71.4123 34.6401 71.6723 34.9601C71.9423 35.2801 72.2823 35.5301 72.7023 35.7101C73.1223 35.8901 73.6123 35.9801 74.1823 35.9801C74.6623 35.9801 75.0723 35.9101 75.4123 35.7801C75.7523 35.6401 76.0923 35.4301 76.4523 35.1501C76.5923 35.0501 76.7123 34.9101 76.8223 34.7301C76.9323 34.5501 76.9923 34.3801 77.0023 34.2301C77.0023 34.1401 77.0023 34.0401 76.9723 33.9501C76.9623 33.8501 76.9223 33.8001 76.8723 33.8001C76.8323 33.8001 76.7223 33.9001 76.5423 34.0901C76.3223 34.3401 76.1223 34.5201 75.9723 34.6401C75.7723 34.7901 75.5523 34.9301 75.3023 35.0401C75.0523 35.1301 74.7923 35.1901 74.5123 35.1901C74.1323 35.1901 73.7823 35.1001 73.4923 34.9301C73.1823 34.7501 72.9423 34.5301 72.7423 34.2401C72.5423 33.9501 72.3923 33.6201 72.2923 33.2501C72.1923 32.8901 72.1423 32.5201 72.1423 32.1301C72.1423 32.0501 72.1423 31.9901 72.1523 31.9401H76.6523H76.6423ZM72.2823 31.1001C72.5623 30.2801 73.1723 29.8701 74.1023 29.8701C74.5623 29.8701 74.9123 30.0001 75.1523 30.2501C75.4123 30.5001 75.5523 30.7801 75.5923 31.1101V31.2901H72.2823C72.2823 31.2901 72.2723 31.2401 72.2823 31.1001Z" fill="#006937"/>
        <path d="M82.3416 29.19C82.2116 29.14 82.0816 29.11 81.9516 29.11C81.5516 29.11 81.1716 29.22 80.8316 29.43C80.4816 29.63 80.1716 29.9 79.9016 30.24V29.35C79.9016 29.29 79.9016 29.23 79.8816 29.18C79.8716 29.14 79.8316 29.11 79.7716 29.11C79.6116 29.11 79.4816 29.12 79.3816 29.15C79.2916 29.17 79.1816 29.23 79.0716 29.3C78.9016 29.4 78.7516 29.47 78.6016 29.52C78.5116 29.55 78.3616 29.58 78.1516 29.61C78.0016 29.64 77.8816 29.67 77.7916 29.69C77.7116 29.72 77.6416 29.76 77.6016 29.8V29.94C77.9516 29.99 78.2116 30.15 78.3716 30.43C78.5416 30.7 78.6216 31 78.6216 31.32V32.72C78.6216 32.98 78.6216 33.58 78.6216 34.54C78.6216 34.81 78.5416 35.07 78.4016 35.29C78.2716 35.52 78.0816 35.69 77.8616 35.79V35.9C78.3616 35.85 78.8316 35.83 79.2716 35.83C79.7116 35.83 80.2216 35.85 80.8216 35.9V35.79C80.5516 35.67 80.3516 35.5 80.2216 35.29C80.0916 35.07 80.0216 34.8 80.0016 34.5C79.9516 33.47 79.9216 32.66 79.9216 32.08V31.43C80.1016 31.09 80.2916 30.82 80.5116 30.62C80.7416 30.42 81.0216 30.32 81.3616 30.32C81.4416 30.32 81.5416 30.35 81.6916 30.42C81.8316 30.5 81.9316 30.53 82.0116 30.53C82.0616 30.53 82.1116 30.5 82.1416 30.46C82.1816 30.41 82.2216 30.32 82.2616 30.21L82.3316 30.06C82.3316 30.06 82.3816 29.95 82.4216 29.88C82.5316 29.67 82.5816 29.51 82.5816 29.42C82.5816 29.33 82.5116 29.24 82.3816 29.18L82.3416 29.19Z" fill="#006937"/>
        <path d="M89.6213 35.29C89.4913 35.07 89.4213 34.8 89.4013 34.5L89.3613 33.8L89.3113 32.66C89.3013 32.34 89.3013 32.01 89.3013 31.66V30.95C89.3013 30.31 89.1313 29.83 88.8013 29.51C88.4713 29.19 88.0113 29.03 87.4013 29.03C86.9313 29.03 86.5513 29.1 86.2713 29.25C85.9913 29.39 85.7013 29.58 85.3313 29.92V29.24C85.3313 29.18 85.3213 29.15 85.2213 29.07C85.2013 29.07 85.1313 29.11 85.0013 29.18C84.6813 29.37 84.4013 29.51 84.1513 29.59C84.0713 29.62 83.9313 29.65 83.7413 29.7C83.5713 29.73 83.4313 29.77 83.3313 29.81C83.2313 29.84 83.1513 29.88 83.1113 29.93L83.1713 30.05C83.3813 30.08 83.5313 30.12 83.6313 30.14C83.7413 30.17 83.8213 30.22 83.8713 30.3C83.9413 30.38 83.9813 30.49 84.0113 30.65C84.0313 30.8 84.0513 31.02 84.0513 31.3V32.7C84.0513 32.96 84.0313 33.56 84.0313 34.52C84.0313 34.79 83.9613 35.05 83.8113 35.27C83.6813 35.5 83.4913 35.67 83.2713 35.77V35.88C83.7713 35.83 84.2413 35.81 84.6813 35.81C85.1213 35.81 85.6313 35.83 86.2313 35.88V35.77C85.9613 35.65 85.7613 35.48 85.6313 35.27C85.5013 35.05 85.4313 34.78 85.4113 34.48C85.3513 33.45 85.3313 32.64 85.3313 32.06V30.92C85.4313 30.7 85.6413 30.51 85.9713 30.33C86.3113 30.15 86.6313 30.05 86.9413 30.05C87.2813 30.05 87.5613 30.17 87.7713 30.42C87.9913 30.67 88.1013 31.06 88.1013 31.61V32.99C88.1013 33.34 88.1013 33.85 88.0713 34.55C88.0713 34.83 87.9813 35.07 87.8313 35.28C87.6913 35.49 87.5013 35.65 87.2713 35.77V35.88C87.7713 35.83 88.2413 35.81 88.6813 35.81C89.1213 35.81 89.6413 35.83 90.2213 35.88V35.77C89.9613 35.65 89.7613 35.48 89.6213 35.27V35.29Z" fill="#006937"/>
        <path d="M96.8019 34.8301C96.7519 34.8301 96.6519 34.8501 96.5019 34.8901C96.3419 34.9401 96.2219 34.9701 96.1519 34.9701C96.0119 34.9701 95.9019 34.9401 95.8219 34.8801C95.7519 34.8101 95.7119 34.7001 95.7019 34.5501C95.6319 33.3201 95.6019 32.2001 95.5919 31.2101V30.6901C95.5919 30.3101 95.5519 30.0201 95.4719 29.8001C95.4019 29.5801 95.2919 29.4201 95.1419 29.3201C94.9919 29.2101 94.8219 29.1401 94.6419 29.1201C94.4619 29.0901 94.2319 29.0601 93.9619 29.0601C93.6419 29.0601 93.3219 29.1101 93.0019 29.2001C92.6919 29.2901 92.4019 29.4001 92.1419 29.5601C91.8519 29.7201 91.6319 29.9101 91.4719 30.1301C91.3019 30.3401 91.2219 30.5701 91.2219 30.8101C91.2219 31.0301 91.3719 31.2201 91.6819 31.3901C91.8819 31.5001 92.0719 31.5501 92.2519 31.5501C92.3419 31.5501 92.4219 31.5201 92.5019 31.4701C92.5819 31.4101 92.6219 31.3401 92.6219 31.2701C92.6219 31.2201 92.6119 31.1301 92.5819 31.0101C92.5519 30.8901 92.5419 30.8101 92.5419 30.7501C92.5419 30.6201 92.5719 30.5001 92.6319 30.3601C92.7019 30.2301 92.8019 30.1001 92.9119 29.9901C93.0219 29.8801 93.1519 29.7801 93.2919 29.7101C93.4419 29.6401 93.5819 29.6001 93.7119 29.6001C93.8919 29.6001 94.0519 29.6901 94.1719 29.8601C94.3019 30.0401 94.3619 30.2601 94.3619 30.5501V31.7501C94.1119 31.9001 93.6819 32.0801 93.0819 32.3001C92.7319 32.4301 92.4419 32.5401 92.2119 32.6501C91.9819 32.7501 91.7619 32.8701 91.5719 33.0201C91.3719 33.1601 91.2219 33.3401 91.1019 33.5501C90.9819 33.7601 90.9219 34.0001 90.9219 34.2901C90.9219 34.5101 90.9719 34.7201 91.0719 34.9201C91.1819 35.1201 91.3219 35.3001 91.4919 35.4501C91.6719 35.6001 91.8619 35.7101 92.0819 35.7901C92.3019 35.8701 92.5419 35.9201 92.7619 35.9201C92.9819 35.9201 93.2519 35.8601 93.5419 35.7401C93.8319 35.6101 94.1119 35.4601 94.3919 35.2801C94.4519 35.5301 94.5719 35.7101 94.7319 35.8201C94.8919 35.9101 95.0919 35.9501 95.3219 35.9501C95.6119 35.9501 95.9419 35.8601 96.3219 35.6701C96.5019 35.6001 96.6519 35.5101 96.7719 35.4101C96.9019 35.3101 96.9619 35.2101 96.9619 35.1101C96.9619 35.0301 96.9519 34.9701 96.9219 34.9001C96.8919 34.8301 96.8519 34.8101 96.7919 34.8101L96.8019 34.8301ZM94.3519 34.4401C94.2219 34.6201 94.0519 34.7601 93.8719 34.8801C93.6919 34.9901 93.5319 35.0601 93.3519 35.0701C93.0219 35.0701 92.7719 34.9601 92.5819 34.7401C92.4119 34.5101 92.3219 34.2701 92.3219 34.0201C92.3219 33.7401 92.4719 33.5001 92.7519 33.2901C93.0419 33.0801 93.4619 32.8401 94.0019 32.5601L94.3719 32.3701C94.3719 33.3301 94.3719 34.0201 94.3519 34.4301V34.4401Z" fill="#006937"/>
        <path d="M101.353 34.7201C101.353 34.7201 101.223 34.7501 101.073 34.8101C100.793 34.9601 100.563 35.0301 100.363 35.0301C100.183 35.0301 100.033 34.9401 99.9127 34.7801C99.7927 34.6201 99.7327 34.4401 99.7227 34.2601C99.6527 32.8001 99.6127 31.4301 99.6127 30.1501V29.9301H100.773V29.2801H99.6227C99.6427 28.5901 99.6527 28.0301 99.6527 27.6101C99.6527 27.5401 99.6427 27.4901 99.6127 27.4801C99.5927 27.4501 99.5427 27.4401 99.4627 27.4401C99.3927 27.4401 99.3027 27.5501 99.2027 27.7801C99.1027 28.0001 99.0127 28.1601 98.9227 28.2601C98.7827 28.4401 98.6227 28.6201 98.4327 28.8101C98.2427 29.0001 98.0627 29.1601 97.9027 29.2901C97.8327 29.3501 97.7427 29.4101 97.6227 29.4701C97.5127 29.5301 97.4327 29.5901 97.3727 29.6501C97.3227 29.6901 97.3027 29.7501 97.3027 29.8201C97.3027 29.8901 97.3127 29.9301 97.3327 29.9301H98.4127V30.1901C98.4127 32.0301 98.4027 33.4201 98.3827 34.3401C98.3827 34.8801 98.5327 35.2901 98.8327 35.5501C99.1327 35.8101 99.4927 35.9401 99.9127 35.9401C100.373 35.9401 100.763 35.8201 101.073 35.5601C101.383 35.3201 101.543 35.1001 101.543 34.9101C101.543 34.7701 101.473 34.7101 101.353 34.7101V34.7201Z" fill="#006937"/>
        <path d="M104.602 35.2901C104.472 35.0701 104.402 34.8001 104.382 34.5001C104.322 33.4701 104.302 32.6601 104.302 32.0801C104.302 31.5901 104.312 31.1301 104.342 30.7101C104.372 30.2901 104.432 29.8201 104.522 29.2901V29.1801C104.292 29.1801 104.122 29.2001 104.002 29.2401C103.892 29.2801 103.762 29.3301 103.632 29.4101C103.482 29.5101 103.332 29.5801 103.192 29.6301C103.102 29.6601 102.942 29.6901 102.732 29.7401C102.552 29.7801 102.412 29.8101 102.302 29.8501C102.202 29.8801 102.132 29.9201 102.082 29.9601V30.0801C102.432 30.1301 102.672 30.2601 102.812 30.5001C102.962 30.7301 103.032 31.0101 103.032 31.3301V32.7301C103.032 32.9901 103.022 33.5901 103.022 34.5501C103.022 34.8201 102.952 35.0801 102.802 35.3001C102.662 35.5301 102.482 35.7001 102.252 35.8001V35.9101C102.752 35.8601 103.222 35.8401 103.662 35.8401C104.102 35.8401 104.612 35.8601 105.202 35.9101V35.8001C104.942 35.6801 104.742 35.5101 104.602 35.3001V35.2901Z" fill="#006937"/>
        <path d="M103.601 28.22C103.801 28.22 103.981 28.15 104.121 28.02C104.271 27.88 104.341 27.7 104.341 27.5C104.341 27.27 104.281 27.09 104.171 26.96C104.071 26.83 103.881 26.77 103.601 26.77C103.401 26.77 103.231 26.84 103.081 26.99C102.951 27.13 102.881 27.3 102.881 27.5C102.881 27.73 102.931 27.9 103.031 28.03C103.141 28.16 103.331 28.22 103.601 28.22Z" fill="#006937"/>
        <path d="M111.772 30.1801C111.472 29.8401 111.112 29.5801 110.702 29.3801C110.302 29.1901 109.872 29.0901 109.402 29.0901C108.852 29.0901 108.352 29.1801 107.902 29.3501C107.442 29.5101 107.062 29.7501 106.732 30.0601C106.412 30.3601 106.172 30.7101 106.002 31.1201C105.832 31.5301 105.752 31.9701 105.752 32.4501C105.752 32.9301 105.812 33.4101 105.942 33.8401C106.072 34.2801 106.272 34.6701 106.532 35.0001C106.802 35.3401 107.142 35.6001 107.552 35.7901C107.972 35.9801 108.472 36.0701 109.032 36.0701C109.592 36.0701 110.082 35.9901 110.532 35.8101C110.992 35.6401 111.382 35.4001 111.712 35.1001C112.042 34.7801 112.292 34.4301 112.462 34.0201C112.642 33.6001 112.732 33.1501 112.732 32.6801C112.732 32.2101 112.642 31.7501 112.472 31.3101C112.302 30.8701 112.062 30.4901 111.762 30.1501L111.772 30.1801ZM110.852 34.7701C110.432 35.1601 109.892 35.3601 109.252 35.3601C108.952 35.3601 108.672 35.2701 108.412 35.0801C108.142 34.8801 107.902 34.6101 107.702 34.2901C107.502 33.9701 107.342 33.6101 107.222 33.2301C107.112 32.8401 107.062 32.4601 107.062 32.0801C107.062 31.3501 107.252 30.7901 107.622 30.4101C108.012 30.0301 108.512 29.8401 109.152 29.8401C109.472 29.8401 109.782 29.9401 110.072 30.1401C110.362 30.3401 110.612 30.5901 110.822 30.9201C111.032 31.2401 111.192 31.6001 111.312 31.9901C111.442 32.3801 111.492 32.7601 111.492 33.1301C111.492 33.8401 111.282 34.4001 110.862 34.7901L110.852 34.7701Z" fill="#006937"/>
        <path d="M119.813 35.29C119.683 35.07 119.613 34.8 119.593 34.5L119.553 33.8L119.503 32.66C119.503 32.34 119.493 32.01 119.493 31.66V30.95C119.493 30.31 119.323 29.83 118.993 29.51C118.663 29.19 118.203 29.03 117.593 29.03C117.123 29.03 116.743 29.1 116.463 29.25C116.183 29.39 115.903 29.58 115.523 29.92V29.24C115.523 29.18 115.523 29.15 115.413 29.07C115.393 29.07 115.323 29.11 115.193 29.18C114.873 29.37 114.593 29.51 114.343 29.59C114.263 29.62 114.123 29.65 113.933 29.7C113.763 29.73 113.623 29.77 113.523 29.81C113.423 29.84 113.343 29.88 113.303 29.93L113.353 30.05C113.563 30.08 113.723 30.12 113.823 30.14C113.933 30.17 114.013 30.22 114.063 30.3C114.133 30.38 114.173 30.49 114.203 30.65C114.233 30.8 114.243 31.02 114.243 31.3V32.7C114.243 32.96 114.233 33.56 114.233 34.52C114.233 34.79 114.163 35.05 114.013 35.27C113.873 35.5 113.693 35.67 113.463 35.77V35.88C113.963 35.83 114.433 35.81 114.873 35.81C115.313 35.81 115.833 35.83 116.423 35.88V35.77C116.163 35.65 115.963 35.48 115.823 35.27C115.693 35.05 115.623 34.78 115.603 34.48C115.553 33.45 115.523 32.64 115.523 32.06V30.92C115.623 30.7 115.833 30.51 116.163 30.33C116.503 30.15 116.823 30.05 117.133 30.05C117.473 30.05 117.753 30.17 117.963 30.42C118.183 30.67 118.293 31.06 118.293 31.61V32.99C118.293 33.34 118.293 33.85 118.263 34.55C118.263 34.83 118.173 35.07 118.033 35.28C117.883 35.49 117.703 35.65 117.473 35.77V35.88C117.973 35.83 118.443 35.81 118.883 35.81C119.323 35.81 119.843 35.83 120.433 35.88V35.77C120.163 35.65 119.973 35.48 119.833 35.27L119.813 35.29Z" fill="#006937"/>
        <path d="M126.991 34.8301C126.931 34.8301 126.841 34.8501 126.691 34.8901C126.531 34.9401 126.411 34.9701 126.341 34.9701C126.201 34.9701 126.091 34.9401 126.011 34.8801C125.941 34.8101 125.901 34.7001 125.891 34.5501C125.821 33.3201 125.791 32.2001 125.781 31.2101V30.6901C125.781 30.3101 125.741 30.0201 125.661 29.8001C125.591 29.5801 125.481 29.4201 125.331 29.3201C125.181 29.2101 125.021 29.1401 124.841 29.1201C124.661 29.0901 124.431 29.0601 124.161 29.0601C123.841 29.0601 123.521 29.1101 123.201 29.2001C122.891 29.2901 122.601 29.4001 122.341 29.5601C122.061 29.7201 121.831 29.9101 121.671 30.1301C121.511 30.3401 121.431 30.5701 121.431 30.8101C121.431 31.0301 121.581 31.2201 121.891 31.3901C122.091 31.5001 122.281 31.5501 122.461 31.5501C122.541 31.5501 122.621 31.5201 122.711 31.4701C122.791 31.4101 122.831 31.3401 122.831 31.2701C122.831 31.2201 122.821 31.1301 122.791 31.0101C122.761 30.8901 122.751 30.8101 122.751 30.7501C122.751 30.6201 122.781 30.5001 122.841 30.3601C122.911 30.2301 123.011 30.1001 123.121 29.9901C123.241 29.8801 123.361 29.7801 123.501 29.7101C123.651 29.6401 123.791 29.6001 123.931 29.6001C124.111 29.6001 124.271 29.6901 124.391 29.8601C124.521 30.0401 124.581 30.2601 124.581 30.5501V31.7501C124.321 31.9001 123.901 32.0801 123.291 32.3001C122.941 32.4301 122.651 32.5401 122.421 32.6501C122.191 32.7501 121.981 32.8701 121.781 33.0201C121.591 33.1601 121.431 33.3401 121.311 33.5501C121.201 33.7601 121.131 34.0001 121.131 34.2901C121.131 34.5101 121.181 34.7201 121.281 34.9201C121.391 35.1201 121.531 35.3001 121.701 35.4501C121.871 35.6001 122.071 35.7101 122.291 35.7901C122.521 35.8701 122.751 35.9201 122.981 35.9201C123.211 35.9201 123.461 35.8601 123.751 35.7401C124.041 35.6101 124.331 35.4601 124.601 35.2801C124.671 35.5301 124.781 35.7101 124.951 35.8201C125.111 35.9101 125.311 35.9501 125.541 35.9501C125.831 35.9501 126.161 35.8601 126.541 35.6701C126.711 35.6001 126.861 35.5101 126.991 35.4101C127.121 35.3101 127.181 35.2101 127.181 35.1101C127.181 35.0301 127.171 34.9701 127.141 34.9001C127.111 34.8301 127.071 34.8101 127.001 34.8101L126.991 34.8301ZM124.541 34.4401C124.401 34.6201 124.251 34.7601 124.061 34.8801C123.881 34.9901 123.721 35.0601 123.541 35.0701C123.211 35.0701 122.951 34.9601 122.771 34.7401C122.591 34.5101 122.511 34.2701 122.511 34.0201C122.511 33.7401 122.651 33.5001 122.931 33.2901C123.221 33.0801 123.641 32.8401 124.171 32.5601L124.541 32.3701C124.541 33.3301 124.541 34.0201 124.531 34.4301L124.541 34.4401Z" fill="#006937"/>
        <path d="M130.062 35.29C129.932 35.07 129.862 34.8 129.842 34.5C129.772 33.05 129.732 31.67 129.732 30.4V28.77L129.762 27.14C129.782 26.61 129.802 26.14 129.832 25.76C129.862 25.37 129.892 25.14 129.922 25.08V24.97C129.692 24.97 129.522 24.99 129.402 25.03C129.282 25.06 129.162 25.12 129.032 25.19C128.882 25.29 128.732 25.37 128.592 25.41C128.502 25.44 128.342 25.48 128.132 25.52C127.952 25.56 127.812 25.59 127.712 25.63C127.612 25.65 127.542 25.69 127.492 25.74V25.86C127.842 25.91 128.072 26.05 128.202 26.28C128.332 26.52 128.402 26.8 128.422 27.14L128.452 27.7C128.492 28.33 128.512 28.82 128.522 29.16C128.522 29.5 128.532 29.92 128.532 30.43C128.532 32.27 128.532 33.65 128.502 34.57C128.502 34.85 128.412 35.09 128.272 35.3C128.122 35.51 127.932 35.67 127.712 35.79V35.9C128.212 35.85 128.682 35.83 129.122 35.83C129.562 35.83 130.082 35.85 130.672 35.9V35.79C130.412 35.67 130.212 35.5 130.072 35.29H130.062Z" fill="#006937"/>
        <path d="M144.521 34.4401L141.221 26.1801L140.591 24.5801H140.221C139.971 24.5801 139.671 24.5801 139.351 24.5601C139.041 24.5501 138.781 24.5301 138.601 24.6101C138.901 24.8101 139.141 25.0501 139.331 25.3301C139.531 25.6101 139.631 25.8701 139.631 26.1401C139.631 26.2101 139.621 26.2901 139.591 26.3701L136.281 34.3701C135.971 35.1201 135.471 35.6001 134.711 35.9001C135.111 35.8501 135.511 35.8201 135.931 35.8201C136.311 35.8201 136.681 35.8501 137.041 35.8201C136.871 35.6601 136.791 35.4801 136.791 35.2801C136.791 35.1401 136.841 34.9201 136.961 34.6301L138.181 31.4601C138.761 31.4001 139.401 31.3701 140.081 31.3701C140.581 31.3701 141.181 31.4001 141.881 31.4601L142.951 34.3901C142.981 34.4601 143.001 34.5501 143.021 34.6501C143.051 34.7501 143.061 34.8401 143.061 34.9201C143.061 35.0401 142.981 35.2101 142.821 35.4401C142.691 35.6101 142.621 35.7401 142.621 35.8901C143.161 35.8101 143.701 35.7701 144.241 35.7701C144.741 35.7701 145.251 35.8101 145.741 35.8001C145.191 35.5801 144.781 35.1301 144.511 34.4301L144.521 34.4401ZM140.061 30.8601C139.541 30.8601 139.031 30.8501 138.541 30.7501L140.161 26.8901L141.611 30.8101C141.111 30.8401 140.601 30.8501 140.071 30.8501L140.061 30.8601Z" fill="#006937"/>
        <path d="M148.813 35.2901C148.683 35.0701 148.613 34.8001 148.593 34.5001C148.543 33.4701 148.513 32.6601 148.513 32.0801C148.513 31.5901 148.523 31.1301 148.553 30.7101C148.593 30.2901 148.643 29.8201 148.733 29.2901V29.1801C148.503 29.1801 148.333 29.2001 148.213 29.2401C148.093 29.2801 147.973 29.3301 147.843 29.4101C147.683 29.5101 147.543 29.5801 147.403 29.6301C147.313 29.6601 147.153 29.6901 146.943 29.7401C146.763 29.7801 146.623 29.8101 146.523 29.8501C146.423 29.8801 146.353 29.9201 146.303 29.9601V30.0801C146.653 30.1301 146.893 30.2601 147.033 30.5001C147.173 30.7301 147.253 31.0101 147.253 31.3301V32.7301C147.253 32.9901 147.243 33.5901 147.243 34.5501C147.243 34.8201 147.163 35.0801 147.023 35.3001C146.883 35.5301 146.703 35.7001 146.483 35.8001V35.9101C146.983 35.8601 147.453 35.8401 147.893 35.8401C148.333 35.8401 148.853 35.8601 149.443 35.9101V35.8001C149.173 35.6801 148.973 35.5101 148.843 35.3001L148.813 35.2901Z" fill="#006937"/>
        <path d="M147.812 28.22C148.012 28.22 148.192 28.15 148.332 28.02C148.482 27.88 148.552 27.7 148.552 27.5C148.552 27.27 148.492 27.09 148.392 26.96C148.292 26.83 148.102 26.77 147.812 26.77C147.612 26.77 147.442 26.84 147.292 26.99C147.152 27.13 147.092 27.3 147.092 27.5C147.092 27.73 147.142 27.9 147.242 28.03C147.352 28.16 147.542 28.22 147.812 28.22Z" fill="#006937"/>
        <path d="M154.723 29.19C154.593 29.14 154.463 29.11 154.323 29.11C153.923 29.11 153.553 29.22 153.203 29.43C152.853 29.63 152.543 29.9 152.273 30.24V29.35C152.273 29.29 152.273 29.23 152.253 29.18C152.243 29.14 152.203 29.11 152.143 29.11C151.983 29.11 151.843 29.12 151.743 29.15C151.653 29.17 151.553 29.23 151.433 29.3C151.263 29.4 151.113 29.47 150.973 29.52C150.883 29.55 150.733 29.58 150.523 29.61C150.373 29.64 150.263 29.67 150.163 29.69C150.083 29.72 150.023 29.76 149.973 29.8V29.94C150.323 29.99 150.583 30.15 150.753 30.43C150.923 30.7 151.003 31 151.003 31.32V32.72C150.993 32.98 150.993 33.58 150.993 34.54C150.993 34.81 150.913 35.07 150.773 35.29C150.643 35.52 150.453 35.69 150.223 35.79V35.9C150.723 35.85 151.193 35.83 151.633 35.83C152.073 35.83 152.593 35.85 153.173 35.9V35.79C152.913 35.67 152.713 35.5 152.573 35.29C152.443 35.07 152.373 34.8 152.353 34.5C152.293 33.47 152.263 32.66 152.263 32.08V31.43C152.433 31.09 152.633 30.82 152.853 30.62C153.083 30.42 153.373 30.32 153.703 30.32C153.773 30.32 153.883 30.35 154.023 30.42C154.163 30.5 154.263 30.53 154.343 30.53C154.393 30.53 154.443 30.5 154.473 30.46C154.513 30.41 154.553 30.32 154.593 30.21L154.663 30.06C154.663 30.06 154.713 29.95 154.753 29.88C154.863 29.67 154.923 29.51 154.923 29.42C154.923 29.33 154.853 29.24 154.713 29.18L154.723 29.19Z" fill="#006937"/>
        <path d="M158.043 35.29C157.913 35.07 157.843 34.8 157.823 34.5C157.753 33.05 157.713 31.67 157.713 30.4V28.77L157.743 27.14C157.763 26.61 157.783 26.14 157.813 25.76C157.843 25.37 157.873 25.14 157.903 25.08V24.97C157.673 24.97 157.503 24.99 157.383 25.03C157.263 25.06 157.143 25.12 157.013 25.19C156.863 25.29 156.713 25.37 156.573 25.41C156.483 25.44 156.323 25.48 156.113 25.52C155.933 25.56 155.793 25.59 155.693 25.63C155.593 25.65 155.523 25.69 155.473 25.74V25.86C155.823 25.91 156.053 26.05 156.183 26.28C156.313 26.52 156.383 26.8 156.403 27.14L156.433 27.7C156.463 28.33 156.493 28.82 156.503 29.16C156.503 29.5 156.513 29.92 156.513 30.43C156.513 32.27 156.513 33.65 156.483 34.57C156.473 34.85 156.393 35.09 156.253 35.3C156.103 35.51 155.913 35.67 155.693 35.79V35.9C156.193 35.85 156.663 35.83 157.103 35.83C157.543 35.83 158.053 35.85 158.643 35.9V35.79C158.383 35.67 158.173 35.5 158.043 35.29Z" fill="#006937"/>
        <path d="M161.711 35.2901C161.591 35.0701 161.511 34.8001 161.491 34.5001C161.431 33.4701 161.411 32.6601 161.411 32.0801C161.411 31.5901 161.421 31.1301 161.451 30.7101C161.481 30.2901 161.551 29.8201 161.631 29.2901V29.1801C161.401 29.1801 161.231 29.2001 161.111 29.2401C160.991 29.2801 160.871 29.3301 160.741 29.4101C160.591 29.5101 160.441 29.5801 160.301 29.6301C160.211 29.6601 160.051 29.6901 159.841 29.7401C159.661 29.7801 159.521 29.8101 159.421 29.8501C159.321 29.8801 159.251 29.9201 159.201 29.9601V30.0801C159.551 30.1301 159.791 30.2601 159.931 30.5001C160.071 30.7301 160.151 31.0101 160.151 31.3301V32.7301C160.151 32.9901 160.141 33.5901 160.141 34.5501C160.141 34.8201 160.071 35.0801 159.921 35.3001C159.791 35.5301 159.601 35.7001 159.371 35.8001V35.9101C159.871 35.8601 160.341 35.8401 160.781 35.8401C161.221 35.8401 161.731 35.8601 162.321 35.9101V35.8001C162.061 35.6801 161.861 35.5101 161.721 35.3001L161.711 35.2901Z" fill="#006937"/>
        <path d="M160.712 28.22C160.912 28.22 161.082 28.15 161.232 28.02C161.382 27.88 161.452 27.7 161.452 27.5C161.452 27.27 161.392 27.09 161.292 26.96C161.192 26.83 161.002 26.77 160.712 26.77C160.512 26.77 160.342 26.85 160.192 26.99C160.052 27.13 159.992 27.3 159.992 27.5C159.992 27.73 160.042 27.9 160.142 28.03C160.252 28.16 160.442 28.22 160.712 28.22Z" fill="#006937"/>
        <path d="M169.381 35.29C169.251 35.07 169.181 34.8 169.161 34.5L169.121 33.8L169.071 32.66C169.071 32.34 169.061 32.01 169.061 31.66V30.95C169.061 30.31 168.891 29.83 168.551 29.51C168.231 29.19 167.761 29.03 167.161 29.03C166.691 29.03 166.311 29.1 166.031 29.25C165.751 29.39 165.461 29.58 165.091 29.92V29.24C165.091 29.18 165.081 29.15 164.981 29.07C164.961 29.07 164.891 29.11 164.761 29.18C164.441 29.37 164.161 29.51 163.911 29.59C163.821 29.62 163.691 29.65 163.501 29.7C163.321 29.73 163.191 29.77 163.091 29.81C162.991 29.84 162.911 29.88 162.871 29.93L162.921 30.05C163.131 30.08 163.281 30.12 163.381 30.14C163.491 30.17 163.571 30.22 163.631 30.3C163.691 30.38 163.741 30.49 163.761 30.65C163.791 30.8 163.801 31.02 163.801 31.3V32.7C163.801 32.96 163.791 33.56 163.791 34.52C163.791 34.79 163.721 35.05 163.571 35.27C163.431 35.5 163.251 35.67 163.021 35.77V35.88C163.521 35.83 163.991 35.81 164.431 35.81C164.871 35.81 165.381 35.83 165.981 35.88V35.77C165.711 35.65 165.511 35.48 165.381 35.27C165.251 35.05 165.181 34.78 165.161 34.48C165.111 33.45 165.081 32.64 165.081 32.06V30.92C165.181 30.7 165.391 30.51 165.721 30.33C166.061 30.15 166.381 30.05 166.691 30.05C167.021 30.05 167.301 30.17 167.521 30.42C167.741 30.67 167.851 31.06 167.851 31.61V32.99C167.851 33.34 167.851 33.85 167.831 34.55C167.821 34.83 167.741 35.07 167.591 35.28C167.451 35.49 167.261 35.65 167.031 35.77V35.88C167.531 35.83 168.001 35.81 168.441 35.81C168.881 35.81 169.401 35.83 169.991 35.88V35.77C169.721 35.65 169.531 35.48 169.391 35.27L169.381 35.29Z" fill="#006937"/>
        <path d="M176.271 31.9401C176.431 31.9401 176.531 31.9401 176.581 31.9101C176.641 31.8801 176.661 31.8201 176.661 31.7301C176.661 31.2501 176.571 30.8501 176.391 30.5101C176.211 30.1701 175.971 29.8901 175.691 29.6801C175.411 29.4701 175.121 29.3201 174.811 29.2301C174.521 29.1401 174.251 29.0901 174.021 29.0901C172.921 29.0901 172.071 29.4101 171.451 30.0401C170.831 30.6701 170.521 31.4801 170.521 32.4701C170.521 32.9601 170.581 33.4301 170.711 33.8501C170.841 34.2701 171.031 34.6401 171.301 34.9601C171.571 35.2801 171.911 35.5301 172.331 35.7101C172.751 35.8901 173.251 35.9801 173.811 35.9801C174.301 35.9801 174.701 35.9101 175.041 35.7801C175.371 35.6401 175.721 35.4301 176.081 35.1501C176.211 35.0501 176.341 34.9101 176.451 34.7301C176.561 34.5501 176.621 34.3801 176.631 34.2301C176.631 34.1401 176.631 34.0401 176.601 33.9501C176.581 33.8501 176.551 33.8001 176.511 33.8001C176.461 33.8001 176.351 33.9001 176.181 34.0901C175.961 34.3401 175.761 34.5201 175.611 34.6401C175.411 34.7901 175.181 34.9301 174.941 35.0401C174.701 35.1301 174.431 35.1901 174.151 35.1901C173.771 35.1901 173.421 35.1001 173.121 34.9301C172.821 34.7501 172.571 34.5301 172.371 34.2401C172.171 33.9501 172.021 33.6201 171.921 33.2501C171.821 32.8901 171.771 32.5201 171.771 32.1301C171.771 32.0501 171.771 31.9901 171.781 31.9401H176.281H176.271ZM171.911 31.1001C172.191 30.2801 172.801 29.8701 173.731 29.8701C174.191 29.8701 174.541 30.0001 174.781 30.2501C175.031 30.5001 175.181 30.7801 175.221 31.1101V31.2901H171.911C171.911 31.2901 171.901 31.2401 171.911 31.1001Z" fill="#006937"/>
        <path d="M178.001 0.600029C178.451 0.630029 178.941 0.700029 179.461 0.800029C179.811 0.850029 180.041 0.880029 180.151 0.880029C180.461 0.880029 180.991 0.860029 181.741 0.800029C182.381 0.750029 182.881 0.720029 183.221 0.700029V1.00003C182.771 1.23003 182.451 1.62003 182.251 2.14003C182.051 2.65003 181.931 3.23003 181.881 3.88003C181.831 4.50003 181.791 5.16003 181.781 5.83003V11.36C181.781 11.98 181.781 12.86 181.761 14.01C181.741 15.58 181.741 16.67 181.741 17.28C181.741 18.6 181.751 19.54 181.791 20.08L181.811 20.35C181.831 20.68 181.841 20.9 181.841 21.02C181.841 21.32 181.791 21.52 181.691 21.64C181.591 21.77 181.401 21.83 181.121 21.83C180.951 21.83 180.761 21.75 180.551 21.58C180.351 21.43 180.181 21.26 180.031 21.06L167.191 6.24003V11.34C167.191 13.64 167.261 16.08 167.391 18.68C167.441 19.84 167.931 20.62 168.851 21.04V21.39C168.091 21.32 167.461 21.28 166.971 21.26C166.501 21.23 166.041 21.21 165.611 21.21C165.351 21.21 165.101 21.22 164.871 21.23C164.641 21.25 164.161 21.29 163.431 21.35V21.01C163.861 20.79 164.201 20.5 164.451 20.14C164.701 19.77 164.831 19.33 164.841 18.8C164.881 17.16 164.891 14.69 164.891 11.39C164.891 10.87 164.891 10.03 164.911 8.89003C164.931 7.72003 164.941 6.83003 164.941 6.24003C164.941 5.10003 164.921 4.26003 164.891 3.71003V3.53003C164.841 2.99003 164.711 2.50003 164.491 2.07003C164.281 1.64003 163.921 1.24003 163.401 0.880029L163.281 0.530029C163.361 0.530029 163.481 0.530029 163.631 0.550029C164.371 0.630029 164.941 0.690029 165.341 0.720029L166.601 0.770029L179.491 15.98V11.35C179.491 10.09 179.471 8.82003 179.441 7.51003C179.401 6.20003 179.351 4.94003 179.291 3.72003C179.261 3.03003 179.171 2.49003 179.021 2.06003C178.871 1.63003 178.531 1.24003 178.001 0.890029V0.570029V0.600029Z" fill="#006937"/>
        <path d="M66.8309 9.16011C67.3609 8.26011 67.6209 7.37011 67.6209 6.46011C67.6209 5.60011 67.4009 4.76011 66.9509 3.93011C66.5109 3.10011 65.8309 2.42011 64.9409 1.87011C64.4409 1.57011 63.8209 1.33011 63.0609 1.15011C62.2909 0.950107 61.6209 0.860107 61.0309 0.860107C60.5509 0.860107 59.8009 0.890107 58.7709 0.960107C57.7809 1.04011 57.0109 1.08011 56.4709 1.08011C55.7809 1.08011 54.7009 1.01011 53.2509 0.880107V1.25011C53.8309 1.55011 54.2209 1.91011 54.4109 2.33011C54.6309 2.75011 54.7509 3.25011 54.7909 3.84011C54.8509 5.06011 54.9009 6.32011 54.9409 7.63011C54.9709 8.93011 54.9909 10.2101 54.9909 11.4701C54.9909 14.7601 54.9709 17.2301 54.9409 18.8801C54.9309 19.3701 54.7609 19.8001 54.4509 20.1401C54.1409 20.4801 53.7209 20.7901 53.2109 21.0601V21.4301C54.4409 21.3101 55.5409 21.2601 56.5409 21.2601C56.9709 21.2601 57.4209 21.2701 57.9009 21.3101C58.3909 21.3201 59.0209 21.3701 59.7809 21.4301V21.0801C59.2509 20.8301 58.8909 20.5601 58.7009 20.2601C58.5009 19.9501 58.3709 19.4401 58.3309 18.7201C58.2009 16.7901 58.1309 14.6101 58.1309 12.1801C58.4309 12.2601 58.7509 12.3301 59.1009 12.3801C59.4509 12.4101 59.7709 12.4301 60.0709 12.4301C61.0109 12.4301 61.8709 12.3601 62.6509 12.2301C63.4409 12.1001 64.1609 11.8101 64.7809 11.3701C65.6409 10.7701 66.3309 10.0301 66.8609 9.14011L66.8309 9.16011ZM63.9609 8.53011C63.8109 9.19011 63.5609 9.71011 63.2209 10.0901C62.7709 10.5501 62.2609 10.9001 61.6809 11.1301C61.1209 11.3601 60.5409 11.4801 59.9509 11.5001C59.8209 11.5001 59.5709 11.4601 59.2009 11.3801C58.7209 11.2801 58.3609 11.2301 58.1109 11.2301V5.86011C58.1309 5.20011 58.1609 4.56011 58.2109 3.95011C58.2209 3.82011 58.2409 3.62011 58.2409 3.36011C58.2409 2.83011 58.2809 2.47011 58.4409 2.27011C59.0209 2.21011 59.4309 2.18011 59.6809 2.18011C60.2309 2.18011 60.7309 2.23011 61.1909 2.35011C61.6509 2.45011 62.1009 2.64011 62.5309 2.92011C63.0109 3.25011 63.4009 3.73011 63.7109 4.35011C64.0409 4.98011 64.2109 5.62011 64.2109 6.28011C64.2109 7.10011 64.1309 7.86011 63.9609 8.53011Z" fill="#006937"/>
        <path d="M83.6814 20.1601C83.3414 19.7601 83.0414 19.2401 82.7914 18.6001L76.9014 3.83007L75.7114 0.880073H74.6414C73.6014 0.880073 72.4414 0.820073 71.1714 0.700073L71.2614 1.00007C71.8314 1.40007 72.2714 1.84007 72.6014 2.34007C72.9514 2.82007 73.1214 3.31007 73.1214 3.80007C73.1214 3.96007 73.1114 4.08007 73.0814 4.15007L67.1814 18.4701C66.8814 19.1801 66.5114 19.7401 66.0714 20.1601C65.6314 20.5701 65.1214 20.8901 64.5114 21.1001L64.1914 21.5001C64.8514 21.4001 65.3914 21.3301 65.8014 21.3001C66.2114 21.2701 66.6114 21.2501 66.9814 21.2501C67.3214 21.2501 67.6714 21.2701 68.0414 21.3001C68.4214 21.3301 68.8914 21.3901 69.4514 21.4701V21.1801C69.1514 20.9001 69.0114 20.5701 69.0114 20.1901C69.0114 20.0101 69.0314 19.8501 69.0614 19.7201C69.0914 19.5801 69.1614 19.3701 69.2814 19.0801L71.4614 13.4301C72.2714 13.3501 73.2414 13.3101 74.3814 13.3101C75.1914 13.3101 76.1214 13.3501 77.1614 13.4301L79.0714 18.6401C79.1014 18.7101 79.1414 18.8401 79.1614 19.0401C79.2214 19.2201 79.2414 19.4001 79.2414 19.5601C79.2414 19.8101 79.0814 20.1401 78.7714 20.5501C78.5514 20.8301 78.4514 21.0301 78.4514 21.1401V21.4801C79.1814 21.3701 79.8014 21.2901 80.3114 21.2601C80.8214 21.2101 81.3414 21.1901 81.8514 21.1901C82.2814 21.1901 82.7414 21.2101 83.2414 21.2601C83.7614 21.3101 84.3514 21.3901 85.0214 21.5101V21.1101C84.4914 20.8801 84.0514 20.5701 83.6814 20.1701V20.1601ZM74.3414 12.1301C73.8414 12.1301 73.1014 12.1101 72.1114 12.0101L74.4414 6.26007L76.6214 12.0801C75.6014 12.1201 74.8414 12.1301 74.3414 12.1301Z" fill="#006937"/>
        <path d="M88.8609 21.2201C88.4509 21.2201 88.0109 21.2301 87.5509 21.2701C87.1009 21.2801 86.5409 21.3301 85.8609 21.4001V21.0501C86.2909 20.8201 86.6309 20.5301 86.8809 20.1801C87.1309 19.8201 87.2609 19.3701 87.2709 18.8401C87.3109 17.1901 87.3209 14.7201 87.3209 11.4301C87.3209 10.1701 87.3009 8.89009 87.2709 7.59009C87.2409 6.29009 87.1909 5.01009 87.1309 3.77009C87.1009 3.16009 86.9909 2.63009 86.8009 2.18009C86.6209 1.74009 86.2609 1.33009 85.7109 0.960088V0.660088C86.4609 0.730088 87.0509 0.770088 87.4909 0.810088C87.9509 0.840088 88.3909 0.860088 88.8109 0.860088C89.1209 0.860088 89.6509 0.840088 90.3909 0.780088C91.0409 0.730088 91.5409 0.700088 91.9009 0.680088V0.980088C91.4409 1.21009 91.1109 1.60009 90.9109 2.12009C90.7109 2.63009 90.5909 3.21009 90.5309 3.86009C90.4809 4.65009 90.4509 5.48009 90.4409 6.36009V9.58009C91.3609 8.65009 92.2609 7.71009 93.1109 6.73009C93.9909 5.76009 94.7809 4.80009 95.5009 3.86009C95.7409 3.55009 95.9509 3.19009 96.1209 2.79009C96.3009 2.38009 96.3909 1.99009 96.3909 1.63009C96.3909 1.33009 96.3409 1.10009 96.2409 0.940088L96.5409 0.590088C97.8109 0.710088 98.7409 0.760088 99.3109 0.760088C99.6309 0.760088 100.161 0.740088 100.921 0.690088L102.631 0.590088L102.331 0.940088C101.641 1.19009 100.941 1.58009 100.251 2.10009C99.5609 2.63009 98.8909 3.21009 98.2409 3.86009C97.5609 4.53009 96.8709 5.26009 96.1609 6.01009L93.5109 8.86009C93.3109 9.08009 93.1609 9.24009 93.0609 9.36009C93.7209 10.3001 94.8509 11.7201 96.4309 13.6201C97.0109 14.3501 97.5009 14.9501 97.9009 15.4301C99.2609 17.1601 100.341 18.4401 101.171 19.2701C102.021 20.1001 102.791 20.5101 103.501 20.5101C103.551 20.5101 103.621 20.4901 103.721 20.4601C103.821 20.4201 103.941 20.4001 104.061 20.3801C104.191 20.3501 104.381 20.3301 104.611 20.3301C104.911 20.3301 105.101 20.3601 105.181 20.4301C105.261 20.4701 105.311 20.5401 105.311 20.6301C105.311 20.7401 104.971 20.9301 104.291 21.1701C103.611 21.4201 102.881 21.5401 102.111 21.5401C101.341 21.5401 100.671 21.4401 100.061 21.2401C99.4709 21.0201 98.9409 20.7401 98.4709 20.4001C98.0109 20.0401 97.6009 19.6501 97.2309 19.2601C96.8809 18.8501 96.4609 18.3101 95.9409 17.6501C95.5909 17.1901 95.3509 16.8601 95.2009 16.6801C94.9509 16.3701 94.6709 16.0101 94.3609 15.5901C93.6009 14.6101 92.9709 13.8201 92.4809 13.2101C91.9909 12.6001 91.5109 12.0501 91.0509 11.5501C90.9109 11.7201 90.7709 11.8901 90.6009 12.0701C90.5509 12.1401 90.5009 12.2001 90.4509 12.2401C90.4609 14.1401 90.5309 16.2801 90.6509 18.6601C90.7009 19.8001 91.2009 20.5901 92.1409 21.0201V21.3701C91.3609 21.3001 90.7309 21.2601 90.2509 21.2401C89.7809 21.2101 89.3109 21.1901 88.8609 21.1901V21.2201Z" fill="#006937"/>
        <path d="M109.451 21.2701C109.041 21.2701 108.601 21.2801 108.141 21.3201C107.701 21.3301 107.121 21.3801 106.431 21.4401V21.0901C106.881 20.8601 107.221 20.5701 107.471 20.2201C107.711 19.8601 107.851 19.4101 107.861 18.8901C107.891 17.2401 107.911 14.7701 107.911 11.4801C107.911 10.2301 107.891 8.95009 107.861 7.64009C107.831 6.33009 107.781 5.07009 107.711 3.85009C107.681 3.24009 107.571 2.71009 107.391 2.26009C107.211 1.80009 106.851 1.38009 106.301 1.02009V0.720093C107.061 0.780093 107.661 0.840093 108.111 0.870093C108.561 0.900093 108.991 0.920093 109.401 0.920093C109.711 0.920093 110.241 0.900093 110.991 0.850093C111.631 0.800093 112.131 0.760093 112.501 0.750093V1.05009C112.041 1.28009 111.711 1.66009 111.511 2.19009C111.311 2.71009 111.191 3.28009 111.141 3.93009C111.091 4.55009 111.061 5.21009 111.041 5.89009V11.4201C111.041 13.7001 111.111 16.1401 111.241 18.7501C111.291 19.8701 111.781 20.6601 112.701 21.1101V21.4601C111.921 21.3901 111.301 21.3501 110.821 21.3401C110.361 21.3001 109.901 21.2901 109.451 21.2901V21.2701Z" fill="#006937"/>
        <path d="M120.532 21.5701C119.922 21.5701 119.372 21.5201 118.872 21.4201C118.372 21.3201 117.772 21.1601 117.062 20.9501C116.762 20.8701 116.562 20.8101 116.472 20.7701C116.022 20.6401 115.722 20.4501 115.572 20.2001C115.442 19.9301 115.372 19.5801 115.372 19.1301L115.352 18.8801C115.302 18.6501 115.262 18.3801 115.232 18.0801C115.202 17.7701 115.182 17.4801 115.182 17.2101C115.182 17.0001 115.252 16.7901 115.382 16.5701C115.532 16.3601 115.772 16.2501 116.102 16.2501C116.252 16.2501 116.372 16.3301 116.482 16.4901C116.592 16.6401 116.742 16.9001 116.902 17.2601C117.152 17.8401 117.362 18.2301 117.542 18.4501C117.972 18.9501 118.522 19.3601 119.202 19.6901C119.902 20.0201 120.492 20.1901 120.992 20.1901C121.372 20.1901 121.752 20.1201 122.132 19.9901C122.532 19.8501 122.902 19.6301 123.252 19.3501C123.592 19.0501 123.872 18.6801 124.072 18.2401C124.292 17.7901 124.392 17.2901 124.392 16.7301C124.392 16.1701 124.282 15.6801 124.072 15.2201C123.852 14.7501 123.562 14.3301 123.182 13.9501C122.822 13.5501 122.422 13.1901 121.992 12.8601C121.552 12.5301 121.012 12.1301 120.332 11.6701C119.612 11.1701 119.012 10.7501 118.552 10.4001C118.092 10.0401 117.642 9.63009 117.232 9.19009C116.842 8.74009 116.512 8.26009 116.272 7.72009C116.042 7.18009 115.922 6.59009 115.922 5.97009C115.922 5.35009 116.042 4.72009 116.272 4.11009C116.502 3.50009 116.852 2.94009 117.312 2.43009C117.792 1.91009 118.392 1.50009 119.122 1.19009C119.852 0.880093 120.692 0.720093 121.652 0.720093C122.082 0.720093 122.682 0.790093 123.452 0.950093C124.082 1.08009 124.522 1.15009 124.792 1.15009C124.812 1.15009 124.842 1.14009 124.892 1.10009C125.022 1.03009 125.162 0.990093 125.312 0.950093C125.482 0.900093 125.702 0.880093 125.982 0.880093C126.212 0.880093 126.372 0.920093 126.452 1.00009C126.542 1.09009 126.592 1.16009 126.592 1.23009C126.592 1.64009 126.632 2.24009 126.712 3.04009C126.782 3.76009 126.812 4.31009 126.812 4.68009C126.812 4.78009 126.762 4.89009 126.662 5.03009C126.562 5.16009 126.392 5.23009 126.162 5.23009C125.912 5.23009 125.702 5.13009 125.512 4.91009C125.332 4.68009 125.122 4.36009 124.892 3.95009C124.662 3.55009 124.492 3.30009 124.392 3.20009C123.932 2.80009 123.422 2.51009 122.882 2.33009C122.352 2.15009 121.832 2.06009 121.322 2.06009C120.692 2.06009 120.102 2.32009 119.562 2.85009C119.022 3.37009 118.742 3.99009 118.742 4.71009C118.742 5.59009 119.062 6.36009 119.682 7.04009C120.332 7.70009 121.312 8.50009 122.632 9.44009C123.372 9.97009 123.982 10.4301 124.462 10.8301C124.952 11.2001 125.422 11.6401 125.872 12.1401C126.312 12.6301 126.672 13.1801 126.942 13.7701C127.202 14.3501 127.342 14.9701 127.362 15.6501C127.362 16.4001 127.222 17.1201 126.942 17.8301C126.662 18.5201 126.232 19.1501 125.652 19.7101C125.092 20.2801 124.372 20.7301 123.492 21.0801C122.632 21.4101 121.652 21.5801 120.522 21.5801L120.532 21.5701Z" fill="#006937"/>
        <path d="M147.041 0.430054C146.991 0.740054 146.771 1.29005 146.371 2.07005C145.971 2.88005 145.731 3.47005 145.651 3.83005C145.631 3.93005 145.531 4.02005 145.331 4.10005C145.151 4.17005 145.001 4.20005 144.881 4.20005C144.651 4.20005 144.491 4.13005 144.411 3.98005C144.331 3.83005 144.271 3.62005 144.241 3.34005C144.231 3.19005 144.211 3.10005 144.191 3.07005C144.141 2.84005 144.041 2.68005 143.891 2.57005C143.761 2.45005 143.611 2.39005 143.441 2.37005C143.041 2.35005 142.421 2.34005 141.561 2.34005H139.601L139.481 3.95005C139.401 5.02005 139.361 6.38005 139.361 8.02005C139.361 8.56005 139.361 9.16005 139.381 9.83005V11.4401C139.381 13.7201 139.451 16.1601 139.581 18.7701C139.631 19.9001 140.121 20.6801 141.041 21.1201V21.4601C140.261 21.4001 139.641 21.3601 139.151 21.3401C138.691 21.3001 138.241 21.2901 137.791 21.2901C137.381 21.2901 136.941 21.3001 136.471 21.3401C136.031 21.3501 135.461 21.3901 134.761 21.4601V21.1201C135.211 20.8901 135.551 20.6001 135.801 20.2601C136.051 19.9001 136.181 19.4501 136.201 18.9201C136.231 17.2701 136.251 14.8001 136.251 11.5101V7.15005C136.251 5.97005 136.241 4.78005 136.201 3.58005L136.171 2.34005C135.311 2.34005 134.551 2.37005 133.871 2.42005C133.191 2.47005 132.521 2.57005 131.861 2.72005C131.661 2.77005 131.421 2.86005 131.151 2.99005C130.881 3.13005 130.601 3.32005 130.301 3.56005C130.271 3.58005 130.211 3.62005 130.131 3.71005C129.951 3.87005 129.781 4.00005 129.611 4.11005C129.441 4.21005 129.251 4.26005 129.041 4.26005C128.891 4.26005 128.741 4.23005 128.591 4.16005C128.441 4.08005 128.371 4.02005 128.371 3.98005C128.381 3.84005 128.531 3.58005 128.821 3.19005C129.121 2.78005 129.311 2.47005 129.411 2.25005C129.431 2.20005 129.481 2.08005 129.591 1.88005C129.871 1.35005 130.051 0.920054 130.131 0.570054H131.171C131.331 0.750054 131.481 0.870054 131.611 0.920054C131.741 0.970054 131.971 1.00005 132.301 1.01005C133.651 1.03005 135.681 1.04005 138.371 1.04005C139.261 1.04005 140.661 1.00005 142.561 0.940054L144.611 0.890054C144.881 0.870054 145.231 0.780054 145.681 0.620054C145.891 0.530054 146.061 0.480054 146.171 0.450054H147.011L147.041 0.430054Z" fill="#006937"/>
        <path d="M161.611 20.1601C161.271 19.7601 160.971 19.2401 160.721 18.6001L154.821 3.83007L153.631 0.880073H152.571C151.531 0.880073 150.381 0.820073 149.101 0.700073L149.201 1.00007C149.761 1.40007 150.201 1.84007 150.541 2.34007C150.881 2.82007 151.061 3.31007 151.061 3.80007C151.061 3.96007 151.041 4.08007 151.011 4.15007L145.111 18.4701C144.811 19.1801 144.441 19.7401 143.991 20.1601C143.571 20.5701 143.041 20.8901 142.431 21.1001L142.111 21.5001C142.771 21.4001 143.311 21.3301 143.721 21.3001C144.131 21.2701 144.531 21.2501 144.911 21.2501C145.241 21.2501 145.591 21.2701 145.971 21.3001C146.351 21.3301 146.821 21.3901 147.381 21.4701V21.1801C147.081 20.9001 146.931 20.5701 146.931 20.1901C146.931 20.0101 146.941 19.8501 146.981 19.7201C147.011 19.5801 147.091 19.3701 147.201 19.0801L149.381 13.4301C150.191 13.3501 151.161 13.3101 152.311 13.3101C153.111 13.3101 154.041 13.3501 155.081 13.4301L156.991 18.6401C157.021 18.7101 157.061 18.8401 157.091 19.0401C157.141 19.2201 157.161 19.4001 157.161 19.5601C157.161 19.8101 157.011 20.1401 156.691 20.5501C156.481 20.8301 156.371 21.0301 156.371 21.1401V21.4801C157.101 21.3701 157.721 21.2901 158.231 21.2601C158.741 21.2101 159.251 21.1901 159.761 21.1901C160.191 21.1901 160.651 21.2101 161.151 21.2601C161.661 21.3101 162.251 21.3901 162.931 21.5101V21.1101C162.401 20.8801 161.951 20.5701 161.591 20.1701L161.611 20.1601ZM152.271 12.1301C151.781 12.1301 151.031 12.1101 150.041 12.0101L152.371 6.26007L154.551 12.0801C153.531 12.1201 152.771 12.1301 152.271 12.1301Z" fill="#006937"/>
        <path d="M80.3017 46.6701C79.5017 46.6701 78.8817 46.3901 78.4617 45.8301C78.0417 45.2601 77.8817 44.5201 78.0017 43.6201C78.1217 42.7001 78.4717 41.9601 79.0517 41.4001C79.6317 40.8401 80.3317 40.5601 81.1517 40.5601C81.7817 40.5601 82.3017 40.7401 82.7117 41.0901C83.1217 41.4401 83.3317 41.9001 83.3417 42.4601H82.5817C82.5617 42.0801 82.4117 41.7801 82.1417 41.5701C81.8617 41.3601 81.4917 41.2501 81.0117 41.2501C80.4417 41.2501 79.9617 41.4701 79.5517 41.9101C79.1417 42.3501 78.9017 42.9301 78.8017 43.6301C78.7017 44.3801 78.8017 44.9701 79.0817 45.3901C79.3617 45.8001 79.8117 46.0101 80.4317 46.0101C81.0517 46.0101 81.5417 45.7901 81.9617 45.3501C82.0317 45.2801 82.0917 45.2101 82.1517 45.1301C82.2217 45.0301 82.2917 44.8901 82.3617 44.7001C82.4317 44.5201 82.4717 44.3501 82.4917 44.1801V44.1101H80.6917L80.7817 43.4501H83.3217L82.9217 46.5201H82.4417L82.3417 45.7901L82.2917 45.8401C81.7417 46.4001 81.0817 46.6801 80.3017 46.6801V46.6701Z" fill="#006937"/>
        <path d="M80.3017 46.6701C79.5017 46.6701 78.8817 46.3901 78.4617 45.8301C78.0417 45.2601 77.8817 44.5201 78.0017 43.6201C78.1217 42.7001 78.4717 41.9601 79.0517 41.4001C79.6317 40.8401 80.3317 40.5601 81.1517 40.5601C81.7817 40.5601 82.3017 40.7401 82.7117 41.0901C83.1217 41.4401 83.3317 41.9001 83.3417 42.4601H82.5817C82.5617 42.0801 82.4117 41.7801 82.1417 41.5701C81.8617 41.3601 81.4917 41.2501 81.0117 41.2501C80.4417 41.2501 79.9617 41.4701 79.5517 41.9101C79.1417 42.3501 78.9017 42.9301 78.8017 43.6301C78.7017 44.3801 78.8017 44.9701 79.0817 45.3901C79.3617 45.8001 79.8117 46.0101 80.4317 46.0101C81.0517 46.0101 81.5417 45.7901 81.9617 45.3501C82.0317 45.2801 82.0917 45.2101 82.1517 45.1301C82.2217 45.0301 82.2917 44.8901 82.3617 44.7001C82.4317 44.5201 82.4717 44.3501 82.4917 44.1801V44.1101H80.6917L80.7817 43.4501H83.3217L82.9217 46.5201H82.4417L82.3417 45.7901L82.2917 45.8401C81.7417 46.4001 81.0817 46.6801 80.3017 46.6801V46.6701Z" fill="#006937"/>
        <path d="M83.8516 46.51L84.4016 42.29H85.0816L84.9916 43.01C85.0716 42.9 85.1416 42.79 85.2216 42.71C85.5416 42.35 85.8916 42.16 86.2816 42.16C86.3416 42.16 86.4116 42.16 86.4816 42.2L86.3816 42.93H86.2416C85.8516 42.93 85.5516 43.04 85.3116 43.27C85.0716 43.5 84.9216 43.83 84.8716 44.25L84.5716 46.52H83.8616L83.8516 46.51Z" fill="#006937"/>
        <path d="M83.8516 46.51L84.4016 42.29H85.0816L84.9916 43.01C85.0716 42.9 85.1416 42.79 85.2216 42.71C85.5416 42.35 85.8916 42.16 86.2816 42.16C86.3416 42.16 86.4116 42.16 86.4816 42.2L86.3816 42.93H86.2416C85.8516 42.93 85.5516 43.04 85.3116 43.27C85.0716 43.5 84.9216 43.83 84.8716 44.25L84.5716 46.52H83.8616L83.8516 46.51Z" fill="#006937"/>
        <path d="M87.8522 46.62C87.2622 46.62 86.8122 46.43 86.5222 46.05C86.2322 45.67 86.1222 45.15 86.2122 44.48C86.3022 43.77 86.5522 43.2 86.9722 42.78C87.3822 42.36 87.9023 42.15 88.5123 42.15C89.0623 42.15 89.4822 42.35 89.7722 42.77C90.0622 43.18 90.1622 43.72 90.0722 44.39L90.0322 44.64H86.9522C86.9322 45.05 86.9822 45.38 87.1122 45.6C87.2822 45.87 87.5722 46 88.0022 46C88.2722 46 88.5222 45.93 88.7422 45.78C88.9622 45.63 89.1122 45.43 89.1822 45.2H89.8822C89.7222 45.66 89.4622 46.02 89.1122 46.26C88.7622 46.5 88.3422 46.63 87.8422 46.63L87.8522 46.62ZM89.3723 44.07C89.4023 43.68 89.3422 43.37 89.2022 43.16C89.0422 42.92 88.7823 42.8 88.4123 42.8C88.0423 42.8 87.7222 42.93 87.4622 43.21C87.2622 43.43 87.1122 43.71 87.0322 44.07H89.3822H89.3723Z" fill="#006937"/>
        <path d="M87.8522 46.62C87.2622 46.62 86.8122 46.43 86.5222 46.05C86.2322 45.67 86.1222 45.15 86.2122 44.48C86.3022 43.77 86.5522 43.2 86.9722 42.78C87.3822 42.36 87.9023 42.15 88.5123 42.15C89.0623 42.15 89.4822 42.35 89.7722 42.77C90.0622 43.18 90.1622 43.72 90.0722 44.39L90.0322 44.64H86.9522C86.9322 45.05 86.9822 45.38 87.1122 45.6C87.2822 45.87 87.5722 46 88.0022 46C88.2722 46 88.5222 45.93 88.7422 45.78C88.9622 45.63 89.1122 45.43 89.1822 45.2H89.8822C89.7222 45.66 89.4622 46.02 89.1122 46.26C88.7622 46.5 88.3422 46.63 87.8422 46.63L87.8522 46.62ZM89.3723 44.07C89.4023 43.68 89.3422 43.37 89.2022 43.16C89.0422 42.92 88.7823 42.8 88.4123 42.8C88.0423 42.8 87.7222 42.93 87.4622 43.21C87.2622 43.43 87.1122 43.71 87.0322 44.07H89.3822H89.3723Z" fill="#006937"/>
        <path d="M91.4516 46.62C91.0416 46.62 90.7316 46.51 90.5116 46.29C90.3016 46.07 90.2116 45.77 90.2616 45.4C90.3116 45.02 90.4616 44.72 90.7216 44.49C90.9816 44.27 91.3316 44.13 91.7716 44.08L92.7516 43.95C92.8316 43.95 92.9116 43.93 92.9816 43.91C93.0716 43.89 93.1616 43.84 93.2116 43.77C93.2716 43.7 93.3116 43.61 93.3216 43.5V43.46C93.3516 43.24 93.3016 43.06 93.1416 42.93C92.9816 42.8 92.7616 42.74 92.4516 42.74C92.1616 42.74 91.9216 42.81 91.7416 42.94C91.5616 43.07 91.4316 43.28 91.3616 43.54H90.7116C90.8016 43.08 91.0116 42.73 91.3316 42.5C91.6516 42.27 92.0916 42.15 92.6316 42.15C93.1416 42.15 93.5216 42.26 93.7616 42.49C94.0016 42.71 94.0916 43.04 94.0316 43.46L93.7316 45.78C93.7216 45.85 93.7316 45.91 93.7816 45.95C93.8116 46 93.8716 46.02 93.9516 46.02C93.9716 46.02 94.0016 46.02 94.0416 46.02C94.0816 46.02 94.1316 46.01 94.1716 46L94.1116 46.51C94.0416 46.53 93.9616 46.55 93.8816 46.57C93.8016 46.58 93.7416 46.59 93.6816 46.59C93.4116 46.59 93.2316 46.51 93.1316 46.37C93.0616 46.28 93.0216 46.13 93.0116 45.96C92.9516 46.03 92.8816 46.09 92.8016 46.15C92.4016 46.47 91.9516 46.63 91.4316 46.63L91.4516 46.62ZM93.1616 44.84L93.2216 44.38C93.0816 44.45 92.9316 44.49 92.7616 44.51L92.1016 44.61C91.7516 44.65 91.4916 44.73 91.3216 44.84C91.1516 44.95 91.0516 45.11 91.0316 45.3C91.0016 45.54 91.0316 45.72 91.1516 45.85C91.2616 45.98 91.4416 46.04 91.6816 46.04C92.0516 46.04 92.3816 45.94 92.6716 45.74C92.8616 45.6 93.0016 45.44 93.0816 45.26C93.0916 45.23 93.1116 45.17 93.1216 45.1C93.1416 45.02 93.1516 44.94 93.1716 44.85L93.1616 44.84Z" fill="#006937"/>
        <path d="M91.4516 46.62C91.0416 46.62 90.7316 46.51 90.5116 46.29C90.3016 46.07 90.2116 45.77 90.2616 45.4C90.3116 45.02 90.4616 44.72 90.7216 44.49C90.9816 44.27 91.3316 44.13 91.7716 44.08L92.7516 43.95C92.8316 43.95 92.9116 43.93 92.9816 43.91C93.0716 43.89 93.1616 43.84 93.2116 43.77C93.2716 43.7 93.3116 43.61 93.3216 43.5V43.46C93.3516 43.24 93.3016 43.06 93.1416 42.93C92.9816 42.8 92.7616 42.74 92.4516 42.74C92.1616 42.74 91.9216 42.81 91.7416 42.94C91.5616 43.07 91.4316 43.28 91.3616 43.54H90.7116C90.8016 43.08 91.0116 42.73 91.3316 42.5C91.6516 42.27 92.0916 42.15 92.6316 42.15C93.1416 42.15 93.5216 42.26 93.7616 42.49C94.0016 42.71 94.0916 43.04 94.0316 43.46L93.7316 45.78C93.7216 45.85 93.7316 45.91 93.7816 45.95C93.8116 46 93.8716 46.02 93.9516 46.02C93.9716 46.02 94.0016 46.02 94.0416 46.02C94.0816 46.02 94.1316 46.01 94.1716 46L94.1116 46.51C94.0416 46.53 93.9616 46.55 93.8816 46.57C93.8016 46.58 93.7416 46.59 93.6816 46.59C93.4116 46.59 93.2316 46.51 93.1316 46.37C93.0616 46.28 93.0216 46.13 93.0116 45.96C92.9516 46.03 92.8816 46.09 92.8016 46.15C92.4016 46.47 91.9516 46.63 91.4316 46.63L91.4516 46.62ZM93.1616 44.84L93.2216 44.38C93.0816 44.45 92.9316 44.49 92.7616 44.51L92.1016 44.61C91.7516 44.65 91.4916 44.73 91.3216 44.84C91.1516 44.95 91.0516 45.11 91.0316 45.3C91.0016 45.54 91.0316 45.72 91.1516 45.85C91.2616 45.98 91.4416 46.04 91.6816 46.04C92.0516 46.04 92.3816 45.94 92.6716 45.74C92.8616 45.6 93.0016 45.44 93.0816 45.26C93.0916 45.23 93.1116 45.17 93.1216 45.1C93.1416 45.02 93.1516 44.94 93.1716 44.85L93.1616 44.84Z" fill="#006937"/>
        <path d="M96.1111 46.5001C95.8611 46.5401 95.6911 46.5601 95.5711 46.5601C95.2611 46.5601 95.0511 46.4901 94.9411 46.3501C94.8311 46.2201 94.7911 45.9801 94.8411 45.6501L95.2011 42.8601H94.6211L94.6911 42.2901H95.2711L95.4311 41.1101H96.1411L95.9811 42.2901H96.6511L96.5811 42.8601H95.9111L95.5511 45.6401C95.5411 45.7301 95.5611 45.8101 95.6311 45.8701C95.7011 45.9201 95.7911 45.9601 95.9211 45.9601H96.1711L96.1011 46.5101L96.1111 46.5001Z" fill="#006937"/>
        <path d="M96.1111 46.5001C95.8611 46.5401 95.6911 46.5601 95.5711 46.5601C95.2611 46.5601 95.0511 46.4901 94.9411 46.3501C94.8311 46.2201 94.7911 45.9801 94.8411 45.6501L95.2011 42.8601H94.6211L94.6911 42.2901H95.2711L95.4311 41.1101H96.1411L95.9811 42.2901H96.6511L96.5811 42.8601H95.9111L95.5511 45.6401C95.5411 45.7301 95.5611 45.8101 95.6311 45.8701C95.7011 45.9201 95.7911 45.9601 95.9211 45.9601H96.1711L96.1011 46.5101L96.1111 46.5001Z" fill="#006937"/>
        <path d="M98.6523 46.5101L99.4023 40.7101H101.942C102.502 40.7101 102.922 40.8501 103.202 41.1401C103.482 41.4201 103.592 41.8101 103.532 42.3101C103.462 42.8601 103.242 43.2901 102.882 43.6001C102.532 43.9101 102.072 44.0701 101.502 44.0701C100.762 44.0701 100.182 44.0701 99.7523 44.0701L99.4323 46.5101H98.6523ZM99.8423 43.3901H101.402C101.812 43.3901 102.122 43.3001 102.332 43.1301C102.542 42.9601 102.672 42.6901 102.722 42.3201C102.762 42.0001 102.702 41.7501 102.532 41.6101C102.362 41.4501 102.072 41.3801 101.672 41.3801H100.112L99.8523 43.3901H99.8423Z" fill="#006937"/>
        <path d="M98.6523 46.5101L99.4023 40.7101H101.942C102.502 40.7101 102.922 40.8501 103.202 41.1401C103.482 41.4201 103.592 41.8101 103.532 42.3101C103.462 42.8601 103.242 43.2901 102.882 43.6001C102.532 43.9101 102.072 44.0701 101.502 44.0701C100.762 44.0701 100.182 44.0701 99.7523 44.0701L99.4323 46.5101H98.6523ZM99.8423 43.3901H101.402C101.812 43.3901 102.122 43.3001 102.332 43.1301C102.542 42.9601 102.672 42.6901 102.722 42.3201C102.762 42.0001 102.702 41.7501 102.532 41.6101C102.362 41.4501 102.072 41.3801 101.672 41.3801H100.112L99.8523 43.3901H99.8423Z" fill="#006937"/>
        <path d="M105.282 46.62C104.682 46.62 104.242 46.43 103.952 46.05C103.662 45.67 103.562 45.15 103.642 44.48C103.732 43.77 103.992 43.2 104.402 42.78C104.822 42.36 105.332 42.15 105.942 42.15C106.492 42.15 106.912 42.35 107.192 42.77C107.482 43.18 107.572 43.72 107.492 44.39L107.452 44.64H104.372C104.352 45.05 104.402 45.38 104.542 45.6C104.712 45.87 105.002 46 105.432 46C105.702 46 105.942 45.93 106.172 45.78C106.402 45.63 106.542 45.43 106.612 45.2H107.322C107.152 45.66 106.902 46.02 106.552 46.26C106.212 46.5 105.782 46.63 105.282 46.63V46.62ZM106.802 44.07C106.832 43.68 106.772 43.37 106.632 43.16C106.472 42.92 106.202 42.8 105.832 42.8C105.462 42.8 105.142 42.93 104.882 43.21C104.682 43.43 104.532 43.71 104.452 44.07H106.802Z" fill="#006937"/>
        <path d="M105.282 46.62C104.682 46.62 104.242 46.43 103.952 46.05C103.662 45.67 103.562 45.15 103.642 44.48C103.732 43.77 103.992 43.2 104.402 42.78C104.822 42.36 105.332 42.15 105.942 42.15C106.492 42.15 106.912 42.35 107.192 42.77C107.482 43.18 107.572 43.72 107.492 44.39L107.452 44.64H104.372C104.352 45.05 104.402 45.38 104.542 45.6C104.712 45.87 105.002 46 105.432 46C105.702 46 105.942 45.93 106.172 45.78C106.402 45.63 106.542 45.43 106.612 45.2H107.322C107.152 45.66 106.902 46.02 106.552 46.26C106.212 46.5 105.782 46.63 105.282 46.63V46.62ZM106.802 44.07C106.832 43.68 106.772 43.37 106.632 43.16C106.472 42.92 106.202 42.8 105.832 42.8C105.462 42.8 105.142 42.93 104.882 43.21C104.682 43.43 104.532 43.71 104.452 44.07H106.802Z" fill="#006937"/>
        <path d="M109.482 46.62C108.902 46.62 108.452 46.41 108.142 46C107.832 45.59 107.722 45.05 107.812 44.39C107.902 43.72 108.152 43.18 108.562 42.77C108.972 42.36 109.472 42.15 110.062 42.15C110.652 42.15 111.092 42.35 111.402 42.77C111.712 43.18 111.822 43.72 111.732 44.39C111.642 45.06 111.392 45.59 110.982 46C110.572 46.41 110.062 46.62 109.482 46.62ZM109.562 46.01C109.932 46.01 110.252 45.87 110.512 45.57C110.772 45.28 110.932 44.88 110.992 44.39C111.052 43.89 110.992 43.5 110.812 43.21C110.632 42.92 110.352 42.77 109.982 42.77C109.612 42.77 109.292 42.92 109.032 43.21C108.772 43.5 108.612 43.9 108.552 44.39C108.492 44.88 108.552 45.28 108.732 45.57C108.912 45.86 109.192 46.01 109.562 46.01Z" fill="#006937"/>
        <path d="M109.482 46.62C108.902 46.62 108.452 46.41 108.142 46C107.832 45.59 107.722 45.05 107.812 44.39C107.902 43.72 108.152 43.18 108.562 42.77C108.972 42.36 109.472 42.15 110.062 42.15C110.652 42.15 111.092 42.35 111.402 42.77C111.712 43.18 111.822 43.72 111.732 44.39C111.642 45.06 111.392 45.59 110.982 46C110.572 46.41 110.062 46.62 109.482 46.62ZM109.562 46.01C109.932 46.01 110.252 45.87 110.512 45.57C110.772 45.28 110.932 44.88 110.992 44.39C111.052 43.89 110.992 43.5 110.812 43.21C110.632 42.92 110.352 42.77 109.982 42.77C109.612 42.77 109.292 42.92 109.032 43.21C108.772 43.5 108.612 43.9 108.552 44.39C108.492 44.88 108.552 45.28 108.732 45.57C108.912 45.86 109.192 46.01 109.562 46.01Z" fill="#006937"/>
        <path d="M112.471 42.29H113.151L113.071 42.89L113.111 42.84C113.471 42.39 113.901 42.16 114.401 42.16C114.951 42.16 115.361 42.35 115.641 42.73C115.921 43.11 116.011 43.62 115.931 44.27C115.831 45 115.591 45.58 115.221 46C114.841 46.41 114.361 46.63 113.791 46.63C113.311 46.63 112.961 46.44 112.731 46.08L112.711 46.05L112.431 48.18H111.721L112.491 42.29H112.471ZM113.821 46.01C114.191 46.01 114.491 45.87 114.721 45.59C114.951 45.31 115.101 44.9 115.171 44.36C115.241 43.83 115.201 43.44 115.051 43.19C114.891 42.94 114.631 42.81 114.241 42.81C113.851 42.81 113.551 42.96 113.331 43.25C113.111 43.54 112.961 43.99 112.881 44.61C112.821 45.06 112.881 45.41 113.041 45.65C113.201 45.9 113.461 46.02 113.821 46.02V46.01Z" fill="#006937"/>
        <path d="M112.471 42.29H113.151L113.071 42.89L113.111 42.84C113.471 42.39 113.901 42.16 114.401 42.16C114.951 42.16 115.361 42.35 115.641 42.73C115.921 43.11 116.011 43.62 115.931 44.27C115.831 45 115.591 45.58 115.221 46C114.841 46.41 114.361 46.63 113.791 46.63C113.311 46.63 112.961 46.44 112.731 46.08L112.711 46.05L112.431 48.18H111.721L112.491 42.29H112.471ZM113.821 46.01C114.191 46.01 114.491 45.87 114.721 45.59C114.951 45.31 115.101 44.9 115.171 44.36C115.241 43.83 115.201 43.44 115.051 43.19C114.891 42.94 114.631 42.81 114.241 42.81C113.851 42.81 113.551 42.96 113.331 43.25C113.111 43.54 112.961 43.99 112.881 44.61C112.821 45.06 112.881 45.41 113.041 45.65C113.201 45.9 113.461 46.02 113.821 46.02V46.01Z" fill="#006937"/>
        <path d="M116.201 46.5101L116.951 40.7101H117.311H117.661L116.911 46.5101H116.551H116.201Z" fill="#006937"/>
        <path d="M116.201 46.5101L116.951 40.7101H117.311H117.661L116.911 46.5101H116.551H116.201Z" fill="#006937"/>
        <path d="M119.391 46.62C118.791 46.62 118.351 46.43 118.061 46.05C117.771 45.67 117.661 45.15 117.751 44.48C117.841 43.77 118.101 43.2 118.511 42.78C118.931 42.36 119.441 42.15 120.051 42.15C120.601 42.15 121.021 42.35 121.301 42.77C121.581 43.18 121.681 43.72 121.601 44.39L121.561 44.64H118.481C118.461 45.05 118.511 45.38 118.641 45.6C118.801 45.87 119.101 46 119.531 46C119.811 46 120.051 45.93 120.271 45.78C120.491 45.63 120.641 45.43 120.721 45.2H121.421C121.251 45.66 121.001 46.02 120.651 46.26C120.301 46.5 119.881 46.63 119.381 46.63L119.391 46.62ZM120.911 44.07C120.941 43.68 120.881 43.37 120.731 43.16C120.571 42.92 120.301 42.8 119.941 42.8C119.581 42.8 119.251 42.93 118.991 43.21C118.791 43.43 118.641 43.71 118.561 44.07H120.921H120.911Z" fill="#006937"/>
        <path d="M119.391 46.62C118.791 46.62 118.351 46.43 118.061 46.05C117.771 45.67 117.661 45.15 117.751 44.48C117.841 43.77 118.101 43.2 118.511 42.78C118.931 42.36 119.441 42.15 120.051 42.15C120.601 42.15 121.021 42.35 121.301 42.77C121.581 43.18 121.681 43.72 121.601 44.39L121.561 44.64H118.481C118.461 45.05 118.511 45.38 118.641 45.6C118.801 45.87 119.101 46 119.531 46C119.811 46 120.051 45.93 120.271 45.78C120.491 45.63 120.641 45.43 120.721 45.2H121.421C121.251 45.66 121.001 46.02 120.651 46.26C120.301 46.5 119.881 46.63 119.381 46.63L119.391 46.62ZM120.911 44.07C120.941 43.68 120.881 43.37 120.731 43.16C120.571 42.92 120.301 42.8 119.941 42.8C119.581 42.8 119.251 42.93 118.991 43.21C118.791 43.43 118.641 43.71 118.561 44.07H120.921H120.911Z" fill="#006937"/>
        <path d="M125.402 46.5001C125.152 46.5401 124.972 46.5601 124.872 46.5601C124.562 46.5601 124.342 46.4901 124.242 46.3501C124.132 46.2201 124.102 45.9801 124.142 45.6501L124.502 42.8601H123.922L123.992 42.2901H124.572L124.722 41.1101H125.432L125.282 42.2901H125.952L125.882 42.8601H125.212L124.852 45.6401C124.842 45.7301 124.862 45.8101 124.932 45.8701C125.002 45.9301 125.102 45.9601 125.222 45.9601H125.472L125.402 46.5101V46.5001Z" fill="#006937"/>
        <path d="M125.402 46.5001C125.152 46.5401 124.972 46.5601 124.872 46.5601C124.562 46.5601 124.342 46.4901 124.242 46.3501C124.132 46.2201 124.102 45.9801 124.142 45.6501L124.502 42.8601H123.922L123.992 42.2901H124.572L124.722 41.1101H125.432L125.282 42.2901H125.952L125.882 42.8601H125.212L124.852 45.6401C124.842 45.7301 124.862 45.8101 124.932 45.8701C125.002 45.9301 125.102 45.9601 125.222 45.9601H125.472L125.402 46.5101V46.5001Z" fill="#006937"/>
        <path d="M127.521 46.62C126.941 46.62 126.491 46.41 126.181 46C125.881 45.59 125.761 45.05 125.851 44.39C125.941 43.72 126.181 43.18 126.601 42.77C127.021 42.36 127.512 42.15 128.102 42.15C128.692 42.15 129.132 42.35 129.442 42.77C129.742 43.18 129.862 43.72 129.772 44.39C129.682 45.06 129.432 45.59 129.022 46C128.602 46.41 128.101 46.62 127.511 46.62H127.521ZM127.601 46.01C127.971 46.01 128.291 45.87 128.541 45.57C128.801 45.28 128.961 44.88 129.031 44.39C129.091 43.89 129.032 43.5 128.852 43.21C128.672 42.92 128.392 42.77 128.022 42.77C127.652 42.77 127.331 42.92 127.081 43.21C126.821 43.5 126.661 43.9 126.601 44.39C126.541 44.88 126.601 45.28 126.781 45.57C126.961 45.86 127.241 46.01 127.611 46.01H127.601Z" fill="#006937"/>
        <path d="M127.521 46.62C126.941 46.62 126.491 46.41 126.181 46C125.881 45.59 125.761 45.05 125.851 44.39C125.941 43.72 126.181 43.18 126.601 42.77C127.021 42.36 127.512 42.15 128.102 42.15C128.692 42.15 129.132 42.35 129.442 42.77C129.742 43.18 129.862 43.72 129.772 44.39C129.682 45.06 129.432 45.59 129.022 46C128.602 46.41 128.101 46.62 127.511 46.62H127.521ZM127.601 46.01C127.971 46.01 128.291 45.87 128.541 45.57C128.801 45.28 128.961 44.88 129.031 44.39C129.091 43.89 129.032 43.5 128.852 43.21C128.672 42.92 128.392 42.77 128.022 42.77C127.652 42.77 127.331 42.92 127.081 43.21C126.821 43.5 126.661 43.9 126.601 44.39C126.541 44.88 126.601 45.28 126.781 45.57C126.961 45.86 127.241 46.01 127.611 46.01H127.601Z" fill="#006937"/>
        <path d="M132.152 46.5101L132.902 40.7101H136.912L136.872 41.0601L136.822 41.4001H133.592L133.372 43.1701H136.192L136.142 43.5201L136.102 43.8701H133.272L132.932 46.5101H132.542H132.152Z" fill="#006937"/>
        <path d="M132.152 46.5101L132.902 40.7101H136.912L136.872 41.0601L136.822 41.4001H133.592L133.372 43.1701H136.192L136.142 43.5201L136.102 43.8701H133.272L132.932 46.5101H132.542H132.152Z" fill="#006937"/>
        <path d="M136.631 46.5101L137.391 40.7101H137.741H138.091L137.341 46.5101H136.991H136.631Z" fill="#006937"/>
        <path d="M136.631 46.5101L137.391 40.7101H137.741H138.091L137.341 46.5101H136.991H136.631Z" fill="#006937"/>
        <path d="M142.092 42.29L139.922 46.65C139.592 47.3 139.312 47.72 139.092 47.92C138.872 48.12 138.572 48.22 138.182 48.22C138.062 48.22 137.942 48.22 137.842 48.18L137.932 47.52C138.032 47.56 138.172 47.58 138.332 47.59C138.492 47.59 138.632 47.52 138.762 47.39C138.892 47.26 139.042 47.01 139.222 46.64L139.242 46.57L138.232 42.28H139.042L139.712 45.76L141.312 42.28H142.082L142.092 42.29Z" fill="#006937"/>
        <path d="M142.092 42.29L139.922 46.65C139.592 47.3 139.312 47.72 139.092 47.92C138.872 48.12 138.572 48.22 138.182 48.22C138.062 48.22 137.942 48.22 137.842 48.18L137.932 47.52C138.032 47.56 138.172 47.58 138.332 47.59C138.492 47.59 138.632 47.52 138.762 47.39C138.892 47.26 139.042 47.01 139.222 46.64L139.242 46.57L138.232 42.28H139.042L139.712 45.76L141.312 42.28H142.082L142.092 42.29Z" fill="#006937"/>
        <path d="M144.952 46.5101L144.182 40.7101H145.032L145.472 45.2901C145.472 45.3701 145.492 45.4501 145.492 45.5201C145.492 45.5901 145.492 45.6401 145.492 45.6601C145.492 45.6601 145.512 45.5801 145.532 45.5001C145.552 45.4301 145.582 45.3601 145.602 45.2901L147.422 40.7101H148.302L148.922 45.2701C148.932 45.3401 148.942 45.4101 148.942 45.4901C148.942 45.5701 148.942 45.6201 148.942 45.6501C148.942 45.6501 148.962 45.5701 148.982 45.5001C149.002 45.4301 149.032 45.3501 149.052 45.2801L150.692 40.7201H151.532L149.262 46.5201H148.422L147.742 42.0301C147.732 41.9601 147.722 41.8801 147.722 41.8101C147.722 41.7401 147.722 41.6801 147.722 41.6601C147.722 41.6601 147.712 41.7501 147.682 41.8201C147.662 41.8901 147.632 41.9701 147.602 42.0401L145.792 46.5301H144.952V46.5101Z" fill="#006937"/>
        <path d="M144.952 46.5101L144.182 40.7101H145.032L145.472 45.2901C145.472 45.3701 145.492 45.4501 145.492 45.5201C145.492 45.5901 145.492 45.6401 145.492 45.6601C145.492 45.6601 145.512 45.5801 145.532 45.5001C145.552 45.4301 145.582 45.3601 145.602 45.2901L147.422 40.7101H148.302L148.922 45.2701C148.932 45.3401 148.942 45.4101 148.942 45.4901C148.942 45.5701 148.942 45.6201 148.942 45.6501C148.942 45.6501 148.962 45.5701 148.982 45.5001C149.002 45.4301 149.032 45.3501 149.052 45.2801L150.692 40.7201H151.532L149.262 46.5201H148.422L147.742 42.0301C147.732 41.9601 147.722 41.8801 147.722 41.8101C147.722 41.7401 147.722 41.6801 147.722 41.6601C147.722 41.6601 147.712 41.7501 147.682 41.8201C147.662 41.8901 147.632 41.9701 147.602 42.0401L145.792 46.5301H144.952V46.5101Z" fill="#006937"/>
        <path d="M151.191 46.5101L151.741 42.2901H152.451L151.901 46.5101H151.191ZM151.941 40.7101H152.671L152.561 41.5201H151.831L151.941 40.7101Z" fill="#006937"/>
        <path d="M151.191 46.5101L151.741 42.2901H152.451L151.901 46.5101H151.191ZM151.941 40.7101H152.671L152.561 41.5201H151.831L151.941 40.7101Z" fill="#006937"/>
        <path d="M154.221 46.5001C153.971 46.5401 153.791 46.5601 153.681 46.5601C153.371 46.5601 153.161 46.4901 153.041 46.3501C152.931 46.2201 152.901 45.9801 152.941 45.6501L153.301 42.8601H152.721L152.791 42.2901H153.371L153.531 41.1101H154.241L154.081 42.2901H154.751L154.681 42.8601H154.011L153.651 45.6401C153.631 45.7301 153.661 45.8101 153.731 45.8701C153.801 45.9201 153.901 45.9601 154.031 45.9601H154.281L154.211 46.5101L154.221 46.5001Z" fill="#006937"/>
        <path d="M154.221 46.5001C153.971 46.5401 153.791 46.5601 153.681 46.5601C153.371 46.5601 153.161 46.4901 153.041 46.3501C152.931 46.2201 152.901 45.9801 152.941 45.6501L153.301 42.8601H152.721L152.791 42.2901H153.371L153.531 41.1101H154.241L154.081 42.2901H154.751L154.681 42.8601H154.011L153.651 45.6401C153.631 45.7301 153.661 45.8101 153.731 45.8701C153.801 45.9201 153.901 45.9601 154.031 45.9601H154.281L154.211 46.5101L154.221 46.5001Z" fill="#006937"/>
        <path d="M154.631 46.5101L155.381 40.7101H156.091L155.811 42.8501L155.951 42.6901C156.301 42.3301 156.711 42.1501 157.171 42.1501C157.631 42.1501 157.981 42.2801 158.191 42.5301C158.411 42.7801 158.491 43.1401 158.431 43.6101L158.051 46.5001H157.341L157.691 43.7801C157.731 43.4301 157.691 43.1801 157.591 43.0201C157.481 42.8701 157.271 42.7801 156.961 42.7801C156.611 42.7801 156.311 42.9101 156.061 43.1701C155.821 43.4301 155.671 43.7801 155.611 44.2201L155.321 46.4901H154.611L154.631 46.5101Z" fill="#006937"/>
        <path d="M154.631 46.5101L155.381 40.7101H156.091L155.811 42.8501L155.951 42.6901C156.301 42.3301 156.711 42.1501 157.171 42.1501C157.631 42.1501 157.981 42.2801 158.191 42.5301C158.411 42.7801 158.491 43.1401 158.431 43.6101L158.051 46.5001H157.341L157.691 43.7801C157.731 43.4301 157.691 43.1801 157.591 43.0201C157.481 42.8701 157.271 42.7801 156.961 42.7801C156.611 42.7801 156.311 42.9101 156.061 43.1701C155.821 43.4301 155.671 43.7801 155.611 44.2201L155.321 46.4901H154.611L154.631 46.5101Z" fill="#006937"/>
        <path d="M126.402 52.63C135.332 48.71 143.072 49.08 143.042 50.16C143.012 51.47 138.162 48.51 126.402 52.63Z" fill="#006937"/>
        <path d="M126.402 52.63C135.332 48.71 143.072 49.08 143.042 50.16C143.012 51.47 138.162 48.51 126.402 52.63Z" fill="#006937"/>
    </g>
    <defs>
        <clipPath id="clip0_1754_7017">
            <rect width="183.23" height="52.63" fill="white"/>
        </clipPath>
    </defs>
</svg>
