<?xml version="1.0" encoding="utf-8"?>
<!-- Generator: Adobe Illustrator 23.1.1, SVG Export Plug-In . SVG Version: 6.00 Build 0)  -->
<svg version="1.1" id="Lager_1" xmlns="http://www.w3.org/2000/svg" xmlns:xlink="http://www.w3.org/1999/xlink" x="0px" y="0px"
	 viewBox="0 0 83.5 22.4" style="enable-background:new 0 0 83.5 22.4;" xml:space="preserve">
<style type="text/css">
	.st0{fill:#95C11F;}
	.st1{fill:#93C01F;}
	.st2{fill:#FFFFFF;}
	.st3{fill:#50AA00;}
</style>
<g>
	<g>
		<path class="st0" d="M2441.6,2189.8h9.6v55.1h0.3l44-55.1h12.3l-38,46.8l38,49.2h-12.1l-32-41.6l-12.5,15.3v26.3h-9.6V2189.8z"/>
		<path class="st0" d="M2515.4,2214.8h9.1v10.2h0.3c4.3-10,12.3-11.5,20-12.1v9.6c-6.4,0.5-11.8,2.9-15.3,7
			c-3.1,3.9-4.9,8.9-4.9,14.7v41.5h-9.1V2214.8z"/>
		<path class="st0" d="M2554.7,2189.8h9.1v16.3h-9.1V2189.8z M2554.7,2214.8h9.1v70.9h-9.1V2214.8z"/>
		<path class="st0" d="M2584.1,2264.8c0.3,13.5,9.5,14.5,12.7,14.5c8.6,0,13.2-5.1,13.2-12.7c0-9.7-8.8-11.9-14.1-14.1
			c-7.3-2.5-18.8-6.4-18.8-19.7c0-10,7.1-19.7,20.2-19.7c10.5,0,19.3,8,19.3,19.1v0.3h-9.1c-0.6-8.7-6.6-11.2-10.6-11.2
			c-7.3,0-10.8,5.8-10.8,10.6c0,7.5,7.5,10.1,12.7,11.8c8.3,2.7,20.2,7.3,20.2,21.9v0.3c0,12.1-7.4,21.7-22.3,21.7
			c-9.7,0-21.8-6.5-21.8-21.9v-0.8H2584.1z"/>
		<path class="st0" d="M2637.6,2223h-14.9v-8.2h14.9v-25h9.1v25h17v8.2h-17v62.8h-9.1V2223z"/>
		<path class="st0" d="M2673.2,2189.8h9.1v16.3h-9.1V2189.8z M2673.2,2214.8h9.1v70.9h-9.1V2214.8z"/>
		<path class="st0" d="M2768.6,2285.8h-9.1v-12.5h-0.3c-7.8,11.7-20.2,14.1-27.6,14.1c-22.3,0-38.1-17-38.1-37.4
			c0-18.9,14.9-37.1,38.1-37.1c7.7,0,20.1,2.5,27.6,14.3h0.3v-12.5h9.1V2285.8z M2731.6,2279.3c15.3,0,28.4-12.3,28.4-28.9
			c0-15.6-12.1-29.2-28.4-29.2c-15.6,0-29,11.3-29,29.3C2702.6,2266.3,2714.2,2279.3,2731.6,2279.3z"/>
		<path class="st0" d="M2781.8,2214.8h9.1v9.1h0.3c2.7-4.3,9.7-10.9,21.8-10.9c8.7,0,16,2.2,22.4,8.7c5.3,5.2,8.8,13.4,8.8,25v39
			h-9.1v-39c0-9.2-2.9-15.7-6.7-19.5c-4.9-4.8-11.4-6.1-15.4-6.1c-4,0-10.5,1.3-15.4,6.1c-3.8,3.6-6.6,10-6.6,18.8v39.7h-9.1V2214.8
			z"/>
		<path class="st0" d="M2864.3,2264.8c0.3,13.5,9.5,14.5,12.7,14.5c8.6,0,13.2-5.1,13.2-12.7c0-9.7-8.8-11.9-14.1-14.1
			c-7.3-2.5-18.8-6.4-18.8-19.7c0-10,7.1-19.7,20.2-19.7c10.5,0,19.3,8,19.3,19.1v0.3h-9.1c-0.6-8.7-6.6-11.2-10.6-11.2
			c-7.3,0-10.8,5.8-10.8,10.6c0,7.5,7.5,10.1,12.7,11.8c8.3,2.7,20.2,7.3,20.2,21.9v0.3c0,12.1-7.4,21.7-22.3,21.7
			c-9.7,0-21.8-6.5-21.8-21.9v-0.8H2864.3z"/>
		<path class="st0" d="M2917.7,2223h-14.9v-8.2h14.9v-25h9.1v25h17v8.2h-17v62.8h-9.1V2223z"/>
		<path class="st0" d="M3019.7,2285.8h-9.1v-12.5h-0.3c-7.8,11.7-20.2,14.1-27.6,14.1c-22.3,0-38.1-17-38.1-37.4
			c0-18.9,14.9-37.1,38.1-37.1c7.7,0,20.1,2.5,27.6,14.3h0.3v-12.5h9.1V2285.8z M2982.8,2279.3c15.3,0,28.4-12.3,28.4-28.9
			c0-15.6-12.1-29.2-28.4-29.2c-15.6,0-29.1,11.3-29.1,29.3C2953.7,2266.3,2965.4,2279.3,2982.8,2279.3z"/>
		<path class="st0" d="M3104.2,2285.8h-9.1v-12.5h-0.3c-7.5,11.3-20.1,14.1-27.6,14.1c-22.3,0-38.1-17-38.1-37.4
			c0-18.9,14.9-37.1,38.1-37.1c7.8,0,20,2.9,27.6,14h0.3v-37.2h9.1V2285.8z M3067.3,2279.3c15.3,0,28.4-12.3,28.4-28.9
			c0-15.6-12.1-29.2-28.4-29.2c-15.6,0-29.1,11.3-29.1,29.3C3038.2,2266.3,3049.9,2279.3,3067.3,2279.3z"/>
	</g>
	<g>
		<path class="st0" d="M2451.3,2327.6v59.8c0,7,1,13.4,3.2,17.4c5.8,10.8,15.3,11.8,19.8,11.8c4.5,0,14-1,19.8-11.8
			c2.2-4,3.2-10.4,3.2-17.4v-59.8h9.6v59.8c0,8-1.3,14.9-3.6,20c-6.6,14.4-20.1,17.9-29.1,17.9c-8.9,0-22.4-3.5-29.1-17.9
			c-2.3-5.1-3.6-11.9-3.6-20v-59.8H2451.3z"/>
		<path class="st0" d="M2520.1,2352.6h9.1v9.1h0.3c2.7-4.3,9.7-10.9,21.8-10.9c8.7,0,16,2.2,22.4,8.7c5.3,5.2,8.8,13.4,8.8,25v39
			h-9.1v-39c0-9.2-2.9-15.7-6.7-19.5c-4.9-4.8-11.4-6.1-15.4-6.1c-4,0-10.5,1.3-15.4,6.1c-3.8,3.6-6.6,10-6.6,18.8v39.7h-9.1V2352.6
			z"/>
		<path class="st0" d="M2595.6,2327.6h9.1v16.3h-9.1V2327.6z M2595.6,2352.6h9.1v70.9h-9.1V2352.6z"/>
		<path class="st0" d="M2611.7,2352.6h9.7l25,59.7l25.4-59.7h9.7l-30,70.9h-10L2611.7,2352.6z"/>
		<path class="st0" d="M2690.2,2391.4c0.6,13.9,13.6,25.7,27.5,25.7c13-0.3,22.2-7.9,25.4-16.7h9.6c-4.9,14.1-18.5,24.9-34.9,24.9
			c-19.8,0-37-16.1-37-37.1c0-20.1,16.2-37,36.8-37.4c15.6,0.1,26.6,9.3,31.6,18.2c4.2,6.7,5.6,13.6,5.6,19.8c0,0.9-0.1,1.7-0.1,2.6
			H2690.2z M2745.6,2383.2c-2.9-16.7-16.5-24.3-27.8-24.3c-11.2,0-25,7.5-27.6,24.3H2745.6z"/>
		<path class="st0" d="M2764.5,2352.6h9.1v10.2h0.3c4.3-10,12.3-11.5,20-12.1v9.6c-6.4,0.5-11.8,2.9-15.3,7
			c-3.1,3.9-4.9,8.9-4.9,14.7v41.5h-9.1V2352.6z"/>
		<path class="st0" d="M2805.9,2402.6c0.3,13.5,9.5,14.5,12.7,14.5c8.6,0,13.2-5.1,13.2-12.7c0-9.7-8.8-11.9-14.1-14.1
			c-7.3-2.5-18.8-6.4-18.8-19.7c0-10,7.1-19.7,20.2-19.7c10.5,0,19.3,8,19.3,19.1v0.3h-9.1c-0.6-8.7-6.6-11.2-10.6-11.2
			c-7.3,0-10.8,5.8-10.8,10.6c0,7.5,7.5,10.1,12.7,11.8c8.3,2.7,20.2,7.3,20.2,21.9v0.3c0,12.1-7.4,21.7-22.3,21.7
			c-9.7,0-21.8-6.5-21.8-21.9v-0.8H2805.9z"/>
		<path class="st0" d="M2851.3,2327.6h9.1v16.3h-9.1V2327.6z M2851.3,2352.6h9.1v70.9h-9.1V2352.6z"/>
		<path class="st0" d="M2883.8,2360.8h-14.9v-8.2h14.9v-25h9.1v25h17v8.2h-17v62.8h-9.1V2360.8z"/>
		<path class="st0" d="M2941.7,2421.2l-27.6-68.6h9.6l22.6,56.5l24.1-56.5h9.6l-41.1,95.8h-9.5L2941.7,2421.2z"/>
	</g>
</g>
<g>
	<rect x="2140.2" y="2189.8" class="st1" width="266.2" height="233.8"/>
	<polygon class="st2" points="2216.3,2301.2 2267.3,2301.2 2267.3,2277.3 2259.8,2277.3 2259.8,2225.4 2267.3,2225.4 2267.3,2201.5 
		2216.3,2201.5 2216.3,2225.4 2222.6,2225.4 2222.6,2240.6 2199.5,2240.6 2199.5,2225.4 2205.8,2225.4 2205.8,2201.5 2152,2201.5 
		2152,2225.4 2159.6,2225.4 2159.6,2277.3 2152.1,2277.3 2152.1,2301.2 2205.8,2301.2 2205.8,2277.3 2199.5,2277.3 2199.5,2261 
		2222.6,2261 2222.6,2277.3 2216.3,2277.3 	"/>
	<polygon class="st2" points="2205.9,2312.9 2152.1,2312.9 2152.1,2336.6 2159.9,2336.6 2159.9,2388.2 2152.3,2388.2 2152.3,2411.8 
		2205.9,2411.8 2205.9,2388.2 2198.1,2388.2 2198.1,2336.6 2205.9,2336.6 	"/>
	<polygon class="st2" points="2216.1,2411.8 2267.3,2411.8 2267.3,2388.2 2262.4,2388.2 2237.1,2355.4 2257.3,2336.6 2267.3,2336.6 
		2267.3,2312.9 2216.3,2312.9 2216.3,2336.6 2224.3,2336.6 2199.2,2360 2220.9,2388.2 2216.1,2388.2 	"/>
	<path class="st2" d="M2348.6,2344.1c0,2.6-0.7,4.6-2.2,6c-1.5,1.6-3.3,2.5-5.4,2.8c-2,0.3-5.8,0.5-11.4,0.5h-4.3v-18.8h3.5
		c5.8,0,9.8,0.2,11.9,0.5c2.3,0.3,4.1,1.3,5.6,2.8C2347.8,2339.5,2348.6,2341.5,2348.6,2344.1 M2387.5,2388.2l-13.7-22.6
		c4.3-1.9,7.8-5,10.5-9.1c2.7-4.2,4-8.8,4-13.9c0-6.8-2.2-12.7-6.5-17.8c-4.3-4.9-9.9-8.1-16.8-9.6c-2.5-0.5-5.2-0.9-8.1-1.2
		c-2.9-0.3-6.5-0.5-10.6-0.7c-4.1-0.2-8.6-0.2-13.4-0.2H2279v23.7h8v51.6h-8v23.7h53.7v-23.7h-7.5v-16.7h12.2l21.6,40.4h35.6v-23.7
		H2387.5z"/>
</g>
<g>
	<g>
		<path class="st0" d="M2441.6,2189.8h9.6v55.1h0.3l44-55.1h12.3l-38,46.8l38,49.2h-12.1l-32-41.6l-12.5,15.3v26.3h-9.6V2189.8z"/>
		<path class="st0" d="M2515.4,2214.8h9.1v10.2h0.3c4.3-10,12.3-11.5,20-12.1v9.6c-6.4,0.5-11.8,2.9-15.3,7
			c-3.1,3.9-4.9,8.9-4.9,14.7v41.5h-9.1V2214.8z"/>
		<path class="st0" d="M2554.7,2189.8h9.1v16.3h-9.1V2189.8z M2554.7,2214.8h9.1v70.9h-9.1V2214.8z"/>
		<path class="st0" d="M2584.1,2264.8c0.3,13.5,9.5,14.5,12.7,14.5c8.6,0,13.2-5.1,13.2-12.7c0-9.7-8.8-11.9-14.1-14.1
			c-7.3-2.5-18.8-6.4-18.8-19.7c0-10,7.1-19.7,20.2-19.7c10.5,0,19.3,8,19.3,19.1v0.3h-9.1c-0.6-8.7-6.6-11.2-10.6-11.2
			c-7.3,0-10.8,5.8-10.8,10.6c0,7.5,7.5,10.1,12.7,11.8c8.3,2.7,20.2,7.3,20.2,21.9v0.3c0,12.1-7.4,21.7-22.3,21.7
			c-9.7,0-21.8-6.5-21.8-21.9v-0.8H2584.1z"/>
		<path class="st0" d="M2637.6,2223h-14.9v-8.2h14.9v-25h9.1v25h17v8.2h-17v62.8h-9.1V2223z"/>
		<path class="st0" d="M2673.2,2189.8h9.1v16.3h-9.1V2189.8z M2673.2,2214.8h9.1v70.9h-9.1V2214.8z"/>
		<path class="st0" d="M2768.6,2285.8h-9.1v-12.5h-0.3c-7.8,11.7-20.2,14.1-27.6,14.1c-22.3,0-38.1-17-38.1-37.4
			c0-18.9,14.9-37.1,38.1-37.1c7.7,0,20.1,2.5,27.6,14.3h0.3v-12.5h9.1V2285.8z M2731.6,2279.3c15.3,0,28.4-12.3,28.4-28.9
			c0-15.6-12.1-29.2-28.4-29.2c-15.6,0-29,11.3-29,29.3C2702.6,2266.3,2714.2,2279.3,2731.6,2279.3z"/>
		<path class="st0" d="M2781.8,2214.8h9.1v9.1h0.3c2.7-4.3,9.7-10.9,21.8-10.9c8.7,0,16,2.2,22.4,8.7c5.3,5.2,8.8,13.4,8.8,25v39
			h-9.1v-39c0-9.2-2.9-15.7-6.7-19.5c-4.9-4.8-11.4-6.1-15.4-6.1c-4,0-10.5,1.3-15.4,6.1c-3.8,3.6-6.6,10-6.6,18.8v39.7h-9.1V2214.8
			z"/>
		<path class="st0" d="M2864.3,2264.8c0.3,13.5,9.5,14.5,12.7,14.5c8.6,0,13.2-5.1,13.2-12.7c0-9.7-8.8-11.9-14.1-14.1
			c-7.3-2.5-18.8-6.4-18.8-19.7c0-10,7.1-19.7,20.2-19.7c10.5,0,19.3,8,19.3,19.1v0.3h-9.1c-0.6-8.7-6.6-11.2-10.6-11.2
			c-7.3,0-10.8,5.8-10.8,10.6c0,7.5,7.5,10.1,12.7,11.8c8.3,2.7,20.2,7.3,20.2,21.9v0.3c0,12.1-7.4,21.7-22.3,21.7
			c-9.7,0-21.8-6.5-21.8-21.9v-0.8H2864.3z"/>
		<path class="st0" d="M2917.7,2223h-14.9v-8.2h14.9v-25h9.1v25h17v8.2h-17v62.8h-9.1V2223z"/>
		<path class="st0" d="M3019.7,2285.8h-9.1v-12.5h-0.3c-7.8,11.7-20.2,14.1-27.6,14.1c-22.3,0-38.1-17-38.1-37.4
			c0-18.9,14.9-37.1,38.1-37.1c7.7,0,20.1,2.5,27.6,14.3h0.3v-12.5h9.1V2285.8z M2982.8,2279.3c15.3,0,28.4-12.3,28.4-28.9
			c0-15.6-12.1-29.2-28.4-29.2c-15.6,0-29.1,11.3-29.1,29.3C2953.7,2266.3,2965.4,2279.3,2982.8,2279.3z"/>
		<path class="st0" d="M3104.2,2285.8h-9.1v-12.5h-0.3c-7.5,11.3-20.1,14.1-27.6,14.1c-22.3,0-38.1-17-38.1-37.4
			c0-18.9,14.9-37.1,38.1-37.1c7.8,0,20,2.9,27.6,14h0.3v-37.2h9.1V2285.8z M3067.3,2279.3c15.3,0,28.4-12.3,28.4-28.9
			c0-15.6-12.1-29.2-28.4-29.2c-15.6,0-29.1,11.3-29.1,29.3C3038.2,2266.3,3049.9,2279.3,3067.3,2279.3z"/>
	</g>
	<g>
		<path class="st0" d="M2451.3,2327.6v59.8c0,7,1,13.4,3.2,17.4c5.8,10.8,15.3,11.8,19.8,11.8c4.5,0,14-1,19.8-11.8
			c2.2-4,3.2-10.4,3.2-17.4v-59.8h9.6v59.8c0,8-1.3,14.9-3.6,20c-6.6,14.4-20.1,17.9-29.1,17.9c-8.9,0-22.4-3.5-29.1-17.9
			c-2.3-5.1-3.6-11.9-3.6-20v-59.8H2451.3z"/>
		<path class="st0" d="M2520.1,2352.6h9.1v9.1h0.3c2.7-4.3,9.7-10.9,21.8-10.9c8.7,0,16,2.2,22.4,8.7c5.3,5.2,8.8,13.4,8.8,25v39
			h-9.1v-39c0-9.2-2.9-15.7-6.7-19.5c-4.9-4.8-11.4-6.1-15.4-6.1c-4,0-10.5,1.3-15.4,6.1c-3.8,3.6-6.6,10-6.6,18.8v39.7h-9.1V2352.6
			z"/>
		<path class="st0" d="M2595.6,2327.6h9.1v16.3h-9.1V2327.6z M2595.6,2352.6h9.1v70.9h-9.1V2352.6z"/>
		<path class="st0" d="M2611.7,2352.6h9.7l25,59.7l25.4-59.7h9.7l-30,70.9h-10L2611.7,2352.6z"/>
		<path class="st0" d="M2690.2,2391.4c0.6,13.9,13.6,25.7,27.5,25.7c13-0.3,22.2-7.9,25.4-16.7h9.6c-4.9,14.1-18.5,24.9-34.9,24.9
			c-19.8,0-37-16.1-37-37.1c0-20.1,16.2-37,36.8-37.4c15.6,0.1,26.6,9.3,31.6,18.2c4.2,6.7,5.6,13.6,5.6,19.8c0,0.9-0.1,1.7-0.1,2.6
			H2690.2z M2745.6,2383.2c-2.9-16.7-16.5-24.3-27.8-24.3c-11.2,0-25,7.5-27.6,24.3H2745.6z"/>
		<path class="st0" d="M2764.5,2352.6h9.1v10.2h0.3c4.3-10,12.3-11.5,20-12.1v9.6c-6.4,0.5-11.8,2.9-15.3,7
			c-3.1,3.9-4.9,8.9-4.9,14.7v41.5h-9.1V2352.6z"/>
		<path class="st0" d="M2805.9,2402.6c0.3,13.5,9.5,14.5,12.7,14.5c8.6,0,13.2-5.1,13.2-12.7c0-9.7-8.8-11.9-14.1-14.1
			c-7.3-2.5-18.8-6.4-18.8-19.7c0-10,7.1-19.7,20.2-19.7c10.5,0,19.3,8,19.3,19.1v0.3h-9.1c-0.6-8.7-6.6-11.2-10.6-11.2
			c-7.3,0-10.8,5.8-10.8,10.6c0,7.5,7.5,10.1,12.7,11.8c8.3,2.7,20.2,7.3,20.2,21.9v0.3c0,12.1-7.4,21.7-22.3,21.7
			c-9.7,0-21.8-6.5-21.8-21.9v-0.8H2805.9z"/>
		<path class="st0" d="M2851.3,2327.6h9.1v16.3h-9.1V2327.6z M2851.3,2352.6h9.1v70.9h-9.1V2352.6z"/>
		<path class="st0" d="M2883.8,2360.8h-14.9v-8.2h14.9v-25h9.1v25h17v8.2h-17v62.8h-9.1V2360.8z"/>
		<path class="st0" d="M2941.7,2421.2l-27.6-68.6h9.6l22.6,56.5l24.1-56.5h9.6l-41.1,95.8h-9.5L2941.7,2421.2z"/>
	</g>
</g>
<g>
	<rect x="2140.2" y="2189.8" class="st1" width="266.2" height="233.8"/>
	<polygon class="st2" points="2216.3,2301.2 2267.3,2301.2 2267.3,2277.3 2259.8,2277.3 2259.8,2225.4 2267.3,2225.4 2267.3,2201.5 
		2216.3,2201.5 2216.3,2225.4 2222.6,2225.4 2222.6,2240.6 2199.5,2240.6 2199.5,2225.4 2205.8,2225.4 2205.8,2201.5 2152,2201.5 
		2152,2225.4 2159.6,2225.4 2159.6,2277.3 2152.1,2277.3 2152.1,2301.2 2205.8,2301.2 2205.8,2277.3 2199.5,2277.3 2199.5,2261 
		2222.6,2261 2222.6,2277.3 2216.3,2277.3 	"/>
	<polygon class="st2" points="2205.9,2312.9 2152.1,2312.9 2152.1,2336.6 2159.9,2336.6 2159.9,2388.2 2152.3,2388.2 2152.3,2411.8 
		2205.9,2411.8 2205.9,2388.2 2198.1,2388.2 2198.1,2336.6 2205.9,2336.6 	"/>
	<polygon class="st2" points="2216.1,2411.8 2267.3,2411.8 2267.3,2388.2 2262.4,2388.2 2237.1,2355.4 2257.3,2336.6 2267.3,2336.6 
		2267.3,2312.9 2216.3,2312.9 2216.3,2336.6 2224.3,2336.6 2199.2,2360 2220.9,2388.2 2216.1,2388.2 	"/>
	<path class="st2" d="M2348.6,2344.1c0,2.6-0.7,4.6-2.2,6c-1.5,1.6-3.3,2.5-5.4,2.8c-2,0.3-5.8,0.5-11.4,0.5h-4.3v-18.8h3.5
		c5.8,0,9.8,0.2,11.9,0.5c2.3,0.3,4.1,1.3,5.6,2.8C2347.8,2339.5,2348.6,2341.5,2348.6,2344.1 M2387.5,2388.2l-13.7-22.6
		c4.3-1.9,7.8-5,10.5-9.1c2.7-4.2,4-8.8,4-13.9c0-6.8-2.2-12.7-6.5-17.8c-4.3-4.9-9.9-8.1-16.8-9.6c-2.5-0.5-5.2-0.9-8.1-1.2
		c-2.9-0.3-6.5-0.5-10.6-0.7c-4.1-0.2-8.6-0.2-13.4-0.2H2279v23.7h8v51.6h-8v23.7h53.7v-23.7h-7.5v-16.7h12.2l21.6,40.4h35.6v-23.7
		H2387.5z"/>
</g>
<g>
	<g>
		<path class="st0" d="M2441.6,2190.8h9.6v55.1h0.3l44-55.1h12.3l-38,46.8l38,49.2h-12.1l-32-41.6l-12.5,15.3v26.3h-9.6V2190.8z"/>
		<path class="st0" d="M2515.4,2215.8h9.1v10.2h0.3c4.3-10,12.3-11.5,20-12.1v9.6c-6.4,0.5-11.8,2.9-15.3,7
			c-3.1,3.9-4.9,8.9-4.9,14.7v41.5h-9.1V2215.8z"/>
		<path class="st0" d="M2554.7,2190.8h9.1v16.3h-9.1V2190.8z M2554.7,2215.8h9.1v70.9h-9.1V2215.8z"/>
		<path class="st0" d="M2584.1,2265.8c0.3,13.5,9.5,14.5,12.7,14.5c8.6,0,13.2-5.1,13.2-12.7c0-9.7-8.8-11.9-14.1-14.1
			c-7.3-2.5-18.8-6.4-18.8-19.7c0-10,7.1-19.7,20.2-19.7c10.5,0,19.3,8,19.3,19.1v0.3h-9.1c-0.6-8.7-6.6-11.2-10.6-11.2
			c-7.3,0-10.8,5.8-10.8,10.6c0,7.5,7.5,10.1,12.7,11.8c8.3,2.7,20.2,7.3,20.2,21.9v0.3c0,12.1-7.4,21.7-22.3,21.7
			c-9.7,0-21.8-6.5-21.8-21.9v-0.8H2584.1z"/>
		<path class="st0" d="M2637.6,2224h-14.9v-8.2h14.9v-25h9.1v25h17v8.2h-17v62.8h-9.1V2224z"/>
		<path class="st0" d="M2673.2,2190.8h9.1v16.3h-9.1V2190.8z M2673.2,2215.8h9.1v70.9h-9.1V2215.8z"/>
		<path class="st0" d="M2768.6,2286.8h-9.1v-12.5h-0.3c-7.8,11.7-20.2,14.1-27.6,14.1c-22.3,0-38.1-17-38.1-37.4
			c0-18.9,14.9-37.1,38.1-37.1c7.7,0,20.1,2.5,27.6,14.3h0.3v-12.5h9.1V2286.8z M2731.6,2280.3c15.3,0,28.4-12.3,28.4-28.9
			c0-15.6-12.1-29.2-28.4-29.2c-15.6,0-29,11.3-29,29.3C2702.6,2267.3,2714.2,2280.3,2731.6,2280.3z"/>
		<path class="st0" d="M2781.8,2215.8h9.1v9.1h0.3c2.7-4.3,9.7-10.9,21.8-10.9c8.7,0,16,2.2,22.4,8.7c5.3,5.2,8.8,13.4,8.8,25v39
			h-9.1v-39c0-9.2-2.9-15.7-6.7-19.5c-4.9-4.8-11.4-6.1-15.4-6.1c-4,0-10.5,1.3-15.4,6.1c-3.8,3.6-6.6,10-6.6,18.8v39.7h-9.1V2215.8
			z"/>
		<path class="st0" d="M2864.3,2265.8c0.3,13.5,9.5,14.5,12.7,14.5c8.6,0,13.2-5.1,13.2-12.7c0-9.7-8.8-11.9-14.1-14.1
			c-7.3-2.5-18.8-6.4-18.8-19.7c0-10,7.1-19.7,20.2-19.7c10.5,0,19.3,8,19.3,19.1v0.3h-9.1c-0.6-8.7-6.6-11.2-10.6-11.2
			c-7.3,0-10.8,5.8-10.8,10.6c0,7.5,7.5,10.1,12.7,11.8c8.3,2.7,20.2,7.3,20.2,21.9v0.3c0,12.1-7.4,21.7-22.3,21.7
			c-9.7,0-21.8-6.5-21.8-21.9v-0.8H2864.3z"/>
		<path class="st0" d="M2917.7,2224h-14.9v-8.2h14.9v-25h9.1v25h17v8.2h-17v62.8h-9.1V2224z"/>
		<path class="st0" d="M3019.7,2286.8h-9.1v-12.5h-0.3c-7.8,11.7-20.2,14.1-27.6,14.1c-22.3,0-38.1-17-38.1-37.4
			c0-18.9,14.9-37.1,38.1-37.1c7.7,0,20.1,2.5,27.6,14.3h0.3v-12.5h9.1V2286.8z M2982.8,2280.3c15.3,0,28.4-12.3,28.4-28.9
			c0-15.6-12.1-29.2-28.4-29.2c-15.6,0-29.1,11.3-29.1,29.3C2953.7,2267.3,2965.4,2280.3,2982.8,2280.3z"/>
		<path class="st0" d="M3104.2,2286.8h-9.1v-12.5h-0.3c-7.5,11.3-20.1,14.1-27.6,14.1c-22.3,0-38.1-17-38.1-37.4
			c0-18.9,14.9-37.1,38.1-37.1c7.8,0,20,2.9,27.6,14h0.3v-37.2h9.1V2286.8z M3067.3,2280.3c15.3,0,28.4-12.3,28.4-28.9
			c0-15.6-12.1-29.2-28.4-29.2c-15.6,0-29.1,11.3-29.1,29.3C3038.2,2267.3,3049.9,2280.3,3067.3,2280.3z"/>
	</g>
	<g>
		<path class="st0" d="M2451.3,2328.6v59.8c0,7,1,13.4,3.2,17.4c5.8,10.8,15.3,11.8,19.8,11.8c4.5,0,14-1,19.8-11.8
			c2.2-4,3.2-10.4,3.2-17.4v-59.8h9.6v59.8c0,8-1.3,14.9-3.6,20c-6.6,14.4-20.1,17.9-29.1,17.9c-8.9,0-22.4-3.5-29.1-17.9
			c-2.3-5.1-3.6-11.9-3.6-20v-59.8H2451.3z"/>
		<path class="st0" d="M2520.1,2353.6h9.1v9.1h0.3c2.7-4.3,9.7-10.9,21.8-10.9c8.7,0,16,2.2,22.4,8.7c5.3,5.2,8.8,13.4,8.8,25v39
			h-9.1v-39c0-9.2-2.9-15.7-6.7-19.5c-4.9-4.8-11.4-6.1-15.4-6.1c-4,0-10.5,1.3-15.4,6.1c-3.8,3.6-6.6,10-6.6,18.8v39.7h-9.1V2353.6
			z"/>
		<path class="st0" d="M2595.6,2328.6h9.1v16.3h-9.1V2328.6z M2595.6,2353.6h9.1v70.9h-9.1V2353.6z"/>
		<path class="st0" d="M2611.7,2353.6h9.7l25,59.7l25.4-59.7h9.7l-30,70.9h-10L2611.7,2353.6z"/>
		<path class="st0" d="M2690.2,2392.4c0.6,13.9,13.6,25.7,27.5,25.7c13-0.3,22.2-7.9,25.4-16.7h9.6c-4.9,14.1-18.5,24.9-34.9,24.9
			c-19.8,0-37-16.1-37-37.1c0-20.1,16.2-37,36.8-37.4c15.6,0.1,26.6,9.3,31.6,18.2c4.2,6.7,5.6,13.6,5.6,19.8c0,0.9-0.1,1.7-0.1,2.6
			H2690.2z M2745.6,2384.2c-2.9-16.7-16.5-24.3-27.8-24.3c-11.2,0-25,7.5-27.6,24.3H2745.6z"/>
		<path class="st0" d="M2764.5,2353.6h9.1v10.2h0.3c4.3-10,12.3-11.5,20-12.1v9.6c-6.4,0.5-11.8,2.9-15.3,7
			c-3.1,3.9-4.9,8.9-4.9,14.7v41.5h-9.1V2353.6z"/>
		<path class="st0" d="M2805.9,2403.6c0.3,13.5,9.5,14.5,12.7,14.5c8.6,0,13.2-5.1,13.2-12.7c0-9.7-8.8-11.9-14.1-14.1
			c-7.3-2.5-18.8-6.4-18.8-19.7c0-10,7.1-19.7,20.2-19.7c10.5,0,19.3,8,19.3,19.1v0.3h-9.1c-0.6-8.7-6.6-11.2-10.6-11.2
			c-7.3,0-10.8,5.8-10.8,10.6c0,7.5,7.5,10.1,12.7,11.8c8.3,2.7,20.2,7.3,20.2,21.9v0.3c0,12.1-7.4,21.7-22.3,21.7
			c-9.7,0-21.8-6.5-21.8-21.9v-0.8H2805.9z"/>
		<path class="st0" d="M2851.3,2328.6h9.1v16.3h-9.1V2328.6z M2851.3,2353.6h9.1v70.9h-9.1V2353.6z"/>
		<path class="st0" d="M2883.8,2361.8h-14.9v-8.2h14.9v-25h9.1v25h17v8.2h-17v62.8h-9.1V2361.8z"/>
		<path class="st0" d="M2941.7,2422.2l-27.6-68.6h9.6l22.6,56.5l24.1-56.5h9.6l-41.1,95.8h-9.5L2941.7,2422.2z"/>
	</g>
</g>
<g>
	<rect x="2140.2" y="2190.8" class="st1" width="266.2" height="233.8"/>
	<polygon class="st2" points="2216.3,2302.2 2267.3,2302.2 2267.3,2278.3 2259.8,2278.3 2259.8,2226.4 2267.3,2226.4 2267.3,2202.5 
		2216.3,2202.5 2216.3,2226.4 2222.6,2226.4 2222.6,2241.6 2199.5,2241.6 2199.5,2226.4 2205.8,2226.4 2205.8,2202.5 2152,2202.5 
		2152,2226.4 2159.6,2226.4 2159.6,2278.3 2152.1,2278.3 2152.1,2302.2 2205.8,2302.2 2205.8,2278.3 2199.5,2278.3 2199.5,2262 
		2222.6,2262 2222.6,2278.3 2216.3,2278.3 	"/>
	<polygon class="st2" points="2205.9,2313.9 2152.1,2313.9 2152.1,2337.6 2159.9,2337.6 2159.9,2389.2 2152.3,2389.2 2152.3,2412.8 
		2205.9,2412.8 2205.9,2389.2 2198.1,2389.2 2198.1,2337.6 2205.9,2337.6 	"/>
	<polygon class="st2" points="2216.1,2412.8 2267.3,2412.8 2267.3,2389.2 2262.4,2389.2 2237.1,2356.4 2257.3,2337.6 2267.3,2337.6 
		2267.3,2313.9 2216.3,2313.9 2216.3,2337.6 2224.3,2337.6 2199.2,2361 2220.9,2389.2 2216.1,2389.2 	"/>
	<path class="st2" d="M2348.6,2345.1c0,2.6-0.7,4.6-2.2,6c-1.5,1.6-3.3,2.5-5.4,2.8c-2,0.3-5.8,0.5-11.4,0.5h-4.3v-18.8h3.5
		c5.8,0,9.8,0.2,11.9,0.5c2.3,0.3,4.1,1.3,5.6,2.8C2347.8,2340.5,2348.6,2342.5,2348.6,2345.1 M2387.5,2389.2l-13.7-22.6
		c4.3-1.9,7.8-5,10.5-9.1c2.7-4.2,4-8.8,4-13.9c0-6.8-2.2-12.7-6.5-17.8c-4.3-4.9-9.9-8.1-16.8-9.6c-2.5-0.5-5.2-0.9-8.1-1.2
		c-2.9-0.3-6.5-0.5-10.6-0.7c-4.1-0.2-8.6-0.2-13.4-0.2H2279v23.7h8v51.6h-8v23.7h53.7v-23.7h-7.5v-16.7h12.2l21.6,40.4h35.6v-23.7
		H2387.5z"/>
</g>
<g>
	<g>
		<g>
			<path class="st3" d="M26.2,0H27v4.8h0L30.9,0H32l-3.3,4.1L32,8.3h-1l-2.8-3.6L27,6.1v2.3h-0.8V0z"/>
			<path class="st3" d="M32.6,2.2h0.8v0.9h0c0.4-0.9,1.1-1,1.7-1v0.8c-0.6,0-1,0.2-1.3,0.6c-0.3,0.3-0.4,0.8-0.4,1.3v3.6h-0.8V2.2z"
				/>
			<path class="st3" d="M36.1,0h0.8v1.4h-0.8V0z M36.1,2.2h0.8v6.2h-0.8V2.2z"/>
			<path class="st3" d="M38.6,6.5c0,1.2,0.8,1.3,1.1,1.3c0.7,0,1.2-0.4,1.2-1.1c0-0.8-0.8-1-1.2-1.2C39,5.2,38,4.9,38,3.7
				C38,2.9,38.6,2,39.8,2c0.9,0,1.7,0.7,1.7,1.7v0h-0.8c-0.1-0.8-0.6-1-0.9-1c-0.6,0-0.9,0.5-0.9,0.9c0,0.7,0.7,0.9,1.1,1
				c0.7,0.2,1.8,0.6,1.8,1.9v0c0,1-0.6,1.9-1.9,1.9c-0.8,0-1.9-0.6-1.9-1.9V6.5H38.6z"/>
			<path class="st3" d="M43.3,2.9H42V2.2h1.3V0H44v2.2h1.5v0.7H44v5.5h-0.8V2.9z"/>
			<path class="st3" d="M46.3,0h0.8v1.4h-0.8V0z M46.3,2.2h0.8v6.2h-0.8V2.2z"/>
			<path class="st3" d="M54.6,8.3h-0.8V7.3h0c-0.7,1-1.8,1.2-2.4,1.2c-1.9,0-3.3-1.5-3.3-3.2c0-1.6,1.3-3.2,3.3-3.2
				c0.7,0,1.7,0.2,2.4,1.2h0V2.2h0.8V8.3z M51.4,7.8c1.3,0,2.5-1.1,2.5-2.5c0-1.4-1-2.5-2.5-2.5c-1.4,0-2.5,1-2.5,2.5
				C48.9,6.7,49.9,7.8,51.4,7.8z"/>
			<path class="st3" d="M55.8,2.2h0.8V3h0C56.8,2.6,57.5,2,58.5,2c0.8,0,1.4,0.2,2,0.8c0.5,0.5,0.8,1.2,0.8,2.2v3.4h-0.8V5
				c0-0.8-0.2-1.4-0.6-1.7c-0.4-0.4-1-0.5-1.3-0.5c-0.3,0-0.9,0.1-1.3,0.5c-0.3,0.3-0.6,0.9-0.6,1.6v3.5h-0.8V2.2z"/>
			<path class="st3" d="M63,6.5c0,1.2,0.8,1.3,1.1,1.3c0.7,0,1.2-0.4,1.2-1.1c0-0.8-0.8-1-1.2-1.2c-0.6-0.2-1.6-0.6-1.6-1.7
				C62.4,2.9,63,2,64.1,2c0.9,0,1.7,0.7,1.7,1.7v0H65c-0.1-0.8-0.6-1-0.9-1c-0.6,0-0.9,0.5-0.9,0.9c0,0.7,0.7,0.9,1.1,1
				C65,4.9,66,5.3,66,6.6v0c0,1-0.6,1.9-1.9,1.9c-0.8,0-1.9-0.6-1.9-1.9V6.5H63z"/>
			<path class="st3" d="M67.6,2.9h-1.3V2.2h1.3V0h0.8v2.2h1.5v0.7h-1.5v5.5h-0.8V2.9z"/>
			<path class="st3" d="M76.5,8.3h-0.8V7.3h0c-0.7,1-1.8,1.2-2.4,1.2C71.3,8.5,70,7,70,5.2C70,3.6,71.3,2,73.3,2
				c0.7,0,1.7,0.2,2.4,1.2h0V2.2h0.8V8.3z M73.3,7.8c1.3,0,2.5-1.1,2.5-2.5c0-1.4-1-2.5-2.5-2.5c-1.4,0-2.5,1-2.5,2.5
				C70.7,6.7,71.8,7.8,73.3,7.8z"/>
			<path class="st3" d="M83.8,8.3H83V7.3h0c-0.7,1-1.7,1.2-2.4,1.2c-1.9,0-3.3-1.5-3.3-3.2c0-1.6,1.3-3.2,3.3-3.2
				c0.7,0,1.7,0.2,2.4,1.2h0V0h0.8V8.3z M80.6,7.8c1.3,0,2.5-1.1,2.5-2.5c0-1.4-1-2.5-2.5-2.5c-1.4,0-2.5,1-2.5,2.5
				C78.1,6.7,79.1,7.8,80.6,7.8z"/>
		</g>
		<g>
			<path class="st3" d="M27.1,12v5.2c0,0.6,0.1,1.2,0.3,1.5c0.5,0.9,1.3,1,1.7,1c0.4,0,1.2-0.1,1.7-1c0.2-0.3,0.3-0.9,0.3-1.5V12
				h0.8v5.2c0,0.7-0.1,1.3-0.3,1.7c-0.6,1.3-1.7,1.6-2.5,1.6c-0.8,0-2-0.3-2.5-1.6c-0.2-0.4-0.3-1-0.3-1.7V12H27.1z"/>
			<path class="st3" d="M33,14.2h0.8V15h0c0.2-0.4,0.8-0.9,1.9-0.9c0.8,0,1.4,0.2,2,0.8c0.5,0.5,0.8,1.2,0.8,2.2v3.4h-0.8v-3.4
				c0-0.8-0.2-1.4-0.6-1.7c-0.4-0.4-1-0.5-1.3-0.5c-0.3,0-0.9,0.1-1.3,0.5c-0.3,0.3-0.6,0.9-0.6,1.6v3.5H33V14.2z"/>
			<path class="st3" d="M39.6,12h0.8v1.4h-0.8V12z M39.6,14.2h0.8v6.2h-0.8V14.2z"/>
			<path class="st3" d="M41,14.2h0.8l2.2,5.2l2.2-5.2h0.8l-2.6,6.2h-0.9L41,14.2z"/>
			<path class="st3" d="M47.8,17.5c0.1,1.2,1.2,2.2,2.4,2.2c1.1,0,1.9-0.7,2.2-1.5h0.8c-0.4,1.2-1.6,2.2-3,2.2
				c-1.7,0-3.2-1.4-3.2-3.2c0-1.7,1.4-3.2,3.2-3.2c1.4,0,2.3,0.8,2.8,1.6c0.4,0.6,0.5,1.2,0.5,1.7c0,0.1,0,0.1,0,0.2H47.8z
				 M52.6,16.8c-0.2-1.5-1.4-2.1-2.4-2.1c-1,0-2.2,0.7-2.4,2.1H52.6z"/>
			<path class="st3" d="M54.3,14.2h0.8v0.9h0c0.4-0.9,1.1-1,1.7-1v0.8c-0.6,0-1,0.2-1.3,0.6c-0.3,0.3-0.4,0.8-0.4,1.3v3.6h-0.8V14.2
				z"/>
			<path class="st3" d="M57.9,18.5c0,1.2,0.8,1.3,1.1,1.3c0.7,0,1.2-0.4,1.2-1.1c0-0.8-0.8-1-1.2-1.2c-0.6-0.2-1.6-0.6-1.6-1.7
				c0-0.9,0.6-1.7,1.8-1.7c0.9,0,1.7,0.7,1.7,1.7v0h-0.8c-0.1-0.8-0.6-1-0.9-1c-0.6,0-0.9,0.5-0.9,0.9c0,0.7,0.7,0.9,1.1,1
				c0.7,0.2,1.8,0.6,1.8,1.9v0c0,1-0.6,1.9-1.9,1.9c-0.8,0-1.9-0.6-1.9-1.9v-0.1H57.9z"/>
			<path class="st3" d="M61.8,12h0.8v1.4h-0.8V12z M61.8,14.2h0.8v6.2h-0.8V14.2z"/>
			<path class="st3" d="M64.7,14.9h-1.3v-0.7h1.3V12h0.8v2.2h1.5v0.7h-1.5v5.5h-0.8V14.9z"/>
			<path class="st3" d="M69.7,20.1l-2.4-6h0.8l2,4.9l2.1-4.9H73l-3.6,8.3h-0.8L69.7,20.1z"/>
		</g>
	</g>
	<g>
		<rect x="0" y="0" class="st3" width="23.1" height="20.3"/>
		<polygon class="st2" points="6.6,9.7 11.1,9.7 11.1,7.6 10.4,7.6 10.4,3.1 11.1,3.1 11.1,1 6.6,1 6.6,3.1 7.2,3.1 7.2,4.4 
			5.2,4.4 5.2,3.1 5.7,3.1 5.7,1 1,1 1,3.1 1.7,3.1 1.7,7.6 1,7.6 1,9.7 5.7,9.7 5.7,7.6 5.2,7.6 5.2,6.2 7.2,6.2 7.2,7.6 6.6,7.6 
					"/>
		<polygon class="st2" points="5.7,10.7 1,10.7 1,12.8 1.7,12.8 1.7,17.3 1.1,17.3 1.1,19.3 5.7,19.3 5.7,17.3 5,17.3 5,12.8 
			5.7,12.8 		"/>
		<polygon class="st2" points="6.6,19.3 11.1,19.3 11.1,17.3 10.6,17.3 8.4,14.4 10.2,12.8 11.1,12.8 11.1,10.7 6.6,10.7 6.6,12.8 
			7.3,12.8 5.1,14.8 7,17.3 6.6,17.3 		"/>
		<path class="st2" d="M18.1,13.4c0,0.2-0.1,0.4-0.2,0.5c-0.1,0.1-0.3,0.2-0.5,0.2c-0.2,0-0.5,0-1,0h-0.4v-1.6h0.3c0.5,0,0.8,0,1,0
			c0.2,0,0.4,0.1,0.5,0.2C18.1,13,18.1,13.2,18.1,13.4 M21.5,17.3l-1.2-2c0.4-0.2,0.7-0.4,0.9-0.8c0.2-0.4,0.3-0.8,0.3-1.2
			c0-0.6-0.2-1.1-0.6-1.5c-0.4-0.4-0.9-0.7-1.5-0.8c-0.2,0-0.4-0.1-0.7-0.1c-0.3,0-0.6,0-0.9-0.1c-0.4,0-0.7,0-1.2,0h-4.7v2.1h0.7
			v4.5h-0.7v2.1h4.7v-2.1h-0.6v-1.5h1.1l1.9,3.5h3.1v-2.1H21.5z"/>
	</g>
</g>
</svg>
