<?xml version="1.0" encoding="UTF-8"?>
<!-- Generator: Adobe Illustrator 27.9.0, SVG Export Plug-In . SVG Version: 6.00 Build 0)  -->
<svg xmlns="http://www.w3.org/2000/svg" xmlns:xlink="http://www.w3.org/1999/xlink" version="1.1" id="Layer_1" x="0px" y="0px" viewBox="0 0 309.4 132.1" style="enable-background:new 0 0 309.4 132.1;" xml:space="preserve">
<style type="text/css">
	.st0{fill:#00A5CD;}
</style>
<g>
	<path class="st0" d="M208.6,23c0,12.7,10.3,23,23,23c12.7,0,23-10.3,23-23c0-12.7-10.3-23-23-23C218.9,0,208.6,10.3,208.6,23"></path>
	<path class="st0" d="M288.8,78.1l1.3,0c10.6,0,19.2-8.6,19.2-19.2s-8.6-19.2-19.2-19.2c-9.5,0-17.5,7-19,16.1   c-2.3,8.9-3.4,16.8-8.1,20.3c-9,6.6-23.4,2.3-28.3,2.6c-14.8,0-26.2,11.4-26.2,25.5s11.4,25.5,25.5,25.5c12.9,0,23.6-9.6,25.3-22.1   c1-4.4-0.3-19.2,8.6-25.5C272.5,78.8,285.5,78.1,288.8,78.1"></path>
	<path d="M145,131.2h3v-15.4l9.3-7.8l17.4,23.2h4.1l-19.1-25.5l17.8-15.2h-4.4L148,112.1V74.6h-3V131.2z M81,131.2h3v-24.1   c0-10.5,7.1-15,12.9-15c2.6,0,9.6,0.9,9.6,11.2v27.9h3v-24.1c0-9.7,5.4-15,12.8-15c2.4,0,9.8,0.8,9.8,11.2v27.9h3v-27.8   c0-9.6-5.4-13.9-12.8-13.9c-6.6,0-10.5,3.1-12.9,8.6c-1-4.2-4.7-8.6-12.4-8.6c-6.1,0-11.5,4.1-12.8,9.3L84,90.4h-3V131.2z    M70.5,100.1c0-8.4-7.1-10.6-14.3-10.6c-9.6,0-15.1,4.5-15.5,13.5h3c0.4-7.1,5.2-10.9,12.5-10.9c9.3,0,11.3,6.2,11.3,8   c0,6.7-0.6,7.5-14,8.5c-6.7,0.6-15,2.5-15,12.1c0,8.6,5.9,11.5,13.6,11.5c7.8,0,13.2-4.2,15.1-9l0.2,2.1c0,3.3,0.7,5.9,5.5,5.9   c0.8,0,1.6-0.2,2.5-0.3v-2.5c-1,0.2-1.7,0.2-2.2,0.2c-2.7,0-2.7-2.5-2.7-4.9V100.1z M67.5,115.6c0,2.1-1.5,13.9-15.2,13.9   c-7.1,0-10.7-4-10.7-8.9c0-6.1,4-8.6,11.2-9.4c5.9-0.8,12.4-0.5,14.7-3.2V115.6z M0,117.6c0.2,9.5,7.2,14.5,16.5,14.5   c7.1,0,15.9-2.5,15.9-11.3c0-8.6-6.3-10.5-14.4-12c-6.6-1.4-13.6-2.5-13.6-9c0-5.8,6.2-7.8,11.7-7.8c6.8,0,12,3,12,10.4h3   c0-9.3-6.4-13-15.1-13c-6.9,0-14.7,2.4-14.7,10.5c0,8.3,7,10.1,14,11.6c7,1.4,14,2.5,14,9.4c0,7.1-7.6,8.6-12.9,8.6   c-7.4,0-13-4.4-13.5-11.9H0z"></path>
</g>
</svg>
