<svg width="325" height="68" viewBox="0 0 325 68" fill="none" xmlns="http://www.w3.org/2000/svg">
<g clip-path="url(#clip0)">

<g class="logo__text">
    <path d="M95.0383 11.1431V16.6379C95.0383 18.5134 95.7363 19.5005 97.3504 19.5005C99.0409 19.5005 99.608 18.1515 99.608 16.8573V11.1431H100.786V16.8902C100.786 18.9302 99.5317 20.3779 97.3504 20.3779C94.8092 20.3779 93.7949 19.0289 93.7949 16.6927V11.1431H95.0383Z" fill="#333333"/>
    <path d="M111.365 20.2244H110.384C108.421 17.8663 105.061 13.7973 104.516 12.9966H104.483V20.2244H103.447V11.1431H104.374C106.359 13.5011 109.686 17.4715 110.297 18.3818H110.318V11.1431H111.354V20.2244H111.365Z" fill="#333333"/>
    <path d="M115.422 11.1431H114.168V20.2244H115.422V11.1431Z" fill="#333333"/>
    <path d="M120.429 20.2244L117.092 11.2528L118.368 11.0225C119.24 13.5012 120.113 15.9908 120.974 18.7767H120.996C121.902 15.9908 122.829 13.5012 123.745 11.0225L124.868 11.176L121.269 20.2244H120.429Z" fill="#333333"/>
    <path d="M130.975 12.0534H127.78V14.9818H130.91V15.8921H127.78V19.314H131.531V20.2244H126.525V11.1431H130.975V12.0534Z" fill="#333333"/>
    <path d="M134.837 15.5521H135.546C137.138 15.5521 137.443 14.3566 137.443 13.5889C137.443 12.4702 136.745 12.0424 135.905 12.0424H134.837V15.5521ZM133.582 11.1431H136.156C137.629 11.1431 138.774 11.9108 138.774 13.4792C138.774 14.8173 138.13 15.5631 137.258 16.1224L139.505 19.9831L138.239 20.3669L136.145 16.4515H134.815V20.2134H133.561V11.1431H133.582Z" fill="#333333"/>
    <path d="M145.624 12.5472C145.187 12.2291 144.609 11.9001 144.064 11.9001C143.159 11.9001 142.657 12.4265 142.657 13.1285C142.657 13.7756 143.213 14.2581 144.369 15.1027C145.613 16.013 146.332 16.8356 146.332 18.0091C146.332 19.4459 144.98 20.3781 143.529 20.3781C142.668 20.3781 141.632 20.071 140.988 19.4349L141.545 18.6781C142.079 19.051 142.657 19.4678 143.508 19.4678C144.402 19.4678 145.078 18.9852 145.078 17.9762C145.078 16.8356 143.726 16.1007 142.995 15.5523C142.243 14.971 141.403 14.4117 141.403 13.1285C141.403 11.911 142.581 10.9897 143.977 10.9897C144.915 10.9897 145.7 11.3297 146.212 11.9001L145.624 12.5472Z" fill="#333333"/>
    <path d="M149.996 11.1431H148.742V20.2244H149.996V11.1431Z" fill="#333333"/>
    <path d="M154.675 20.2244V12.0534H151.785V11.1431H158.831V12.0534H155.93V20.2244H154.675Z" fill="#333333"/>
    <path d="M162.223 20.2246V16.2872L159.496 11.2749L160.859 11.0117L163.03 15.322L165.407 11.0117L166.52 11.1653L163.477 16.2872V20.2246H162.223Z" fill="#333333"/>
    <path d="M179.738 15.5304C179.738 13.8304 178.833 11.9001 176.608 11.9001C174.383 11.9001 173.478 13.8304 173.478 15.5304C173.478 17.3072 174.274 19.4678 176.608 19.4678C178.931 19.4678 179.738 17.3072 179.738 15.5304ZM172.082 15.5304C172.082 12.9859 173.991 10.9897 176.597 10.9897C179.204 10.9897 181.112 12.9859 181.112 15.5304C181.112 18.2394 179.389 20.3781 176.597 20.3781C173.816 20.3781 172.082 18.2394 172.082 15.5304Z" fill="#333333"/>
    <path d="M187.907 12.0534H184.711V15.4973H187.841V16.4076H184.711V20.2244H183.457V11.1431H187.907V12.0534Z" fill="#333333"/>
</g>

<g class="logo__mark">
    <path d="M35.2497 18.9084C33.0248 21.2117 27.528 27.8033 24.616 29.9639C23.4381 30.8413 22.2275 30.962 20.1662 30.6549C17.4068 30.2381 14.7021 23.1201 13.1643 18.6013C11.6155 14.0826 10.0668 1.46973 10.0668 1.46973L0.000223987 9.56392C0.000223987 9.56392 -0.0434016 10.2001 0.152914 11.2749C1.47259 18.4368 2.55232 22.4072 5.10442 27.3097C8.45269 33.7259 11.3974 37.8717 16.1962 38.0581C21.9657 38.2775 25.0631 34.2633 28.3023 30.0846C31.1053 26.4652 34.6717 20.3342 37.3874 16.9123V16.6052C36.7003 17.373 35.9805 18.1517 35.2497 18.9084Z" fill="#333333"/>
    <path d="M58.6866 37.4329C53.8333 36.8626 52.1864 34.6361 49.089 30.7426C49.089 30.7426 46.7223 26.7613 45.0209 23.0542C42.5233 17.6142 42.2507 14.1374 39.0769 15.4535C38.4007 15.7387 38.0953 16.2651 37.4082 16.9122V68L61.2605 48.9819L85.6581 68V4.01416C81.481 9.94771 73.6393 25.9167 71.8397 28.4064C69.364 31.8284 65.4377 38.2335 58.6866 37.4329Z" fill="#333333"/>
    <path d="M37.4082 0V16.6052C39.8949 13.9071 42.327 11.3736 43.6576 10.6058C45.359 9.61871 49.7106 7.82 51.5211 12.6019C53.6042 18.1077 56.8325 24.5019 59.6136 27.6168C63.1255 31.5652 65.4922 30.8852 68.4369 27.7703C71.0545 25.0065 82.0918 5.90065 85.6581 1.75484V0H37.4082Z" fill="#333333"/>
</g>
<g class="logo__text">
    <path d="M106.73 26.2896C108.213 31.247 109.708 36.2044 111.158 41.787H111.213C112.696 36.1277 114.19 31.0606 115.695 26.0264L117.735 26.3883L112.074 44.6386H109.828C108.366 39.758 106.937 34.8883 105.498 29.4812H105.443C104.014 34.8773 102.52 39.758 101.07 44.6386H98.823L93.457 26.5528L95.8564 26.0264C97.2852 31.0606 98.7248 36.1167 100.132 41.787H100.186C101.648 36.2044 103.153 31.247 104.647 26.2896H106.73Z" fill="#333333"/>
    <path d="M134.913 35.1517C134.913 31.7188 133.091 27.8143 128.576 27.8143C124.061 27.8143 122.239 31.7188 122.239 35.1517C122.239 38.7491 123.853 43.1252 128.576 43.1252C133.288 43.1252 134.913 38.7491 134.913 35.1517ZM119.447 35.1517C119.447 30.0188 123.308 25.9717 128.576 25.9717C133.844 25.9717 137.694 30.0078 137.694 35.1517C137.694 40.6356 134.204 44.9569 128.576 44.9569C122.948 44.9569 119.447 40.6356 119.447 35.1517Z" fill="#333333"/>
    <path d="M141.664 26.2896H144.194V42.807H151.774V44.6386H141.664V26.2896Z" fill="#333333"/>
    <path d="M158.11 44.6386L151.359 26.498L153.944 26.0264C155.722 31.0277 157.467 36.0618 159.212 41.6993H159.267C161.088 36.0618 162.964 31.0277 164.818 26.0264L167.086 26.3444L159.812 44.6386H158.11Z" fill="#333333"/>
    <path d="M178.658 28.1212H172.19V34.0547H178.527V35.8863H172.19V42.807H179.77V44.6386H169.66V26.2896H178.658V28.1212Z" fill="#333333"/>
    <path d="M185.66 35.2063H187.089C190.317 35.2063 190.928 32.7934 190.928 31.247C190.928 28.9876 189.521 28.1321 187.819 28.1321H185.66V35.2063ZM183.141 26.2896H188.354C191.331 26.2896 193.643 27.836 193.643 31.0057C193.643 33.7038 192.335 35.2283 190.59 36.3579L195.127 44.167L192.575 44.9567L188.354 37.0379H185.671V44.6386H183.141V26.2896Z" fill="#333333"/>
    <path d="M212.13 44.6386H209.6V35.5244H200.679V44.6386H198.148V26.2896H200.679V33.6818H209.6V26.2896H212.13V44.6386Z" fill="#333333"/>
    <path d="M225.501 37.4108C224.585 34.8663 223.701 32.3218 222.785 29.0205H222.731C221.793 32.3218 220.833 34.8663 219.841 37.4108H225.501ZM224.094 26.2896L230.9 44.6386H227.977L226.101 39.2425H219.143L217.19 44.6386H214.736L222.164 26.2896H224.094Z" fill="#333333"/>
    <path d="M253.313 44.6386H250.783V29.7005H250.728C249.997 31.8502 245.853 39.9554 243.399 44.6386H242.385C240.116 39.9444 236.343 32.1134 235.634 29.7005H235.579V44.6386H233.496V26.2896H236.212C238.557 31.1702 240.902 36.0728 243.225 41.2276C245.809 36.0618 248.383 31.1592 250.946 26.2896H253.313V44.6386Z" fill="#333333"/>
    <path d="M260.739 44.6386H258.209V26.2896H262.801C266.662 26.2896 269.028 28.0225 269.028 31.587C269.028 34.6799 266.389 37.4876 262.299 37.4876H261.492V35.8096L262.332 35.7876C264.786 35.656 266.323 34.3399 266.323 31.6199C266.323 29.6018 265.2 28.1321 262.495 28.1321H260.75V44.6386H260.739Z" fill="#333333"/>
    <path d="M276.511 44.6386V28.1212H270.676V26.2896H284.909V28.1212H279.041V44.6386H276.511Z" fill="#333333"/>
    <path d="M302.272 35.1517C302.272 31.7188 300.451 27.8143 295.935 27.8143C291.42 27.8143 289.599 31.7188 289.599 35.1517C289.599 38.7491 291.213 43.1252 295.935 43.1252C300.647 43.1252 302.272 38.7491 302.272 35.1517ZM286.807 35.1517C286.807 30.0188 290.668 25.9717 295.935 25.9717C301.203 25.9717 305.064 30.0078 305.064 35.1517C305.064 40.6356 301.574 44.9569 295.935 44.9569C290.297 44.9569 286.807 40.6356 286.807 35.1517Z" fill="#333333"/>
    <path d="M325 44.6386H323.016C319.057 39.8676 312.251 31.6418 311.149 30.0405H311.095V44.6386H309.012V26.2896H310.888C314.901 31.0605 321.63 39.0889 322.852 40.9205H322.906V26.2896H324.99V44.6386H325Z" fill="#333333"/>
</g>

</g>
<defs>
<clipPath id="clip0">
<rect width="325" height="68" fill="white"/>
</clipPath>
</defs>
</svg>
