<?xml version="1.0" encoding="utf-8"?>
<!-- Generator: Adobe Illustrator 21.1.0, SVG Export Plug-In . SVG Version: 6.00 Build 0)  -->
<svg version="1.1" xmlns="http://www.w3.org/2000/svg" xmlns:xlink="http://www.w3.org/1999/xlink" x="0px" y="0px" width="425.7px"
	 height="77.2px" viewBox="0 0 425.7 77.2" style="enable-background:new 0 0 425.7 77.2;" xml:space="preserve">
<style type="text/css">
	.st0{fill:#1D1D1B;}
</style>
<g id="Layer_1">
</g>
<g id="_x3C_Layer_x3E_">
	<g>
		<path class="st0" d="M311.5,77.2c-5.9,0-11-0.8-15.3-2.4c-4.3-1.6-8-3.9-10.9-6.7c-2.9-2.8-5.1-6.2-6.5-10
			c-1.4-3.9-2.1-8-2.1-12.5V0H302v42.8c0,3.6,0.9,6.4,2.6,8.4c1.7,2,4.2,3,7.4,3c3.2,0,5.6-1,7.4-3c1.7-2,2.6-4.8,2.6-8.4V0H347
			v45.6c0,4.5-0.8,8.6-2.3,12.5c-1.5,3.9-3.8,7.2-6.7,10c-3,2.8-6.7,5.1-11.1,6.7C322.5,76.4,317.4,77.2,311.5,77.2z"/>
		<path class="st0" d="M400.4,46.5h-20.6V75h-25.2V0h25.1v25.4h20.6V0h25.3v75h-25.2V46.5z"/>
	</g>
	<g>
		<path class="st0" d="M23.8,29.7c-2.4,2.1-5.8,3.2-10.1,3.2c-4.4,0-7.7-1-10.1-3.1S0,24.4,0,20V0h7.1v20c0,0.9,0.1,1.7,0.2,2.6
			s0.5,1.6,0.9,2.2c0.5,0.6,1.1,1.2,2,1.6c0.9,0.4,2,0.6,3.4,0.6c2.5,0,4.3-0.6,5.2-1.7s1.4-2.9,1.4-5.3V0h7.1v20
			C27.4,24.3,26.2,27.6,23.8,29.7z"/>
		<path class="st0" d="M37.3,8.9v3.2h0.1c0.8-1.3,1.9-2.3,3.2-2.9c1.3-0.6,2.6-0.9,4-0.9c1.7,0,3.1,0.2,4.2,0.7
			c1.1,0.5,2,1.1,2.6,1.9c0.6,0.8,1.1,1.8,1.3,3c0.3,1.2,0.4,2.5,0.4,3.9v14.3h-6.4V19c0-1.9-0.3-3.4-0.9-4.3
			c-0.6-0.9-1.7-1.4-3.2-1.4c-1.7,0-3,0.5-3.8,1.6c-0.8,1-1.2,2.7-1.2,5.1v12.2h-6.4V8.9H37.3z"/>
		<path class="st0" d="M56.6,5.3V0H63v5.3H56.6z M63,8.9v23.3h-6.4V8.9H63z"/>
		<path class="st0" d="M72.3,32.1l-8-23.3H71l4.9,15.9H76l4.9-15.9h6.3l-7.9,23.3H72.3z"/>
		<path class="st0" d="M95.2,26.6c1,0.9,2.3,1.4,4.1,1.4c1.3,0,2.4-0.3,3.3-1c0.9-0.6,1.5-1.3,1.7-2h5.6c-0.9,2.8-2.3,4.8-4.1,6
			c-1.9,1.2-4.1,1.8-6.8,1.8c-1.8,0-3.5-0.3-5-0.9c-1.5-0.6-2.7-1.4-3.7-2.5c-1-1.1-1.8-2.4-2.4-3.9c-0.6-1.5-0.8-3.1-0.8-5
			c0-1.7,0.3-3.4,0.9-4.9c0.6-1.5,1.4-2.8,2.4-3.9c1-1.1,2.3-2,3.8-2.6c1.5-0.6,3.1-0.9,4.8-0.9c2,0,3.7,0.4,5.2,1.1
			c1.5,0.8,2.7,1.8,3.6,3.1c0.9,1.3,1.6,2.8,2,4.4c0.4,1.7,0.6,3.4,0.5,5.2H93.6C93.7,24.1,94.3,25.6,95.2,26.6z M102.4,14.3
			c-0.8-0.8-1.9-1.3-3.5-1.3c-1,0-1.9,0.2-2.5,0.5c-0.7,0.3-1.2,0.8-1.6,1.3c-0.4,0.5-0.7,1.1-0.9,1.6c-0.2,0.6-0.3,1.1-0.3,1.5H104
			C103.7,16.4,103.2,15.2,102.4,14.3z"/>
		<path class="st0" d="M118.8,8.9v4.3h0.1c0.3-0.7,0.7-1.4,1.2-2c0.5-0.6,1.1-1.1,1.8-1.6c0.7-0.4,1.4-0.8,2.1-1
			c0.8-0.2,1.5-0.4,2.3-0.4c0.4,0,0.9,0.1,1.4,0.2v5.9c-0.3-0.1-0.7-0.1-1.1-0.2c-0.4,0-0.8-0.1-1.2-0.1c-1.2,0-2.2,0.2-3,0.6
			c-0.8,0.4-1.5,0.9-2,1.6s-0.8,1.5-1.1,2.4c-0.2,0.9-0.3,1.9-0.3,2.9v10.5h-6.4V8.9H118.8z"/>
		<path class="st0" d="M134,26.4c0.3,0.5,0.7,0.9,1.1,1.2c0.4,0.3,1,0.5,1.6,0.7c0.6,0.2,1.2,0.2,1.8,0.2c0.4,0,0.9-0.1,1.4-0.2
			c0.5-0.1,0.9-0.3,1.4-0.5c0.4-0.2,0.7-0.5,1-0.9c0.3-0.4,0.4-0.8,0.4-1.4c0-1-0.6-1.7-1.9-2.2c-1.3-0.5-3.1-1-5.3-1.4
			c-0.9-0.2-1.8-0.5-2.7-0.7s-1.7-0.7-2.4-1.1c-0.7-0.5-1.2-1-1.7-1.8c-0.4-0.7-0.6-1.6-0.6-2.6c0-1.5,0.3-2.7,0.9-3.7
			c0.6-1,1.4-1.7,2.3-2.3c1-0.6,2-0.9,3.2-1.2c1.2-0.2,2.4-0.3,3.7-0.3s2.5,0.1,3.7,0.4c1.2,0.2,2.2,0.6,3.2,1.2
			c0.9,0.6,1.7,1.3,2.3,2.3c0.6,0.9,1,2.1,1.1,3.6h-6.1c-0.1-1.2-0.6-2.1-1.4-2.5c-0.8-0.4-1.8-0.7-3-0.7c-0.4,0-0.8,0-1.2,0.1
			c-0.4,0-0.8,0.1-1.1,0.3c-0.3,0.2-0.6,0.4-0.9,0.7s-0.4,0.7-0.4,1.1c0,0.6,0.2,1,0.6,1.4c0.4,0.4,1,0.7,1.6,0.9
			c0.7,0.2,1.4,0.4,2.3,0.6c0.9,0.2,1.8,0.4,2.7,0.6c0.9,0.2,1.8,0.5,2.7,0.8c0.9,0.3,1.7,0.7,2.4,1.2c0.7,0.5,1.2,1.1,1.7,1.8
			s0.6,1.6,0.6,2.7c0,1.5-0.3,2.8-0.9,3.8c-0.6,1-1.4,1.9-2.4,2.5c-1,0.6-2.1,1.1-3.4,1.3c-1.3,0.3-2.6,0.4-3.9,0.4
			c-1.4,0-2.7-0.1-4-0.4c-1.3-0.3-2.4-0.7-3.4-1.3s-1.8-1.5-2.5-2.5c-0.6-1-1-2.3-1.1-3.9h6.1C133.6,25.3,133.7,25.9,134,26.4z"/>
		<path class="st0" d="M151.5,5.3V0h6.4v5.3H151.5z M157.9,8.9v23.3h-6.4V8.9H157.9z"/>
		<path class="st0" d="M174.1,8.9v4.3h-4.7v11.5c0,1.1,0.2,1.8,0.5,2.2c0.4,0.4,1.1,0.5,2.2,0.5c0.4,0,0.7,0,1,0
			c0.3,0,0.6-0.1,0.9-0.1v5c-0.5,0.1-1.1,0.1-1.8,0.2c-0.7,0-1.3,0-1.9,0c-1,0-1.9-0.1-2.8-0.2c-0.9-0.1-1.7-0.4-2.3-0.8
			c-0.7-0.4-1.2-0.9-1.6-1.7c-0.4-0.7-0.6-1.7-0.6-2.8V13.1h-3.9V8.9h3.9v-7h6.4v7H174.1z"/>
		<path class="st0" d="M184.3,39.1c-1.2,0.8-2.9,1.2-5.1,1.2c-0.7,0-1.3,0-2-0.1c-0.6,0-1.3-0.1-2-0.2v-5.3c0.6,0.1,1.2,0.1,1.8,0.2
			c0.6,0.1,1.3,0.1,1.9,0c0.8-0.1,1.5-0.4,1.9-1c0.4-0.6,0.6-1.2,0.6-1.9c0-0.5-0.1-1-0.3-1.4L173,8.9h6.8l5.3,15.9h0.1l5.1-15.9
			h6.6L187.2,35C186.5,36.9,185.5,38.3,184.3,39.1z"/>
		<path class="st0" d="M208.6,15.5c0.6-1.5,1.4-2.8,2.4-3.9c1-1.1,2.3-1.9,3.8-2.5c1.5-0.6,3.1-0.9,5-0.9c1.8,0,3.5,0.3,5,0.9
			c1.5,0.6,2.8,1.4,3.8,2.5c1,1.1,1.9,2.4,2.4,3.9c0.6,1.5,0.9,3.2,0.9,5.1c0,1.9-0.3,3.5-0.9,5c-0.6,1.5-1.4,2.8-2.4,3.8
			c-1,1.1-2.3,1.9-3.8,2.5c-1.5,0.6-3.1,0.9-5,0.9c-1.8,0-3.5-0.3-5-0.9c-1.5-0.6-2.7-1.4-3.8-2.5c-1.1-1.1-1.9-2.3-2.4-3.8
			c-0.6-1.5-0.9-3.2-0.9-5C207.8,18.7,208,17,208.6,15.5z M214.4,23.2c0.2,0.9,0.5,1.7,0.9,2.4c0.4,0.7,1,1.3,1.7,1.7
			c0.7,0.4,1.6,0.6,2.7,0.6s2-0.2,2.7-0.6c0.7-0.4,1.3-1,1.8-1.7c0.4-0.7,0.7-1.5,0.9-2.4c0.2-0.9,0.3-1.8,0.3-2.7
			c0-0.9-0.1-1.8-0.3-2.7c-0.2-0.9-0.5-1.7-0.9-2.4c-0.4-0.7-1-1.3-1.8-1.7c-0.7-0.4-1.6-0.7-2.7-0.7s-2,0.2-2.7,0.7
			c-0.7,0.4-1.3,1-1.7,1.7c-0.4,0.7-0.7,1.5-0.9,2.4c-0.2,0.9-0.3,1.8-0.3,2.7C214.2,21.5,214.2,22.4,214.4,23.2z"/>
		<path class="st0" d="M232,13.1V8.9h3.8V7.1c0-2.1,0.6-3.8,1.9-5.1c1.3-1.3,3.2-2,5.9-2c0.6,0,1.1,0,1.7,0.1c0.6,0,1.1,0.1,1.7,0.1
			V5c-0.8-0.1-1.5-0.1-2.3-0.1c-0.9,0-1.5,0.2-1.9,0.6c-0.4,0.4-0.6,1.1-0.6,2v1.4h4.4v4.3h-4.4v19h-6.4v-19H232z"/>
		<path class="st0" d="M7.2,40v12.3h13V40h7.1v32.1h-7.1V58.3h-13v13.9H0.1V40H7.2z"/>
		<path class="st0" d="M38.6,66.6c1,0.9,2.3,1.4,4.1,1.4c1.3,0,2.4-0.3,3.3-1c0.9-0.6,1.5-1.3,1.7-2h5.6c-0.9,2.8-2.3,4.8-4.1,6
			c-1.9,1.2-4.1,1.8-6.8,1.8c-1.8,0-3.5-0.3-5-0.9c-1.5-0.6-2.7-1.4-3.7-2.5S32,67,31.4,65.5c-0.6-1.5-0.8-3.1-0.8-5
			c0-1.7,0.3-3.4,0.9-4.9c0.6-1.5,1.4-2.8,2.4-3.9c1-1.1,2.3-2,3.8-2.6s3.1-0.9,4.8-0.9c2,0,3.7,0.4,5.2,1.1
			c1.5,0.8,2.7,1.8,3.6,3.1c0.9,1.3,1.6,2.8,2,4.4c0.4,1.7,0.6,3.4,0.5,5.2H37C37.1,64.1,37.6,65.6,38.6,66.6z M45.8,54.3
			c-0.8-0.8-1.9-1.3-3.5-1.3c-1,0-1.9,0.2-2.5,0.5c-0.7,0.3-1.2,0.8-1.6,1.3c-0.4,0.5-0.7,1.1-0.9,1.6C37.1,57,37,57.6,37,58h10.4
			C47.1,56.4,46.6,55.2,45.8,54.3z"/>
		<path class="st0" d="M61.6,48.9v4.3h0.1c0.3-0.7,0.7-1.4,1.2-2c0.5-0.6,1.1-1.1,1.8-1.6c0.7-0.4,1.4-0.8,2.1-1
			c0.7-0.2,1.5-0.4,2.3-0.4c0.4,0,0.9,0.1,1.4,0.2v5.9c-0.3-0.1-0.7-0.1-1.1-0.2s-0.8-0.1-1.2-0.1c-1.2,0-2.2,0.2-3,0.6
			c-0.8,0.4-1.5,0.9-2,1.6s-0.8,1.5-1.1,2.4c-0.2,0.9-0.3,1.9-0.3,2.9v10.5h-6.4V48.9H61.6z"/>
		<path class="st0" d="M86.6,48.9v4.3h-4.7v11.5c0,1.1,0.2,1.8,0.5,2.2c0.4,0.4,1.1,0.5,2.2,0.5c0.4,0,0.7,0,1,0
			c0.3,0,0.6-0.1,0.9-0.1v5c-0.5,0.1-1.1,0.1-1.8,0.2c-0.7,0-1.3,0-1.9,0c-1,0-1.9-0.1-2.8-0.2c-0.9-0.1-1.7-0.4-2.3-0.8
			c-0.7-0.4-1.2-0.9-1.6-1.7c-0.4-0.7-0.6-1.7-0.6-2.8V53.1h-3.9v-4.3h3.9v-7h6.4v7H86.6z"/>
		<path class="st0" d="M86.1,53.1v-4.3H90v-1.8c0-2.1,0.6-3.8,1.9-5.1c1.3-1.3,3.2-2,5.9-2c0.6,0,1.1,0,1.7,0.1
			c0.6,0,1.1,0.1,1.7,0.1V45c-0.8-0.1-1.5-0.1-2.3-0.1c-0.9,0-1.5,0.2-1.9,0.6c-0.4,0.4-0.6,1.1-0.6,2v1.4h4.4v4.3h-4.4v19H90v-19
			H86.1z"/>
		<path class="st0" d="M102.6,55.5c0.6-1.5,1.4-2.8,2.4-3.9c1-1.1,2.3-1.9,3.8-2.5s3.1-0.9,5-0.9s3.5,0.3,5,0.9s2.8,1.4,3.8,2.5
			c1,1.1,1.9,2.4,2.4,3.9c0.6,1.5,0.9,3.2,0.9,5.1c0,1.9-0.3,3.5-0.9,5c-0.6,1.5-1.4,2.8-2.4,3.8c-1.1,1.1-2.3,1.9-3.8,2.5
			c-1.5,0.6-3.1,0.9-5,0.9s-3.5-0.3-5-0.9c-1.5-0.6-2.7-1.4-3.8-2.5c-1.1-1.1-1.9-2.3-2.4-3.8c-0.6-1.5-0.9-3.2-0.9-5
			C101.7,58.7,102,57,102.6,55.5z M108.4,63.2c0.2,0.9,0.5,1.7,0.9,2.4c0.4,0.7,1,1.3,1.7,1.7c0.7,0.4,1.6,0.6,2.7,0.6
			s2-0.2,2.7-0.6c0.7-0.4,1.3-1,1.8-1.7c0.4-0.7,0.7-1.5,0.9-2.4c0.2-0.9,0.3-1.8,0.3-2.7c0-0.9-0.1-1.8-0.3-2.7
			c-0.2-0.9-0.5-1.7-0.9-2.4c-0.4-0.7-1-1.3-1.8-1.7c-0.7-0.4-1.6-0.7-2.7-0.7s-2,0.2-2.7,0.7c-0.7,0.4-1.3,1-1.7,1.7
			c-0.4,0.7-0.7,1.5-0.9,2.4c-0.2,0.9-0.3,1.8-0.3,2.7C108.1,61.5,108.2,62.4,108.4,63.2z"/>
		<path class="st0" d="M135,48.9v4.3h0.1c0.3-0.7,0.7-1.4,1.2-2c0.5-0.6,1.1-1.1,1.8-1.6c0.7-0.4,1.4-0.8,2.1-1
			c0.7-0.2,1.5-0.4,2.3-0.4c0.4,0,0.9,0.1,1.4,0.2v5.9c-0.3-0.1-0.7-0.1-1.1-0.2s-0.8-0.1-1.2-0.1c-1.2,0-2.2,0.2-3,0.6
			c-0.8,0.4-1.5,0.9-2,1.6s-0.8,1.5-1.1,2.4c-0.2,0.9-0.3,1.9-0.3,2.9v10.5h-6.4V48.9H135z"/>
		<path class="st0" d="M161,69.2c-0.8,1.3-1.7,2.2-2.9,2.7c-1.2,0.6-2.6,0.8-4.1,0.8c-1.7,0-3.3-0.3-4.6-1s-2.4-1.6-3.3-2.7
			c-0.9-1.2-1.5-2.5-1.9-4c-0.4-1.5-0.7-3.1-0.7-4.7c0-1.6,0.2-3.1,0.7-4.5c0.4-1.5,1.1-2.7,1.9-3.8c0.9-1.1,1.9-2,3.2-2.7
			c1.3-0.7,2.8-1,4.5-1c1.4,0,2.7,0.3,3.9,0.9s2.2,1.4,2.9,2.6h0.1V40h6.4v32.1h-6.1L161,69.2L161,69.2z M160.7,57.7
			c-0.2-0.9-0.5-1.7-0.9-2.3c-0.4-0.7-1-1.2-1.7-1.6c-0.7-0.4-1.6-0.6-2.6-0.6c-1.1,0-1.9,0.2-2.7,0.6c-0.7,0.4-1.3,1-1.7,1.7
			c-0.4,0.7-0.8,1.5-0.9,2.4c-0.2,0.9-0.3,1.8-0.3,2.8c0,0.9,0.1,1.8,0.3,2.7c0.2,0.9,0.5,1.7,1,2.4c0.5,0.7,1,1.3,1.8,1.7
			c0.7,0.4,1.6,0.7,2.5,0.7c1,0,1.9-0.2,2.6-0.6c0.7-0.4,1.3-1,1.7-1.7c0.4-0.7,0.7-1.5,0.9-2.4c0.2-0.9,0.3-1.8,0.3-2.8
			C161,59.5,160.9,58.6,160.7,57.7z"/>
		<path class="st0" d="M176.3,66.4c0.3,0.5,0.7,0.9,1.1,1.2c0.4,0.3,1,0.5,1.6,0.7c0.6,0.2,1.2,0.2,1.8,0.2c0.4,0,0.9-0.1,1.4-0.2
			c0.5-0.1,0.9-0.3,1.4-0.5c0.4-0.2,0.7-0.5,1-0.9c0.3-0.4,0.4-0.8,0.4-1.4c0-1-0.6-1.7-1.9-2.2c-1.3-0.5-3.1-1-5.3-1.4
			c-0.9-0.2-1.8-0.5-2.7-0.7s-1.7-0.7-2.4-1.1c-0.7-0.5-1.2-1-1.7-1.8c-0.4-0.7-0.6-1.6-0.6-2.6c0-1.5,0.3-2.7,0.9-3.7
			c0.6-1,1.4-1.7,2.3-2.3c1-0.6,2-0.9,3.2-1.2c1.2-0.2,2.4-0.3,3.7-0.3s2.5,0.1,3.7,0.4c1.2,0.2,2.2,0.6,3.2,1.2
			c0.9,0.6,1.7,1.3,2.3,2.3c0.6,0.9,1,2.1,1.1,3.6h-6.1c-0.1-1.2-0.6-2.1-1.4-2.5c-0.8-0.4-1.8-0.7-3-0.7c-0.4,0-0.8,0-1.2,0.1
			c-0.4,0-0.8,0.1-1.1,0.3c-0.3,0.2-0.6,0.4-0.9,0.7s-0.4,0.7-0.4,1.1c0,0.6,0.2,1,0.6,1.4c0.4,0.4,1,0.7,1.6,0.9
			c0.7,0.2,1.4,0.4,2.3,0.6c0.9,0.2,1.8,0.4,2.7,0.6c0.9,0.2,1.8,0.5,2.7,0.8c0.9,0.3,1.7,0.7,2.4,1.2c0.7,0.5,1.2,1.1,1.7,1.8
			s0.6,1.6,0.6,2.7c0,1.5-0.3,2.8-0.9,3.8c-0.6,1-1.4,1.9-2.4,2.5c-1,0.6-2.1,1.1-3.4,1.3c-1.3,0.3-2.6,0.4-3.9,0.4
			c-1.4,0-2.7-0.1-4-0.4c-1.3-0.3-2.4-0.7-3.4-1.3s-1.8-1.5-2.5-2.5c-0.6-1-1-2.3-1.1-3.9h6.1C175.9,65.3,176,65.9,176.3,66.4z"/>
		<path class="st0" d="M199.5,40v12.1h0.1c0.8-1.3,1.8-2.3,3.1-2.9c1.3-0.6,2.5-0.9,3.7-0.9c1.7,0,3.1,0.2,4.2,0.7
			c1.1,0.5,2,1.1,2.6,1.9c0.6,0.8,1.1,1.8,1.3,3c0.3,1.2,0.4,2.5,0.4,3.9v14.3h-6.4V59c0-1.9-0.3-3.4-0.9-4.3
			c-0.6-0.9-1.7-1.4-3.2-1.4c-1.7,0-3,0.5-3.8,1.6c-0.8,1-1.2,2.7-1.2,5.1v12.2h-6.4V40H199.5z"/>
		<path class="st0" d="M218.9,45.3V40h6.4v5.3H218.9z M225.3,48.9v23.3h-6.4V48.9H225.3z"/>
		<path class="st0" d="M235.3,48.9v4.3h0.1c0.3-0.7,0.7-1.4,1.2-2c0.5-0.6,1.1-1.1,1.8-1.6c0.7-0.4,1.4-0.8,2.1-1
			c0.8-0.2,1.5-0.4,2.3-0.4c0.4,0,0.9,0.1,1.4,0.2v5.9c-0.3-0.1-0.7-0.1-1.1-0.2c-0.4,0-0.8-0.1-1.2-0.1c-1.2,0-2.2,0.2-3,0.6
			c-0.8,0.4-1.5,0.9-2,1.6s-0.8,1.5-1.1,2.4c-0.2,0.9-0.3,1.9-0.3,2.9v10.5h-6.4V48.9H235.3z"/>
		<path class="st0" d="M251.7,66.6c1,0.9,2.3,1.4,4.1,1.4c1.3,0,2.4-0.3,3.3-1c0.9-0.6,1.5-1.3,1.7-2h5.6c-0.9,2.8-2.3,4.8-4.1,6
			c-1.9,1.2-4.1,1.8-6.8,1.8c-1.8,0-3.5-0.3-5-0.9c-1.5-0.6-2.7-1.4-3.7-2.5s-1.8-2.4-2.4-3.9c-0.6-1.5-0.8-3.1-0.8-5
			c0-1.7,0.3-3.4,0.9-4.9c0.6-1.5,1.4-2.8,2.4-3.9c1-1.1,2.3-2,3.8-2.6s3.1-0.9,4.8-0.9c2,0,3.7,0.4,5.2,1.1
			c1.5,0.8,2.7,1.8,3.6,3.1c0.9,1.3,1.6,2.8,2,4.4c0.4,1.7,0.6,3.4,0.5,5.2h-16.8C250.2,64.1,250.7,65.6,251.7,66.6z M258.9,54.3
			c-0.8-0.8-1.9-1.3-3.5-1.3c-1,0-1.9,0.2-2.5,0.5c-0.7,0.3-1.2,0.8-1.6,1.3c-0.4,0.5-0.7,1.1-0.9,1.6c-0.2,0.6-0.3,1.1-0.3,1.5
			h10.4C260.2,56.4,259.7,55.2,258.9,54.3z"/>
	</g>
</g>
</svg>
