<svg width="194" height="63" viewBox="0 0 194 63" fill="none" xmlns="http://www.w3.org/2000/svg">
<path d="M83.5965 58.9663V49.8252H81.7063V54.939L81.1342 54.427L76.2283 49.6879H76.1537V58.8289H78.0377V53.7152L78.6222 54.2272L83.5406 58.9663H83.6028H83.5965ZM64.9116 54.3271C64.9116 52.7286 66.0557 51.4112 67.6786 51.4112C69.3015 51.4112 70.4456 52.7224 70.4456 54.3271C70.4456 55.9317 69.3015 57.2429 67.6786 57.2429C66.0557 57.2429 64.9116 55.9442 64.9116 54.3271ZM62.9778 54.3271C62.9778 56.9557 64.9551 59.0037 67.6724 59.0037C70.3896 59.0037 72.3669 56.9495 72.3669 54.3271C72.3669 51.7046 70.371 49.6504 67.6724 49.6504C64.9738 49.6504 62.9778 51.7358 62.9778 54.3271ZM54.7515 51.4361C56.6915 51.4361 57.8294 52.6974 57.8294 54.3271C57.8294 55.9567 56.6977 57.218 54.7763 57.218H53.8312V51.4361H54.7515ZM54.8012 58.8289C57.8418 58.8289 59.7569 56.9682 59.7569 54.3271C59.7569 51.6859 57.8294 49.8252 54.7763 49.8252H51.9099V58.8289H54.8012ZM47.6133 58.9663V49.8252H45.723V54.939L45.151 54.427L40.245 49.6879H40.1704V58.8289H42.0544V53.7152L42.6389 54.2272L47.5573 58.9663H47.6195H47.6133ZM28.9283 54.3271C28.9283 52.7286 30.0724 51.4112 31.6953 51.4112C33.3182 51.4112 34.4623 52.7224 34.4623 54.3271C34.4623 55.9317 33.3182 57.2429 31.6953 57.2429C30.0724 57.2429 28.9283 55.9442 28.9283 54.3271ZM26.9945 54.3271C26.9945 56.9557 28.9719 59.0037 31.6891 59.0037C34.4063 59.0037 36.3837 56.9495 36.3837 54.3271C36.3837 51.7046 34.3877 49.6504 31.6891 49.6504C28.9905 49.6504 26.9945 51.7358 26.9945 54.3271ZM24.3271 58.8289V57.218H20.8761V49.8252H18.9547V58.8289H24.3208H24.3271Z" fill="#222226"/>
<path d="M149.886 41.9026V39.2115H143.158V35.5838H148.599V32.9988H143.158V29.5772H149.575V26.8861H139.962V41.8963H149.886V41.9026ZM134.522 29.5834V26.8923H122.956V29.5834H127.129V41.9026H130.325V29.5834H134.515H134.522ZM117.615 26.8923H114.419V36.127C114.419 38.0876 113.337 39.2552 111.366 39.2552C109.395 39.2552 108.313 38.0876 108.313 36.127V26.8923H105.117V36.4392C105.117 39.942 107.443 42.196 111.366 42.196C115.29 42.196 117.615 39.942 117.615 36.4392V26.8923ZM99.7758 29.5834V26.8923H88.2104V29.5834H92.3826V41.9026H95.5787V29.5834H99.7696H99.7758ZM82.807 26.8923H79.611V41.9026H82.807V26.8923ZM74.1703 29.5834V26.8923H62.6049V29.5834H66.7771V41.9026H69.9731V29.5834H74.164H74.1703ZM52.5815 42.196C56.1133 42.196 58.1466 40.5726 58.1466 37.8628C58.1466 35.3403 56.5299 34.2351 53.9122 33.2173C51.8789 32.4431 51.0706 31.8437 51.0706 30.9633C51.0706 30.0018 52.0655 29.4023 53.6013 29.4023C54.9692 29.4023 56.3807 29.7957 57.2574 30.3202V27.3606C56.3247 26.9423 54.8511 26.6113 53.3526 26.6113C50.1379 26.6113 47.9367 28.3222 47.9367 30.9883C47.9367 33.6544 49.4726 34.6971 52.0903 35.6587C54.1423 36.408 55.0376 36.9325 55.0376 37.9315C55.0376 38.662 54.3723 39.0991 53.2344 39.2677C52.8427 39.3488 52.3826 39.3738 51.9038 39.3488C50.5545 39.2677 49.1865 38.8056 48.1481 38.2624V41.3469C49.2301 41.8276 50.8903 42.2023 52.5878 42.2023M41.5696 42.1398V26.9048H38.4171V35.4277L37.4595 34.5723L29.2829 26.6738H29.1585V41.9151H32.2924V33.3859L33.2686 34.2413L41.4701 42.1398H41.5758H41.5696ZM22.1633 26.9048H18.9673V41.9151H22.1633V26.9048Z" fill="#222226"/>
<path d="M179.944 3.95948L185.36 13.1505V18.9697H188.556V13.1505L193.997 3.95948H190.384L186.958 10.1097L183.532 3.95948H179.938H179.944ZM170.48 6.65059C171.935 6.65059 172.949 7.39985 172.949 8.89838C172.949 10.3969 171.973 11.1274 170.561 11.1274H168.279V6.64434H170.48V6.65059ZM165.145 3.95948V18.9697H168.279V13.7186H170.437L173.073 18.9697H176.456L173.322 13.1754C174.939 12.5261 176.164 11.09 176.164 8.89838C176.164 5.68903 173.857 3.95948 170.393 3.95948H165.139H165.145ZM158.299 3.95948H155.103V13.1942C155.103 15.1547 154.021 16.3223 152.05 16.3223C150.079 16.3223 148.997 15.1547 148.997 13.1942V3.95948H145.801V13.5064C145.801 17.0092 148.127 19.257 152.05 19.257C155.974 19.257 158.299 17.0092 158.299 13.5064V3.95948ZM131.942 12.3825H134.516C135.66 12.3825 136.568 13.0693 136.568 14.3867C136.568 15.7042 135.573 16.4098 134.304 16.4098H131.935V12.3887L131.942 12.3825ZM131.942 10.2158V6.52571H133.937C135.206 6.52571 136.058 7.1938 136.058 8.44258C136.058 9.27926 135.66 9.85994 135.063 10.091C134.69 10.1971 134.298 10.2158 133.857 10.2158H131.948H131.942ZM137.382 11.09C138.439 10.6342 139.291 9.59145 139.291 8.17409C139.291 5.35811 136.903 3.96572 133.726 3.96572H128.889V18.9697H134.161C137.525 18.9697 139.851 17.4712 139.851 14.5928C139.851 12.882 138.707 11.5271 137.382 11.09ZM117.292 19.2632C120.824 19.2632 122.857 17.6398 122.857 14.93C122.857 12.4074 121.24 11.3023 118.623 10.2845C116.589 9.51028 115.781 8.91087 115.781 8.03048C115.781 7.06893 116.776 6.46951 118.312 6.46951C119.68 6.46951 121.091 6.86288 121.968 7.38736V4.42152C121.035 4.00318 119.562 3.67226 118.063 3.67226C114.848 3.67226 112.647 5.38308 112.647 8.04921C112.647 10.7153 114.183 11.7581 116.801 12.7196C118.853 13.4689 119.748 13.9934 119.748 14.9924C119.748 15.7229 119.083 16.16 117.939 16.3286C117.547 16.4098 117.087 16.4347 116.608 16.4098C115.259 16.3286 113.891 15.8665 112.852 15.3233V18.4078C113.934 18.8886 115.595 19.2632 117.292 19.2632ZM99.1294 14.8238C100.249 13.6375 101.374 12.4262 102.475 11.2149L103.264 10.528V18.9697H106.317V3.7347H106.255L99.1356 10.9464L92.0161 3.7347H91.9539V18.9697H95.0069V10.528L95.7966 11.2149C96.9158 12.4262 98.0164 13.6312 99.1418 14.8238M73.412 11.4646C73.412 8.79848 75.3209 6.60688 78.0195 6.60688C80.7181 6.60688 82.627 8.79848 82.627 11.4646C82.627 14.1307 80.7181 16.3223 78.0195 16.3223C75.3209 16.3223 73.412 14.1557 73.412 11.4646ZM70.1973 11.4646C70.1973 15.8416 73.499 19.2632 78.0257 19.2632C82.5524 19.2632 85.8541 15.8478 85.8541 11.4646C85.8541 7.08141 82.5337 3.66602 78.0257 3.66602C73.5177 3.66602 70.1973 7.1501 70.1973 11.4646ZM52.5819 11.4646C52.5819 8.79848 54.4908 6.60688 57.1894 6.60688C59.8879 6.60688 61.7968 8.79848 61.7968 11.4646C61.7968 14.1307 59.8879 16.3223 57.1894 16.3223C54.4908 16.3223 52.5819 14.1557 52.5819 11.4646ZM49.3672 11.4646C49.3672 15.8416 52.6689 19.2632 57.1956 19.2632C61.7222 19.2632 65.024 15.8478 65.024 11.4646C65.024 7.08141 61.7036 3.66602 57.1956 3.66602C52.6876 3.66602 49.3672 7.1501 49.3672 11.4646ZM45.1265 18.9697V16.2786H39.3749V3.95948H36.1789V18.9697H45.1265ZM22.0455 12.3825H24.6197C25.7638 12.3825 26.6779 13.0693 26.6779 14.3867C26.6779 15.7042 25.683 16.4098 24.4145 16.4098H22.0455V12.3887V12.3825ZM22.0455 10.2158V6.52571H24.0352C25.3037 6.52571 26.1556 7.1938 26.1556 8.44258C26.1556 9.27926 25.7638 9.85994 25.1607 10.091C24.7876 10.1971 24.3897 10.2158 23.9544 10.2158H22.0455ZM27.4862 11.09C28.5433 10.6342 29.3951 9.59145 29.3951 8.17409C29.3951 5.35811 27.0074 3.96572 23.8301 3.96572H18.9925V18.9697H24.2653C27.6292 18.9697 29.9547 17.4712 29.9547 14.5928C29.9547 12.882 28.8106 11.5271 27.4862 11.09Z" fill="#222226"/>
<path d="M3.19603 0H0V62.7884H3.19603V0Z" fill="#EC6608"/>
</svg>
